<?xml version="1.0" encoding="utf-8"?>
<!-- Generator: Adobe Illustrator 23.1.1, SVG Export Plug-In . SVG Version: 6.00 Build 0)  -->
<!DOCTYPE svg PUBLIC "-//W3C//DTD SVG 1.1//EN" "http://www.w3.org/Graphics/SVG/1.1/DTD/svg11.dtd" [
	<!ENTITY ns_extend "http://ns.adobe.com/Extensibility/1.0/">
	<!ENTITY ns_ai "http://ns.adobe.com/AdobeIllustrator/10.0/">
	<!ENTITY ns_graphs "http://ns.adobe.com/Graphs/1.0/">
	<!ENTITY ns_vars "http://ns.adobe.com/Variables/1.0/">
	<!ENTITY ns_imrep "http://ns.adobe.com/ImageReplacement/1.0/">
	<!ENTITY ns_sfw "http://ns.adobe.com/SaveForWeb/1.0/">
	<!ENTITY ns_custom "http://ns.adobe.com/GenericCustomNamespace/1.0/">
	<!ENTITY ns_adobe_xpath "http://ns.adobe.com/XPath/1.0/">
]>
<svg version="1.1" id="Слой_1" xmlns:x="&ns_extend;" xmlns:i="&ns_ai;" xmlns:graph="&ns_graphs;"
	 xmlns="http://www.w3.org/2000/svg" xmlns:xlink="http://www.w3.org/1999/xlink" x="0px" y="0px" viewBox="0 0 68.11841 49.64882"
	 style="enable-background:new 0 0 68.11841 49.64882;" xml:space="preserve">
<metadata>
	<sfw  xmlns="&ns_sfw;">
		<slices></slices>
		<sliceSourceBounds  bottomLeftOrigin="true" height="49.64882" width="68.11841" x="-5.71314" y="3.52059"></sliceSourceBounds>
	</sfw>
</metadata>
<path d="M67.82929,24.2153c-0.13763-0.66166-0.35432-1.51802-0.8131-2.27435c-0.47048-0.77243-1.13228-1.31991-1.86533-1.54144
	c-0.30943-0.09369-0.6208-0.12882-0.96635-0.16249c-0.22451-0.02147-0.49977-0.0566-0.79065-0.0932l-0.06931-0.00878
	c-1.56567-0.20055-1.99809-0.22202-2.06641,0.01025c-0.0615,0.21372,0.25379,0.36499,1.0376,0.71729l0.00488,0.00244
	c0.46072,0.20689,0.98294,0.4416,1.30017,0.66947c0.72232,0.51674,1.37729,1.30966,1.70819,2.06892
	c0.75941,1.74541,0.53002,3.74113,0.25476,5.47433c-0.14251,0.89978-0.31821,1.84543-0.76331,2.64958
	c-0.39532,0.71144-1.22501,1.20427-2.21966,1.31845c-0.02929,0.00293-0.05661,0.01756-0.07711,0.04001l-0.05368,0.06343
	c-0.25476,0.29472-0.47732,0.55236-0.80529,0.55236c-0.02928,0-0.06052-0.00293-0.09273-0.00683
	c-0.42461-0.06246-0.85312-0.47234-1.02101-0.74364c-0.17765-0.28399-0.29576-0.49283-0.31138-0.79243
	c-0.07223-1.36139-0.00195-2.55784,0.2167-3.65769c0.04978-0.25178,0.10932-0.50649,0.16691-0.75242
	c0.05564-0.23714,0.11323-0.48307,0.16203-0.7251l0.01171-0.05758c0.21572-1.06861,0.51148-2.5315,0.01074-4.13442
	c-0.35628-1.13937-1.46611-2.05379-2.4061-2.54174c0.86483-0.02147,1.73649-0.0688,2.59156-0.14151
	c0.05759-0.00537,0.10347-0.05026,0.10835-0.10735c0.00586-0.05709-0.03026-0.10979-0.08492-0.12589
	c-0.46853-0.1376-0.97025-0.1376-1.37338-0.1376c-0.00879,0-0.01757,0-0.02636,0c-0.40509,0-0.80431,0.04538-1.15961,0.08539
	c-0.81114,0.08978-1.57836,0.17713-2.27042-0.14297c-0.4129-0.19176-0.87264-0.22983-1.32555-0.22983
	c-0.07711,0-0.15422,0.00098-0.23133,0.00293c0.01885-0.01391,0.02989-0.04721,0.04691-0.06557
	c0.00677-0.0075,0.01275-0.01866,0.0194-0.02714c0.03526-0.04379,0.07443-0.07765,0.10157-0.14199
	c0.24891-0.59628,0.14056-1.24672,0.03514-1.87569l-0.01171-0.06783c-0.13177-0.77975-0.14642-1.57413-0.1591-2.34266
	l-0.00098-0.01708c-0.01464-0.85196-0.02928-1.73369-0.20401-2.60469c-0.14837-0.74022-0.80724-1.21793-1.37436-1.41848
	c-0.5681-0.20104-1.16547-0.22007-1.75016-0.22007c-0.06833,0-0.13568,0.00049-0.20401,0.00049h-0.00683
	c-1.23185,0.00585-2.73017,0.08149-4.17968,0.15468l-0.0205,0.00098c-1.48856,0.07514-2.90099,0.1459-4.02253,0.1459
	c-0.08883,0-0.1757-0.00049-0.26159-0.00146c-3.23286-0.03464-10.88065-0.03806-12.07784,0.71924
	c-1.27577,0.80659-1.10886,2.37242-0.96146,3.75382l0.00488,0.04831c0.06882,0.64654,0.06882,1.14132,0.06882,1.57755
	c0,0.52699,0,0.98176,0.11567,1.52095c0.08102,0.37914,0.20791,0.74608,0.37726,1.09155
	c-0.5022,0.1176-1.0459,0.06002-1.57153,0.00293l-0.14642-0.01562c-0.18595-0.01903-0.3553-0.03465-0.51782-0.04782
	c-0.04539-0.12931-0.12543-0.2391-0.23134-0.31766c-0.33236-0.24397-0.73452-0.12882-1.12399-0.0161
	c-0.14153,0.0405-0.27575,0.07905-0.40313,0.10052c0.05369-0.0649,0.09029-0.1415,0.10444-0.22055
	c0.01122-0.06392,0.0122-0.13126,0.00342-0.19957c0.05222,0.01171,0.10542,0.02684,0.16155,0.04245l0.10932,0.03025
	c0.39191,0.10442,0.81212,0.12784,1.21476,0.06831c0.09761-0.01415,0.19913-0.03611,0.28502-0.09905
	c0.10493-0.07661,0.16301-0.20348,0.15911-0.34693c-0.00586-0.17274-0.09908-0.34205-0.23817-0.43086
	c-0.24695-0.15761-0.55345-0.1054-0.76771-0.03513c-0.07174,0.02391-0.14398,0.0527-0.21377,0.081l-0.0205,0.0083
	c-0.13617,0.05465-0.26404,0.10686-0.39776,0.12882c-0.1635,0.02635-0.3309,0.00878-0.51587-0.01562l-0.13568-0.27228
	c-0.03612-0.07026-0.11957-0.23422-0.29039-0.24202c-0.00244,0-0.00439,0-0.00635,0c-0.08834,0-0.24012,0.04343-0.31967,0.31766
	c-0.01367,0.04635-0.02343,0.08246-0.03172,0.11662c-0.31577-0.02147-0.62666-0.02586-0.9234-0.02049
	c-0.25769,0.00537-0.55394,0.02245-0.81017,0.15614c-0.2982,0.15517-0.48024,0.4616-0.44217,0.74608
	c0.0366,0.27228,0.26306,0.50845,0.57688,0.60213c0.25037,0.07368,0.50513,0.05709,0.77796,0.03757h0.00488
	c1.08689-0.07612,2.18989-0.07514,3.27923,0.00439c0.01562,0.20494-0.06735,0.43037-0.21035,0.57383
	c-0.27087,0.27179-0.67839,0.35816-1.07811,0.41183c-0.87069,0.11613-1.81312,0.1254-2.88488,0.02732
	c-0.2694-0.02391-0.52954-0.05563-0.74965-0.17225c-0.23085-0.1215-0.37726-0.33376-0.37336-0.54016
	c0.00146-0.10198,0.07126-0.22153,0.17863-0.3035c0.0571-0.04343,0.11762-0.07124,0.17228-0.08002
	c0.03904,0.00244,0.07809,0.00488,0.11616,0.00683c0.00342,0,0.00732,0.00049,0.01123,0.00049
	c0.05515,0,0.10591-0.04391,0.1142-0.10101c0.00976-0.06148-0.02831-0.11906-0.08834-0.13419
	c-0.05076-0.01269-0.10591-0.01659-0.15666-0.01122c-2.82729-0.16249-5.31099-0.30692-7.59215-0.44062
	c-0.00293-0.03318-0.00586-0.06636-0.00976-0.09905c-0.04197-0.37572-0.184-0.64361-0.41143-0.77536
	c-0.21084-0.12101-0.45633-0.10637-0.65253-0.09515l-0.6657,0.03904c-0.34993,0.02098-0.78576,0.04635-1.13423,0.2713
	c-0.18839,0.1215-0.33432,0.32058-0.40118,0.54602c-0.13763,0.00683-0.28795,0.01952-0.46023,0.03952
	c-0.60616,0.0688-1.23429,0.14004-1.38851-0.33815c-0.00586-0.01903-0.00879-0.04343,0.01171-0.08295
	c0.19522-0.36548,1.634-0.78609,3.02544-1.19256l-0.0039-0.01458c0.00006,0,0,0,0.00006,0l0.01068,0.01262
	c1.19915-0.35035,2.4388-0.71241,3.25385-1.1218c0.89167-0.44843,1.57641-0.9315,2.18062-1.35797
	c0.75892-0.53626,1.41438-0.99981,2.29824-1.29307c0.23768-0.07905,0.531-0.1537,0.82725-0.21031
	c-0.04002,0.66459-0.00049,1.10521,0.12348,1.38578c0.14837,0.33571,0.52368,0.60701,0.97903,0.70851
	c0.44803,0.09857,0.87654,0.01854,1.14985-0.21909c0.33139-0.28789,0.50953-0.75535,0.45389-1.1906
	c-0.04832-0.37719-0.2655-0.67972-0.61055-0.85148c-0.50269-0.24934-1.27187-0.20299-1.83557-0.11857
	c0.01025-0.12443,0.02147-0.24544,0.03221-0.35864c0.02196-0.23519,0.04344-0.4577,0.04295-0.6036
	c-0.00049-0.0405-0.00097-0.081-0.00146-0.12248c-0.00439-0.28008-0.0083-0.56993,0.12933-0.80756
	c0.00781-0.01269,0.01074-0.02586,0.01367-0.03904c0.00049-0.0039,0.00146-0.0083,0.00195-0.01073
	c0.41533-0.93199,0.7516-1.79713,1.02784-2.6447c0.41289-1.27795,0.65399-2.36071,0.75795-3.40883
	c0.08492-0.85196,0.06247-1.55218-0.07028-2.20359c-0.01824-0.09356-0.05619-0.16993-0.079-0.25929
	c-0.03386-0.13352-0.074-0.26441-0.1197-0.39298c-0.0593-0.16603-0.12842-0.32674-0.20657-0.47844
	c-0.05991-0.11668-0.12696-0.2305-0.2001-0.34187c-0.04679-0.071-0.07742-0.15267-0.12915-0.22062
	c-0.75209-0.99249-2.29678-1.41311-3.29484-1.23403c-0.76527,0.13614-1.40852,0.51723-1.96539,1.16425
	c-0.36409,0.42159-0.66278,0.91003-0.91364,1.49313c-0.01074-0.00293-0.02099-0.00586-0.03124-0.00927
	c-0.01513-0.00439-0.03026-0.00927-0.0449-0.0122c-1.03125-0.26252-1.94001-0.21177-2.77702,0.15517
	c-0.85214,0.37572-1.43146,0.99347-1.72234,1.83665c-0.12885,0.37816-0.20547,0.78463-0.22792,1.20817
	c-0.03612,0.75974,0.1469,1.43848,0.54418,2.01622c0.25135,0.36645,0.57541,0.69387,0.99075,1.00225
	c0.01415,0.01025,0.0288,0.01952,0.04392,0.02928c0.04637,0.03074,0.09468,0.06246,0.13177,0.11174
	c-0.05125,0.03855-0.10688,0.06978-0.16106,0.10052c-0.06394,0.03611-0.12982,0.07368-0.18644,0.1215
	c-0.40411,0.35133-0.61592,0.97151-0.54027,1.57901c0.07077,0.567,0.37531,1.01396,0.858,1.25745
	c0.30601,0.15712,0.64081,0.26935,1.02296,0.34303c1.37094,0.27033,2.76482,0.21958,4.26021-0.15468
	c0.07907-0.01854,0.13519-0.04001,0.15423-0.08344c0.01903-0.04392-0.00439-0.10052-0.0449-0.17225
	c-0.13324-0.2391-0.25428-0.45428-0.38507-0.65922c-0.26941-0.42354-0.54515-0.76218-0.84384-1.03592
	c-0.46365-0.42549-0.97513-0.64556-1.56372-0.6724l-0.05954-0.00293c-0.16301-0.00878-0.33188-0.01757-0.49586-0.02293
	c-0.16643-0.0083-0.32992-0.01854-0.4983-0.0444c-0.05887-0.00897-0.11341-0.02745-0.16941-0.04276
	c-0.07498-0.02043-0.14825-0.04495-0.21889-0.07502c-0.23006-0.09802-0.43882-0.2358-0.63124-0.38335
	c0.0205-0.00586,0.03953-0.01171,0.05759-0.01757c0.04636-0.01415,0.08638-0.02635,0.12738-0.03416
	c0.13617-0.03416,0.29088-0.06148,0.47341-0.08393c0.17228-0.02245,0.21572-0.06636,0.23378-0.2347
	c0.00879-0.08149,0.0122-0.16493,0.01513-0.24544c0.00098-0.02928,0.00244-0.05855,0.00391-0.08832
	c0.00207-0.08435,0.01049-0.15743,0.01836-0.23166c0.0061-0.05752,0.01428-0.11455,0.02477-0.17127
	c0.01257-0.06746,0.02452-0.13528,0.04325-0.19725c0.09615-0.30253,0.25672-0.52796,0.49147-0.68899
	c0.16008-0.10589,0.34212-0.18689,0.55638-0.24837c0.66424-0.18249,1.21525-0.00244,1.64132,0.5265
	c0.16594,0.20982,0.30454,0.43818,0.41094,0.67874c0.4373,0.97346,0.58566,2.01866,0.6657,2.82085
	c0.00586,0.06685-0.00488,0.09515-0.07614,0.11857c-0.15178,0.04733-0.20547,0.13272-0.18497,0.29424
	c0.01855,0.16444,0.08883,0.29667,0.21035,0.3928c0.05125,0.04245,0.10542,0.08051,0.18644,0.05855
	c0.09029-0.02977,0.09371-0.11662,0.09615-0.17908c0.01025-0.11662,0.01269-0.23422,0.01367-0.34498
	c0.46658,0.13077,0.93072,0.26301,1.38021,0.39134c0.24891,0.07124,0.49733,0.14199,0.74721,0.21275
	c0,0,0.03953,0.0122,0.09615,0.02586c0.05564,0.01415,0.12885,0.02586,0.18302,0.0244
	c-0.00635,0.10589-0.00927,0.21958-0.00879,0.33815c0,0.13077-0.01903,0.33522-0.041,0.57139l-0.00586,0.0649
	c-0.01122,0.11662-0.02245,0.23958-0.0327,0.36645c-0.47829,0.08783-0.82432,0.19664-0.91998,0.22836
	c-0.91461,0.30448-1.58471,0.77731-2.36413,1.32723c-0.6252,0.4416-1.27235,0.89783-2.14646,1.33748
	c-0.79357,0.39866-2.02005,0.75681-3.20602,1.10375l-0.01025,0.00293c-1.57251,0.45867-2.93076,0.85538-3.17283,1.31113
	c-0.04636,0.08685-0.05613,0.17908-0.02831,0.26642c0.15862,0.49625,0.63203,0.55383,0.97464,0.55383
	c0.21474,0,0.4412-0.02586,0.66033-0.05026l0.00927-0.00098c0.1552-0.01805,0.28161-0.02928,0.3963-0.0366
	c0.00067,0.04349,0.02196,0.07258,0.02855,0.11162c0.00513,0.03337,0.01452,0.06581,0.02514,0.09832
	c0.01269,0.03757,0.01055,0.08502,0.03026,0.11845c-0.00195,0-0.0039,0.00049-0.00586,0.00097
	c-0.26501,0.03757-0.48464,0.18689-0.67839,0.31912c-0.13519,0.09174-0.28649,0.24983-0.30454,0.41818
	c-0.00879,0.08783,0.01806,0.16785,0.07858,0.23178c0.10786,0.11369,0.27282,0.10686,0.36018,0.10588l0.65009-0.02147h0.00439
	c-0.02147,0.13419-0.0737,0.26252-0.1513,0.37377c-0.13568-0.07466-0.33578-0.15907-0.5432-0.15907c-0.00439,0-0.00927,0-0.01367,0
	c-0.27136,0.00488-0.57932,0.18835-0.62471,0.48844c-0.00732,0.04831-0.00195,0.08929,0.01708,0.1254
	c0.02343,0.04343,0.06491,0.07466,0.12348,0.09222c0.35189,0.11418,0.76429,0.03269,1.05029-0.20592l0.01074-0.01025
	c0.00879-0.00732,0.01757-0.01513,0.02587-0.02342c0.02831,0.01952,0.05661,0.04148,0.06882,0.06441
	c0.01367,0.02342,0.01464,0.04294,0.00342,0.06734c-0.0366,0.08149-0.18595,0.17225-0.33236,0.20348
	c-0.09224,0.01903-0.40313,0.09808-0.52319,0.30595c-0.04783,0.08393-0.0571,0.17615-0.02684,0.26642
	c0.00244,0.00878,0.00634,0.01756,0.01123,0.02537c-0.00049,0-0.00146,0-0.00244,0c-0.29869,0-0.57493,0.10588-0.7804,0.30058
	c-0.06833,0.06441-0.12348,0.1337-0.16399,0.20592c-0.03837,0.01208-0.05918,0.04221-0.09432,0.0577
	c-0.06814,0.02897-0.1333,0.07002-0.19852,0.12144c-0.03191,0.0255-0.07937,0.03556-0.10688,0.06532
	c-0.13226,0.14395-0.21426,0.33961-0.25037,0.59774c-0.03172,0.22641-0.02635,0.54211,0.18009,0.76023
	c0.11469,0.12247,0.30259,0.182,0.4739,0.15419c0.14398-0.02293,0.25867-0.1054,0.31479-0.22641
	c0.01513-0.03123,0.01513-0.06783,0-0.10003c-0.01562-0.03221-0.04344-0.05612-0.07711-0.0649
	c-0.09078-0.02489-0.13665-0.11662-0.14983-0.19421c-0.0083-0.04831-0.00488-0.0971,0.00878-0.13858
	c0.03758,0.07466,0.08053,0.13516,0.13129,0.18396c0.12494,0.11857,0.34701,0.17127,0.50172,0.05221
	c0.02489-0.01952,0.041-0.0488,0.04441-0.08051c0.01903-0.17127-0.07321-0.34059-0.24012-0.44111
	c-0.02922-0.01769-0.0618-0.01012-0.09279-0.02165c-0.04618-0.01787-0.09163-0.02879-0.13824-0.03227
	c-0.02934-0.00232-0.05832-0.02318-0.08669-0.02025c-0.06003-0.18249-0.09029-0.33327-0.04881-0.4699
	c0-0.00049,0.00049-0.00049,0.00098-0.00049c0.28209-0.05319,0.58469,0.02342,0.79016,0.20006
	c0.21426,0.18493,0.31967,0.47575,0.26892,0.74071c-0.09761,0.51089-0.73306,0.77731-1.24893,0.69631
	c-0.0366-0.00683-0.06882,0.0039-0.09419,0.02586c-0.02636,0.02245-0.04148,0.05367-0.04295,0.08881
	c-0.02831,1.16913,0.04978,2.62713,0.91363,3.5318c0.19425,0.20299,0.34115,0.45868,0.42509,0.73876l-1.11715,0.03513
	c-0.36018,0.01073-0.71988,0.05953-0.91559,0.34157c-0.0654,0.09369-0.09419,0.19811-0.0815,0.29472
	c0.02343,0.17274,0.16399,0.30155,0.41728,0.38158c0.50513,0.1581,0.93218,0.21275,1.2992,0.16883
	c0.18888,0.01269,0.33578,0.20396,0.44266,0.36987c0.29966,0.46648,0.53051,0.97395,0.6862,1.50777
	c-0.09224-0.03806-0.184-0.06734-0.27331-0.08588c-0.01415-0.01659-0.03221-0.02928-0.05173-0.03611
	c-0.40996-0.14053-0.77161-0.16005-1.0742-0.06246c-0.34212,0.11126-0.68425,0.44209-0.67693,0.8588
	c0.00195,0.05953,0.04588,0.10833,0.10542,0.11613c0.01171,0.00195,0.02343,0.00195,0.03514,0.00195
	c0.02837,0,0.04838-0.02037,0.07412-0.02732c0.01452-0.00384,0.02818-0.0097,0.04197-0.01549
	c0.10444-0.04379,0.19492-0.11918,0.26605-0.19921c0.24256-0.27032,0.60714-0.43037,0.96879-0.43037
	c0.02343,0,0.04685,0.00098,0.07028,0.00195c-0.08443,0.33864-0.2328,0.64995-0.43046,0.90174
	c-0.04051-0.03123-0.08248-0.05856-0.12738-0.08295c-0.32846-0.18152-0.75404-0.15517-1.06151,0.06148
	c-0.30552,0.21763-0.46951,0.61189-0.40801,0.98176c0.0083,0.04879,0.0449,0.08685,0.09371,0.09661l0.531,0.11125
	c0.07028,0.01464,0.17521,0.03708,0.27721-0.0039c0.08834-0.03513,0.1469-0.10735,0.18546-0.15517l0.5271-0.65191
	c0.22255,0.30546,0.24744,0.73486,0.19571,1.03739c-0.01123,0.06148-0.02587,0.13175-0.06052,0.17957
	c-0.04197,0.05856-0.12055,0.09661-0.184,0.12394c-0.07174,0.0283-0.14886,0.0527-0.22939,0.07124
	c-0.23866-0.27033-0.50416-0.53187-0.88679-0.53187h-0.01415c-0.09956,0.00097-0.17716,0.02537-0.23671,0.07417
	c-0.08053,0.06734-0.1142,0.16102-0.09468,0.26349c0.03319,0.17469,0.21767,0.33278,0.37678,0.38548
	c0.24354,0.07905,0.50953,0.10247,0.76429,0.06636c0.00342,0.0039,0.00683,0.00781,0.01025,0.01171
	c0.26843,0.31131,0.54613,0.63336,0.9639,0.65776c0.09566,0.00293,0.18302-0.00586,0.26696-0.01659l0.02635-0.00391
	c0.05857-0.0078,0.11957-0.01659,0.17814-0.01659c0.19864,0.00293,0.38995,0.10247,0.52563,0.27228
	c0.13714,0.17176,0.19278,0.38548,0.14934,0.57286c-0.04344,0.1864-0.18839,0.35425-0.38703,0.44794
	c-0.00342,0.00098-0.00683,0.00293-0.01025,0.00488c0.07809-0.28497,0.04783-0.60213-0.07858-0.81293
	c-0.08492-0.14248-0.21084-0.23421-0.3636-0.26642c-0.15081-0.03123-0.30308,0.00683-0.43437,0.10247
	c-0.14495,0.1054-0.24256,0.26935-0.26062,0.43721c-0.03172,0.29863,0.15276,0.61092,0.44803,0.75925
	c0.08248,0.04099,0.17277,0.06734,0.26843,0.08002c-0.00293,0.00195-0.00586,0.0039-0.0083,0.00586
	c-0.16399,0.02147-0.30357,0.01561-0.42851-0.01269c-0.20498-0.04782-0.39337-0.14834-0.5925-0.25373l-0.02489-0.01269
	c-0.12299-0.06538-0.24988-0.1337-0.38214-0.18737c-0.0898-0.03806-0.18448-0.07026-0.26745-0.09856
	c-0.15569-0.05368-0.30308-0.10345-0.43388-0.18152c-0.245-0.14639-0.36067-0.42452-0.48317-0.71827
	c-0.02245-0.05465-0.0449-0.10833-0.06882-0.16103c-0.60567-1.38188-1.29041-4.00316-1.62814-6.23408
	c-0.22255-1.47264-0.35823-2.77352-0.48903-4.03146l-0.0122-0.11467c-0.05954-0.56602-0.11616-1.10033-0.18009-1.65074
	c-0.06833-0.58554-0.13958-1.19109-0.03953-1.77712c0.01952-0.1132,0.05027-0.22495,0.07614-0.31278
	c0.01025,0.00537,0.02147,0.01171,0.03563,0.01415c0.06052,0.01269,0.12201-0.00146,0.16252-0.01025l0.96683-0.22104
	c0.03953-0.00976,0.14398-0.03416,0.17814-0.13321c0.02392-0.06539,0.0039-0.12394-0.00732-0.15614l-0.3431-0.98957
	c-0.00098-0.00439-0.00244-0.00878-0.00439-0.01318c0-0.00097-0.00049-0.00146-0.00049-0.00244
	c0.29137-0.25032,0.60616-0.43672,0.93511-0.55431l0.04051-0.01415c0.13958-0.0488,0.31382-0.10881,0.42656-0.25081
	c0.15325-0.19176,0.14056-0.49283-0.02879-0.68606c-0.15276-0.17469-0.41338-0.24739-0.65106-0.18103
	c-0.06442,0.01805-0.12494,0.0444-0.18107,0.07905l-0.11567-1.52241c0.11128-0.02489,0.23866-0.06002,0.35335-0.12931
	C9.1019,16.7428,9.21367,16.56909,9.2166,16.3944c0.00342-0.17664-0.10103-0.3523-0.27282-0.45916
	c-0.15325-0.09466-0.32992-0.1215-0.46707-0.13467c-0.39337-0.03318-0.79553,0.01708-1.16254,0.15322l-0.05417,0.02001
	c-0.28112,0.10198-0.75111,0.27277-0.63789,0.60994c0.05759,0.17371,0.27477,0.27374,0.66375,0.30595
	c-0.02007,0.02153-0.02684,0.05929-0.04277,0.08515c-0.00634,0.01061-0.01184,0.02354-0.01769,0.03525
	c-0.02196,0.04263-0.05173,0.07484-0.06546,0.13041c-0.04441,0.17762-0.01903,0.39866,0.07614,0.65727
	c0.0737,0.20055,0.21181,0.39182,0.41094,0.56846c-0.03221,0.00049-0.0693,0.0083-0.10493,0.03513
	c-0.05661,0.04294-0.07711,0.11174-0.06149,0.20348c0.00439,0.0244,0.00976,0.07222,0.01659,0.13663
	c-0.29771-0.3401-0.96488-0.81049-1.54615-0.81049c-0.57981,0-1.15229,0.39817-1.49393,1.03934
	c-0.32553,0.60994-0.3514,1.12229-0.09566,1.89033c0.06198,0.18396,0.10884,0.37816,0.14007,0.57676c-0.00293,0-0.00586,0-0.00878,0
	c-0.04344,0-0.08297,0.02245-0.10493,0.06148l-2.92148,5.34015l-0.0039,0.00683c-0.20157,0.36889-0.41045,0.75145-0.50221,1.18084
	c-0.10737,0.49576-0.02294,0.97103,0.23134,1.30186c0.31382,0.4089,0.88386,0.53967,1.29724,0.29863
	c0.16935-0.09759,0.56565-0.32498,1.05907-1.06373c0.51099-0.76706,0.76136-1.78786,0.99904-3.18535
	c0.01025-0.0566-0.02196-0.11174-0.07565-0.13223c-0.05564-0.02001-0.1142,0.00195-0.14349,0.05075
	c-0.28258,0.47283-0.45975,0.88173-0.61592,1.24282l0.01367,0.00586l-0.01659,0.00097
	c-0.1225,0.28204-0.22792,0.52699-0.36311,0.75828c-0.41728,0.70948-1.00588,1.25306-1.17816,1.1828
	c-0.04197-0.01757-0.06686-0.04392-0.0815-0.08881c-0.05125-0.15907,0.05954-0.46746,0.18936-0.6763
	c0.18302-0.29375,0.37726-0.58847,0.56468-0.87441l0.0083-0.01269c0.48561-0.73876,0.98733-1.50289,1.36069-2.32899
	c0.10981-0.243,0.20449-0.486,0.28258-0.72266c0.10005,2.01817,0.20645,4.10368,0.50757,6.15796
	c0.48708,3.32881,1.40218,6.06427,2.72041,8.12928c-0.08541,0.20299-0.18497,0.40012-0.29527,0.58554
	c-0.13812,0.23324-0.29625,0.45477-0.44998,0.67045c-0.27965,0.39329-0.55004,0.80512-0.79065,1.17109
	c-0.4412,0.67044-0.89753,1.36333-1.42121,1.99182l-1.16205,1.39359c-0.55931,0.6724-0.9805,1.43555-1.38802,2.17334
	L2.16228,46.1463c-0.08248,0.15029-0.16643,0.30156-0.25281,0.45282l-0.04588,0.03416
	c-0.02245,0.01659-0.04441,0.03318-0.06638,0.05075l-0.82579,0.61775c-0.21377,0.16005-0.43534,0.32693-0.61787,0.53772
	c-0.14788,0.17176-0.32895,0.44599-0.3514,0.7817c-0.02196,0.32693,0.12494,0.63922,0.37482,0.79536
	c0.26989,0.17176,0.59152,0.14248,0.92681,0.09369l1.26796-0.18347c0.05515-0.00781,0.09663-0.05172,0.102-0.10833
	c0.00439-0.05563-0.02977-0.1054-0.08297-0.12296c-0.3758-0.11906-0.69548-0.42257-0.83457-0.79146
	c-0.13958-0.36889-0.09956-0.80805,0.10347-1.14669c0.07516-0.12394,0.15374-0.25862,0.23378-0.39915
	c0.13275-0.10149,0.28698-0.22446,0.42217-0.36499c0.20889-0.21568,0.37726-0.47234,0.51831-0.69582
	c0.21767-0.34352,0.429-0.70363,0.62812-1.07057c0.94877-0.02342,1.93659-0.00293,2.80874,0.01561l0.01123,0.00098
	c1.79847,0.03709,3.65796,0.0771,5.46082-0.2147c0.68523-0.11028,1.46123-0.29179,2.02347-0.79536
	c0.55345-0.49479,0.85507-1.40628,0.40313-2.07477c-0.21084-0.31034-0.57444-0.54358-1.07957-0.69094
	c-0.69157-0.20006-1.40657-0.20396-2.01224-0.18347c-0.06101-0.44501-0.08736-0.89588-0.0776-1.34187
	c0.00049-0.04001-0.01903-0.07807-0.05271-0.10149c-0.03221-0.02147-0.0776-0.02635-0.11274-0.01073
	c-0.1064,0.04587-0.26111,0.06636-0.36897-0.00976c-0.0449-0.03318-0.07662-0.09271-0.08102-0.15126
	c-0.00195-0.02537,0-0.07222,0.03319-0.10442c0.06735-0.06343,0.19668-0.04977,0.3963,0.04099
	c0.03758,0.01562,0.08053,0.01269,0.11518-0.00878c0.03416-0.02245,0.05466-0.06148,0.05369-0.10247
	c-0.00342-0.1376-0.02343-0.27423-0.06003-0.40695c0.10688,0.01464,0.23036,0.0283,0.35628,0.03318
	c0.02782,0.00098,0.05613,0.00195,0.08395,0.00195c0.28502,0,0.56858-0.04489,0.80089-0.081
	c0.3348-0.05172,0.68181-0.1054,1.0171-0.21568c0.46121-0.15419,0.91168-0.42061,1.33824-0.79341
	c0.22109-0.19323,0.40216-0.42354,0.57834-0.648c0.21767-0.27618,0.42265-0.53675,0.69059-0.72607
	c0.22694-0.16005,0.52026-0.22543,0.80334-0.27228c0.3431-0.05563,0.69401-0.09174,1.04346-0.1054l1.05322,0.01464
	c3.61891,0.15224,6.46475,0.24788,9.33694,0.24788c0.24842,0.00098,0.49342-0.00195,0.73989-0.0039l0.22743-0.00293
	c0.45584-0.00586,0.90095-0.01171,1.3397-0.00098c1.18499,0.02928,2.37243,0.17469,3.52081,0.31522l0.0244,0.00293
	c1.41535,0.17274,2.87853,0.35426,4.33683,0.31327c0.02245,0,0.04783-0.00098,0.07418-0.00098
	c0.07028-0.00098,0.15715,0.00195,0.23329,0.00195c0.29576,0,0.48512-0.01464,0.57395-0.10638
	c0.03514-0.03611,0.05271-0.08295,0.05173-0.13272c-0.01269-0.3035-0.91364-0.47234-1.16742-0.49283
	c-1.88486-0.15224-3.79656-0.23129-5.67849-0.23714c-0.03465-0.00781-0.06979,0-0.09859,0.00586
	c-0.00488,0-0.00976,0.00098-0.01415,0.00195l-0.00488,0.00195c-0.00586-0.00098-0.01171-0.00098-0.01757-0.00098
	c-4.03034-0.03806-8.78251-0.0849-13.47172-0.14931l-0.33529-0.01464c-0.24695-0.01073-0.49293-0.01073-0.72671-0.00097
	c-0.11616-0.00195-0.23231-0.00391-0.34847-0.00488c-0.11616-0.00195-0.2328-0.0039-0.34847-0.00488
	c-0.35091-0.00586-0.68376-0.02732-0.90143-0.22153c-0.04539-0.04099-0.05661-0.06734-0.05808-0.08198
	c-0.00439-0.04391,0.05954-0.10247,0.10786-0.14248c0.92388-0.77389,1.73552-1.30381,2.553-1.66684
	c1.00148-0.44501,2.02005-0.62751,2.94833-0.52406c2.17916,0.23714,4.41981,0.19128,6.58676,0.14053
	c2.41488-0.05368,4.91323-0.10833,7.32372,0.23519c0.7311,0.1054,1.5032,0.2352,2.20112,0.55529
	c0.75453,0.34742,1.30896,0.88222,1.56177,1.50582c0.36995,0.91247,0.1962,1.89716,0.01171,2.94137
	c-0.12982,0.73193-0.26453,1.48923-0.19327,2.22604c0.13763,1.45019,0.82676,2.85257,1.89072,3.84701
	c1.06298,0.99542,2.50664,1.59072,3.96299,1.63366c1.00246,0.03025,2.02249,0.05172,3.01226,0.07124
	c2.8922,0.05953,5.88396,0.12101,8.81033,0.41573c0.08297,0.00879,0.14446,0.01757,0.18546,0.0488
	c0.03807,0.02635,0.06735,0.08002,0.09273,0.13174l0.01074,0.01952c0,0.00098,0,0.00195,0.00098,0.00195l-0.02148-0.00391
	c-0.07028-0.01171-0.13861-0.02439-0.20596-0.03513c-0.00684-0.00097-0.01269-0.00195-0.01952-0.00195
	c-0.04002,0-0.07614,0.01952-0.09956,0.05367c-0.02538,0.03904-0.02636,0.09076-0.00098,0.1298
	c0.23915,0.37768,0.46267,0.81293,0.30552,1.17596c-0.05369,0.12199-0.14056,0.22055-0.26648,0.30351
	c-0.10639,0.01268-0.29966,0.05172-0.43241,0.17371c-0.13958,0.03513-0.29674,0.05953-0.49294,0.07905
	c-0.54662,0.05367-1.11862,0.10247-1.69745,0.14443c-3.66332,0.05368-10.98606,0.14931-19.47135,0.25862
	c-1.56323,0.02049-3.13428,0.04001-4.67847,0.0605l-3.03227,0.03904c-1.13338-0.01067-2.28043-0.02885-3.42723-0.0477
	c-0.64338-0.01049-1.28767-0.02233-1.93306-0.03538c-1.14973-0.02324-2.30068-0.04709-3.44907-0.07795
	c-2.49883,0.25861-5.08063,0.20787-7.57653,0.15614l-0.04051-0.00098c-2.24455-0.04489-4.56427-0.09369-6.81907,0.0849
	c-0.4451,0.03416-0.71939,0.22055-0.73354,0.49771c-0.00098,0.03416,0.01123,0.06636,0.03416,0.08978
	c0.02196,0.02245,0.05222,0.03513,0.08883,0.03513l9.91918-0.26642c0.82774-0.02147,5.25926-0.08393,13.94708-0.19713
	c6.8874,0.06734,13.68012-0.01952,20.17805-0.24983c2.31825,0.09271,4.67262,0.0566,7.00356-0.1093
	c1.01612-0.01464,1.7648-0.02732,2.11034-0.03513c0.30259,0.42354,0.9517,0.43525,1.42707,0.26447
	c0.56712-0.19909,0.93901-0.58066,0.9966-1.01787c0.06345-0.48014-0.26843-0.9154-0.62471-1.134
	c-0.18936-0.11613-0.40899-0.20299-0.69206-0.2713c-0.03026-0.06539-0.06149-0.12882-0.09468-0.19225
	c-0.03807-0.07417-0.08492-0.15907-0.16594-0.21665c-0.09663-0.07027-0.21279-0.08295-0.29966-0.09174
	c-2.90782-0.29277-5.87518-0.3562-8.74786-0.41573c0.06479-0.00665,0.12244-0.04081,0.1846-0.06106
	c0.02855-0.00933,0.05698-0.01592,0.0845-0.02794c0.06857-0.02976,0.12744-0.06441,0.18674-0.10954
	c0.02544-0.0194,0.04575-0.04319,0.06894-0.06527c0.04765-0.0452,0.10609-0.07911,0.1419-0.13437
	c0.15032-0.23422,0.17863-0.52016,0.20108-0.75438l0.10152-1.0491l0.00098-0.00586c0.01464-0.15614,0.03318-0.35133-0.0449-0.52894
	c-0.08492-0.19518-0.27331-0.34059-0.52514-0.41086c0.85116,0.08881,1.72966,0.09954,2.50859,0.1093l6.24805,0.08393
	c-0.10054,0.33181-0.0615,0.67728-0.02343,1.01591c0.03709,0.32888,0.07321,0.64019-0.01757,0.93199
	c-0.02147,0.07124-0.05173,0.14541-0.08102,0.21665l0.01318,0.00567c0,0.00006-0.00006,0.00006-0.00006,0.00012l-0.01507-0.00189
	c-0.08492,0.20494-0.17277,0.41573-0.12104,0.648c0.07614,0.33571,0.42265,0.52699,0.72525,0.5426
	c0.01855,0.00098,0.03807,0.00195,0.05661,0.00195c0.28795,0,0.55443-0.11418,0.78284-0.22153
	c0.27331-0.12882,0.54369-0.28691,0.6657-0.56602c0.10347-0.2391,0.06638-0.48795,0.02929-0.73095
	c-0.0205-0.1337-0.04295-0.27228-0.03514-0.40402c0.01269-0.23812,0.12689-0.48014,0.23719-0.71436l0.0039-0.00781
	c0.14154-0.30058,0.28795-0.60994,0.245-0.93784c0.04118-0.00354,0.07266-0.02952,0.11207-0.03873
	c0.05637-0.01305,0.10938-0.03153,0.16087-0.05563c0.07217-0.03361,0.1311-0.07179,0.18814-0.12351
	c0.04356-0.03904,0.08041-0.08241,0.11231-0.13047c0.01976-0.02989,0.05533-0.04831,0.06985-0.08106
	c0.07223-0.15907,0.06833-0.3562-0.00879-0.52504c-0.07125-0.15614-0.19327-0.2674-0.34164-0.31229
	c-0.1308-0.03806-0.26257-0.0283-0.38263-0.01659c-3.96104,0.36987-7.86741,0.29863-12.19937,0.17957
	c-0.04392-0.00195-0.08687-0.00195-0.1308-0.00195c-0.16222,0-0.31345,0.02775-0.45596,0.07978
	c-0.01617,0.00586-0.03136,0.01427-0.0471,0.02122c-0.05106,0.02257-0.1064,0.03324-0.15288,0.0688
	c-0.14349,0.1093-0.22646,0.30936-0.20596,0.49576c0.00683,0.0605,0.02343,0.11516,0.04978,0.16298
	c-0.03611-0.00098-0.06442-0.00976-0.0898-0.01854c-0.11616-0.04001-0.20889-0.1337-0.23622-0.24007
	c-0.06247-0.23519,0.09663-0.47722,0.27136-0.60213c0.21572-0.15419,0.49781-0.2108,0.74574-0.25276
	c1.42804-0.24202,2.90392-0.19518,4.33488-0.15029h0.00684c1.07859,0.03318,2.20795,0.05855,3.30119,0.08197
	c1.09324,0.0244,2.22357,0.0488,3.29729,0.08198c0.0039,0.00098,0.00781,0.00098,0.01171,0.00098
	c0.04783,0,0.09078-0.03221,0.10737-0.081c0.01659-0.05075-0.00098-0.10442-0.04392-0.13467
	c-0.09175-0.06636-0.17472-0.14834-0.24598-0.24202l0.44315-0.00293c0.07321,0,0.18351,0,0.27819-0.06441
	c0.06735-0.04586,0.1103-0.1132,0.11713-0.18444c0.00488-0.03708,0.00098-0.11028-0.06833-0.1825
	c-0.09566-0.09856-0.45877-0.14639-0.74086-0.09369c0.01757-0.08978,0.04197-0.20006,0.07516-0.32693
	c0.00293,0.0039,0.00586,0.0078,0.00976,0.01171c0.16984,0.17371,0.35628,0.23031,0.5554,0.29082
	c0.16008,0.04782,0.32699,0.09857,0.49879,0.22153c0.15911,0.1132,0.31528,0.28301,0.44022,0.41964l0.00488,0.00586
	c0.23329,0.25276,0.41777,0.45087,0.60714,0.35425c0.14349-0.07515,0.20205-0.43428,0.41582-2.5637l0.00195-0.01464
	c0.09078-0.91247,0.18546-1.85519,0.29088-2.54223c0.09566-0.61775,0.21474-1.20329,0.61495-1.57804
	c0.33285-0.31034,0.80919-0.42354,1.26894-0.53187c0.07711-0.01757,0.15325-0.03611,0.22841-0.05465
	c0.86385-0.2147,1.79506-0.61385,2.55642-1.09399c0.87167-0.54943,1.57543-1.45995,1.9815-2.56467
	c0.33968-0.92028,0.48708-1.9723,0.45193-3.21463C68.08113,25.87189,67.99133,24.98772,67.82929,24.2153z M1.8592,28.4717
	c0.03514,0.11028,0.1103,0.19128,0.2167,0.23519c0.04002,0.01659,0.0815,0.0244,0.12445,0.0244
	c0.55736,0,1.34263-1.2921,1.35093-1.30576c0.14154-0.24105,0.25379-0.50064,0.37238-0.77584l0.01367-0.03123
	c0.07321-0.16883,0.14837-0.34157,0.23719-0.52797c-0.22158,1.10375-0.47048,1.80835-0.8253,2.34022
	c-0.45975,0.69094-0.82237,0.89978-0.97952,0.99054c-0.0039,0.00195-0.01074,0.00488-0.02294,0.01269
	c-0.32114,0.1864-0.75795,0.02245-0.96634-0.24983c-0.21133-0.27618-0.27965-0.6802-0.18741-1.10765
	c0.08541-0.39719,0.28746-0.76608,0.48317-1.12327l2.72138-4.97516c0.01952,0.34205,0.03758,0.68362,0.05564,1.02226
	c-0.09224,0.46111-0.24744,0.93443-0.46121,1.40725c-0.36311,0.80512-0.85946,1.56096-1.33922,2.29191l-0.0288,0.04391
	c-0.18302,0.27813-0.3719,0.56602-0.55052,0.85294C1.95193,27.79052,1.77038,28.19454,1.8592,28.4717z M1.87464,29.5014
	c-0.0313-0.00695-0.06088-0.0125-0.09139-0.02299C1.81345,29.48871,1.84371,29.49451,1.87464,29.5014z M1.57699,29.38124
	c-0.01702-0.0111-0.02959-0.02513-0.04569-0.03727C1.54727,29.35605,1.56009,29.37008,1.57699,29.38124z M57.99796,42.53155
	c0.1103-0.02635,0.245-0.0527,0.36799-0.06831l0.07906-0.00879c0.46072-0.05758,0.66375-0.0566,0.75063-0.04391
	c-0.15422,0.06148-0.5271,0.12589-0.84921,0.12589c-0.01073,0-0.0205,0-0.03123,0L57.99796,42.53155z M59.71883,42.30221
	c-0.041-0.00683-0.07809,0.00683-0.1064,0.04197c-0.02538,0.03123-0.03319,0.07319-0.02148,0.1132
	c0.09566,0.29375-0.04685,0.59628-0.19815,0.91735l-0.00391,0.0078c-0.12006,0.25569-0.24403,0.51918-0.25964,0.80512
	c-0.00879,0.15712,0.01562,0.31326,0.03709,0.45184c0.03319,0.21762,0.0654,0.42354-0.01171,0.60116
	c-0.09078,0.20689-0.31821,0.33669-0.54955,0.44501c-0.20498,0.09661-0.44217,0.19909-0.68132,0.19909
	c-0.01366,0-0.02831-0.00098-0.04295-0.00098c-0.20791-0.01171-0.45584-0.14053-0.50465-0.35718
	c-0.03611-0.15907,0.03319-0.32693,0.10737-0.50454c0.03319-0.07905,0.06638-0.16102,0.09273-0.243
	c0.10444-0.34059,0.06345-0.68996,0.0244-1.02958c-0.03904-0.34449-0.07516-0.66947,0.03319-0.96907l0.00488-0.01464
	l0.67351,0.00879c0.00976,0,0.95463-0.01366,1.13912-0.25959c0.03807-0.04782,0.04978-0.10833,0.03319-0.16395
	c-0.06345-0.21568-0.42656-0.21372-1.06981-0.13272l-0.07614,0.00879c-0.20108,0.02342-0.63447,0.11223-0.74672,0.19811
	c-0.03612,0.02635-0.06735,0.05953-0.09566,0.10052l-6.35445-0.0849l-0.01171-0.00098
	c-0.85604-0.01073-1.74235-0.02342-2.60425-0.12199c-0.22938-0.0283-0.65692-0.0771-0.87556,0.21958
	c-0.02636,0.03416-0.03123,0.07807-0.01464,0.11711c0.01562,0.03806,0.05173,0.06538,0.09273,0.07124
	c0.12494,0.01952,0.25086,0.02245,0.37482,0.02538c0.12299,0.00195,0.23427,0.00488,0.34457,0.02147
	c0.24012,0.03611,0.42363,0.14931,0.49001,0.30253c0.05368,0.12199,0.03904,0.27911,0.02538,0.41769l-0.10152,1.0491
	c-0.0205,0.21568-0.04392,0.46063-0.16399,0.64703c-0.14349,0.22055-0.43436,0.33864-0.69108,0.27911
	c-0.12982-0.03025-0.23329-0.10052-0.28307-0.19128c-0.03904-0.07124-0.04978-0.162-0.05564-0.24983
	c-0.01562-0.24397,0.0039-0.50259,0.02147-0.73095c0.01855-0.2352,0.04002-0.50259,0.02147-0.76609
	c-0.03318-0.50064-0.26159-1.10863-0.79845-1.31064c-0.00683-0.00488-0.01464-0.00878-0.0205-0.01171
	c-0.06052-0.0283-0.07809-0.08783-0.08297-0.1337c-0.01074-0.10345,0.03709-0.22153,0.1142-0.28106
	c0.15715-0.12003,0.39044-0.12394,0.63544-0.11808c4.33196,0.12101,8.24419,0.19128,12.2267-0.18054
	c0.09859-0.00976,0.20401-0.01854,0.29185,0.00781c0.08199,0.0244,0.15129,0.08978,0.19327,0.1825
	c0.04978,0.10735,0.05271,0.23031,0.00879,0.32985c-0.07711,0.17274-0.28405,0.29082-0.49781,0.29082
	C59.75983,42.30514,59.73933,42.30416,59.71883,42.30221z M56.1785,37.65886c0.40801-0.4782,0.55638-1.15547,0.39044-1.78395
	c0.28698,0.15224,0.54662,0.37377,0.75258,0.64117c0.33285,0.43623,0.49879,0.9515,0.46951,1.4541
	C57.27271,37.7828,56.73,37.67838,56.1785,37.65886z M55.67776,37.83941c0.03221,0.0566,0.04002,0.1132,0.02245,0.17371
	c-0.02733,0.09759-0.12006,0.19616-0.24696,0.26252c-0.21962,0.11515-0.49195,0.09759-0.73306,0.08685
	c-0.10151-0.00586-0.21669-0.01269-0.29673-0.06148c-0.08492-0.0527-0.14251-0.16005-0.15422-0.28789
	c-0.03514-0.37767,0.32211-0.69387,0.66375-0.74169c0.04197-0.00586,0.08492-0.00878,0.1269-0.00878
	c0.30064,0,0.6208,0.14346,0.8824,0.39329c-0.05564,0-0.11127,0.00195-0.16594,0.0039c-0.00098,0-0.00098,0-0.00098,0
	c-0.041,0.00195-0.07907,0.02538-0.09859,0.06149C55.6553,37.75743,55.65628,37.8033,55.67776,37.83941z M49.62785,37.92723
	c-0.04197,0.14248-0.10444,0.3562-0.07223,0.56017l-2.55544-0.00781c0.10347-0.20201,0.14446-0.4294,0.18546-0.64995
	l0.01171-0.06441c0.11518-0.60896,0.30943-1.09399,0.57981-1.44239c-0.00195,0.00878-0.00293,0.01659-0.0039,0.0244
	l-0.10054,0.72607c-0.02733,0.19616-0.10835,0.79439,0.30064,1.01689c0.2001,0.11126,0.43046,0.07515,0.64716,0.01757
	c0.00195,0,0.0039,0,0.00683-0.00098c0.00879-0.00195,0.01855-0.00488,0.02733-0.0078
	c0.00683-0.00098,0.01366-0.00293,0.0205-0.00488c0.15911-0.04392,0.35823-0.09759,0.49781-0.24886
	c0.1552-0.16688,0.20498-0.43135,0.1308-0.69094c-0.0654-0.22543-0.20498-0.41671-0.31723-0.56993
	c-0.0898-0.12492-0.245-0.26545-0.40704-0.28106c-0.00879-0.00097-0.01757-0.00195-0.02733-0.00195
	c-0.07418,0-0.14251,0.02732-0.19717,0.07905c-0.19131,0.17859-0.041,0.45965,0.02245,0.57969
	c0.12787,0.24202,0.19522,0.51332,0.19424,0.78658c0,0.03318-0.02831,0.09564-0.05271,0.14151
	c-0.14544,0.03611-0.30747,0.0605-0.43242-0.00586c-0.17765-0.09759-0.23622-0.35133-0.17765-0.77682l0.09566-0.69289
	c0.01074-0.07515,0.02148-0.15224,0.05271-0.21275c0.04685-0.09076,0.14251-0.15517,0.26355-0.23032
	c0.16398-0.10247,0.35042-0.2186,0.54955-0.24397c0.0244-0.00293,0.04978-0.00391,0.07418-0.00391
	c0.40216,0,0.75746,0.39231,0.84726,0.78853C49.89433,36.95816,49.77329,37.43636,49.62785,37.92723z M48.5883,36.84886
	c-0.0859-0.16005-0.10933-0.25861-0.07125-0.29472c0.01073-0.00976,0.01952-0.01366,0.03318-0.01366h0.00684
	c0.0654,0.00683,0.16398,0.08393,0.23719,0.18347c0.10639,0.14736,0.22743,0.31424,0.28014,0.49576
	c0.04002,0.14151,0.041,0.33767-0.07614,0.46453c-0.0449,0.04782-0.10542,0.08588-0.19424,0.12004
	c0.00391-0.01854,0.00586-0.03709,0.00586-0.0566C48.81085,37.43538,48.73472,37.12504,48.5883,36.84886z M47.24219,37.50174
	c0.02562-0.10637,0.05741-0.21275,0.09255-0.32144C47.30106,37.28289,47.26977,37.38933,47.24219,37.50174z M47.52075,36.7201
	c0.04459-0.0899,0.09572-0.17408,0.15014-0.25758C47.61775,36.5431,47.56717,36.62782,47.52075,36.7201z M52.11595,36.95328
	c0.08395,0.68411,0.35628,1.34675,0.776,1.8874c-0.31919-0.24398-0.56321-0.57676-0.69011-0.94663
	C52.09935,37.59738,52.07007,37.27436,52.11595,36.95328z M57.75424,39.30979c-0.13165-0.15541-0.25458-0.30967-0.36689-0.46069
	C57.50491,39.00646,57.62698,39.15998,57.75424,39.30979z M11.66223,29.92287c0.04685-0.23324,0.05222-0.47331,0.01659-0.71436
	l1.53395-0.04782c0.19473-0.00683,0.46804,0.00293,0.55687,0.16981c0.07126,0.13272-0.01562,0.31034-0.13665,0.40012
	c-0.14739,0.10735-0.34749,0.1376-0.53979,0.15907C12.61491,29.94044,12.13418,29.95215,11.66223,29.92287z M12.162,22.48953
	c0.07681,0.00274,0.16374,0.02281,0.23573,0.01598l0.08834-0.01025c0.1347-0.01708,0.26208-0.0322,0.34701,0.02732
	c0.06052,0.04197,0.0737,0.10881,0.07418,0.15761c0.00195,0.11808-0.06345,0.25032-0.15862,0.32107
	c-0.13275,0.09905-0.30259,0.14004-0.48708,0.18493c-0.00732,0.00146-0.01464,0.00342-0.02196,0.00537h-0.00098
	c-0.04832-0.28984-0.20693-0.55529-0.43046-0.72607c0.0704,0.01458,0.12586,0.00518,0.19162,0.01299
	C12.05371,22.4852,12.10758,22.48715,12.162,22.48953z M12.00484,23.51167c-0.00732,0.04733-0.01855,0.09369-0.03368,0.13858
	c-0.02587,0.07563-0.05076,0.08978-0.05661,0.09222c-0.00244,0.00049-0.00879,0.00098-0.02099-0.01122
	c-0.02489-0.02586-0.03709-0.06978-0.02684-0.09613C11.88527,23.58779,11.93212,23.54583,12.00484,23.51167z M11.65344,23.52777
	c-0.05173-0.21372-0.16935-0.40744-0.33529-0.5509c-0.20547-0.1781-0.47536-0.27618-0.76039-0.27618c-0.00244,0-0.00488,0-0.00732,0
	c0.28453-0.24837,0.74477-0.28545,1.06298-0.08051c0.20889,0.13516,0.35481,0.37182,0.39191,0.63482
	C11.82475,23.316,11.70908,23.40529,11.65344,23.52777z M14.63301,18.45697c0.20059,0.11564,0.26989,0.38695,0.29283,0.59384
	l0.00586,0.05904c-0.90827-0.05319-1.81653-0.10637-2.72577-0.16054h-0.00634c-0.01025,0-0.02001,0.00146-0.02977,0.0039
	c0.06052-0.11564,0.15325-0.21909,0.25916-0.28789c0.29332-0.18981,0.67644-0.21275,1.01857-0.23324l0.66912-0.03904
	C14.27966,18.38378,14.48464,18.37207,14.63301,18.45697z M11.2098,20.38585c-0.01269-0.01317-0.01659-0.0244-0.01415-0.04294
	c0.00683-0.06636,0.09517-0.17469,0.20157-0.24739c0.17277-0.11711,0.36848-0.24983,0.57737-0.2796
	c0.02294-0.00342,0.04636-0.00488,0.0693-0.00488c0.14642,0,0.32895,0.06734,0.38361,0.21616
	c0.02587,0.07026-0.00049,0.16493-0.06491,0.22934v0.00049c-0.01122,0.01171-0.04002,0.03806-0.0776,0.04831
	c-0.00049-0.00098-0.00098-0.00244-0.00146-0.00342c-0.02538-0.05416-0.0898-0.08637-0.14983-0.08051
	c-0.05027,0.00537-0.10981,0.05611-0.12201,0.10491c-0.00537,0.02391-0.00537,0.04733-0.00049,0.07027l-0.62276,0.02
	C11.35378,20.41805,11.24494,20.42391,11.2098,20.38585z M13.96681,19.69198c-0.36458-0.00293-0.7926-0.00683-1.20012-0.01318
	c-0.05466,0.0039-0.09419,0.03074-0.11176,0.07563c-0.01806,0.04684-0.00586,0.09857,0.03075,0.13223
	c0.04637,0.04148,0.0532,0.09954,0.05076,0.14102c-0.00391,0.07026-0.03563,0.14395-0.08346,0.19811
	c0.00933-0.02885-0.00397-0.05599-0.00043-0.08515c0.00366-0.02745,0.00122-0.05313-0.00043-0.08027
	c-0.0025-0.03879,0.01245-0.08014-0.00061-0.11564c-0.08199-0.22299-0.30113-0.33181-0.48903-0.36206
	c0.09175-0.10832,0.14739-0.24446,0.15911-0.38792l0.8702,0.05172c0.58615,0.03465,1.1723,0.06929,1.75748,0.10345
	c0.01074,0.13126,0.02343,0.243,0.05125,0.35377C14.66327,19.69881,14.31528,19.6954,13.96681,19.69198z M54.25752,19.50119
	c-7.58629,0.17225-15.26727,0.21568-22.82916,0.12687c-0.3758-0.0039-0.72378-0.1581-0.73891-0.22153
	c0.04539-0.07368,0.48512-0.18689,0.94341-0.18689l21.52166,0.26008c0.29381,0.00146,0.66082,0.00927,0.98001-0.13175
	c0.02636,0.05465,0.05954,0.09954,0.09761,0.13321C54.23995,19.4885,54.24874,19.49485,54.25752,19.50119z M54.27705,18.22373
	c0.06637,0.04636,0.11518,0.10393,0.14642,0.17127c0.09175,0.19469-0.00586,0.40988-0.12592,0.54797L54.27705,18.22373z
	 M54.43225,19.31675c-0.00195,0-0.00488,0-0.00684,0c-0.01269,0-0.0244-0.00488-0.03611-0.01464
	c-0.01659-0.01464-0.03221-0.03952-0.04685-0.07466c0.14642-0.11369,0.26843-0.27862,0.32407-0.46063
	c-0.0205,0.13712-0.05466,0.27032-0.10835,0.39915C54.5201,19.25624,54.47324,19.31284,54.43225,19.31675z M51.51394,13.32713
	c0.17442,0.0064,0.34883,0.00872,0.52295,0.02635c0.1103,0.01073,0.23817,0.02537,0.3553,0.05953
	c0.15325,0.15614,0.24403,0.36548,0.24891,0.5753c0.00684,0.30009-0.16398,0.60262-0.42363,0.75242
	c-0.04685,0.02733-0.0693,0.08344-0.05466,0.13711c0.00195,0.00634,0.00488,0.0122,0.00781,0.01805
	c-0.01269-0.00439-0.0244-0.00683-0.03416-0.0083c-0.00586-0.00049-0.01171-0.00098-0.01757-0.00098
	c-0.05173,0-0.09956,0.02781-0.13079,0.07563c-0.00195,0.00195-0.00293,0.0039-0.00391,0.00586
	c-0.04393-0.00146-0.09078-0.0039-0.13568-0.00634l-0.04393-0.00244c-0.19424-0.00976-0.37775-0.01903-0.5066-0.00537
	c-0.47927,0.05319-1.02491,0.081-1.36069-0.22641c-0.16789-0.15517-0.24988-0.40354-0.21865-0.66508
	s0.16887-0.48356,0.36995-0.59433c0.1962-0.10784,0.43827-0.1298,0.65009-0.14199c0.09987-0.00592,0.20083-0.00677,0.30156-0.00897
	C51.19816,13.3139,51.35556,13.3214,51.51394,13.32713z M40.34723,16.00886c-0.01879,0-0.03727,0.00421-0.05606,0.005
	c-0.05814,0.00244-0.11652-0.01019-0.1735-0.00055c-0.0039-0.02586-0.01757-0.04928-0.04002-0.06734
	c0.00586-0.02293,0.04978-0.08881,0.1269-0.11613c0.12982-0.04538,0.50465-0.06636,0.64325,0.10149
	c0.08394,0.10101,0.12787,0.25227,0.11323,0.38548c-0.00976,0.08588-0.04295,0.15468-0.09371,0.1942
	c-0.10347,0.07856-0.3309,0.13663-0.5066,0.09905c-0.08785-0.01903-0.14837-0.05807-0.1796-0.11711
	c-0.01171-0.02196-0.01367-0.03416-0.01367-0.03611c0.01171-0.02781,0.13861-0.07124,0.1962-0.09125
	c0.11127-0.03757,0.22646-0.07661,0.29185-0.15907c0.02636-0.03221,0.03319-0.07661,0.01855-0.11613
	c-0.01366-0.03952-0.04881-0.06831-0.0898-0.07563c-0.05777-0.01049-0.11695,0.00207-0.17594-0.00055
	C40.38779,16.01331,40.36773,16.00886,40.34723,16.00886z M39.60032,16.00404c-0.23915,0.00683-0.4861,0.00244-0.73013-0.01561
	c0.01562-0.02586,0.03416-0.0488,0.05466-0.06978c0.07711-0.08051,0.17863-0.12638,0.27721-0.12638
	C39.34263,15.79227,39.47636,15.864,39.60032,16.00404z M39.58665,16.24314c-0.01171,0.06392-0.04197,0.12687-0.08687,0.18298
	c-0.07028,0.08637-0.16691,0.14102-0.26452,0.14931c-0.00976,0.00098-0.01855,0.00146-0.02831,0.00146
	c-0.08883,0-0.18448-0.03806-0.25964-0.10491c-0.07711-0.06831-0.12592-0.1581-0.13568-0.24886
	C39.06347,16.24216,39.32506,16.24753,39.58665,16.24314z M38.22694,15.3331c-0.00098,0-0.00098,0-0.00098,0
	c-1.16254,0.07514-2.35046,0.08978-3.34023,0.04148c-0.27965-0.01318-0.54662-0.03757-0.7433-0.18005
	c-0.0815-0.05904-0.15422-0.14004-0.23085-0.22592l-0.00732-0.00781c-0.06833-0.0771-0.13812-0.15566-0.2167-0.22104
	c0.0981,0.0322,0.19864,0.06246,0.29918,0.09027c0.05076,0.01025,0.10347-0.00634,0.13177-0.05026
	c0.12104-0.18884,0.06881-0.41232,0.02245-0.60994c-0.04832-0.20592-0.07174-0.3362,0.01269-0.41183
	c0.05906-0.05319,0.1635-0.06002,0.27429-0.06295l13.68402-0.34498c0.3104,0.2025,0.45877,0.62946,0.33676,0.97493
	c-0.1347,0.39085-0.53979,0.61238-0.87264,0.68899c-0.4002,0.09271-1.348,0.1659-2.85999,0.27765
	C43.5516,15.378,42.187,15.35457,41.37293,15.3414l-0.07711-0.00146c-0.20401-0.00342-0.36409-0.00634-0.4822-0.00634
	l-2.58082-0.00098C38.22987,15.33213,38.22694,15.3331,38.22694,15.3331z M38.40654,16.18263
	c-0.00195,0.01562-0.0039,0.03221-0.00683,0.04977l-0.00488,0.0322c-0.00293,0.02342-0.00586,0.04636-0.00683,0.06783
	c-0.00684,0.03074-0.07224,0.29424-0.38068,0.29424c-0.00781,0-0.01464,0-0.02147-0.00049
	c-0.3348-0.01415-0.36799-0.37377-0.37092-0.4455c-0.00293-0.11516,0.06247-0.2552,0.1796-0.28984
	c0.01464-0.0039,0.02831-0.00586,0.04197-0.00586c0.04197,0,0.08492,0.01513,0.11909,0.04148
	c0.01366,0.01025,0.05856,0.04782,0.05759,0.10149c-0.00293,0.06197,0.0449,0.11564,0.10737,0.12199c0.00293,0,0.00488,0,0.00781,0
	c0.02636,0,0.05369-0.00878,0.07516-0.02391c0.01757,0.02049,0.04295,0.03416,0.07125,0.03806
	C38.3187,16.17043,38.36262,16.17677,38.40654,16.18263z M32.89594,14.29669c-0.02001,0.05758,0.00586,0.12101,0.061,0.14736
	c0.10444,0.05026,0.20986,0.09759,0.31382,0.14053c-0.02197,0.00683-0.04246,0.02196-0.05906,0.0444
	c-0.02391,0.03221-0.02977,0.07368-0.01611,0.11028c0.03514,0.10003-0.04051,0.22202-0.13422,0.28204
	c-0.11762,0.07514-0.27721,0.09515-0.41777,0.11272l-0.00684,0.00049c-0.1757,0.02147-0.37629,0.04636-0.54515-0.00976
	c-0.27575-0.09076-0.46609-0.42305-0.4246-0.74071c0.03953-0.30058,0.25867-0.58457,0.57248-0.74169
	c0.0981-0.04928,0.18595-0.0771,0.26892-0.08393c0.01318-0.00146,0.02587-0.00146,0.03904-0.00146c0.00049,0,0.00098,0,0.00146,0
	c0.19083,0,0.38849,0.10491,0.54223,0.28838c0.11615,0.13858,0.19669,0.30302,0.26013,0.4494l-0.3148-0.07417
	C32.97549,14.20691,32.91595,14.23863,32.89594,14.29669z M40.12449,15.60538c-0.14446,0.05123-0.2655,0.18493-0.28405,0.31473
	c-0.14056-0.18542-0.30943-0.30497-0.48903-0.3484l0.91461,0.00049C40.21039,15.5805,40.16256,15.59221,40.12449,15.60538z
	 M38.98629,15.61569c-0.02849,0.01165-0.05246,0.03099-0.07937,0.04697c-0.05192,0.03062-0.11036,0.04587-0.15386,0.09106
	c-0.06052,0.06197-0.10737,0.1337-0.13861,0.21275c-0.00391-0.00049-0.00781-0.00098-0.01269-0.00146
	c-0.06149-0.09905-0.18741-0.12931-0.27916-0.10589c-0.01464,0.00342-0.02929,0.0083-0.04197,0.01415l0.05271-0.30155h0.7272
	C39.0332,15.57867,39.01271,15.60489,38.98629,15.61569z M53.05886,17.09315c-0.00683,0.03952-0.11908,0.05758-0.23817,0.04001
	l-0.29185-0.04489c0.00391-0.00488,0.00781-0.00976,0.01269-0.01464c0.09273-0.09613,0.25769-0.13126,0.40508-0.081
	C53.01006,17.0141,53.06472,17.06289,53.05886,17.09315z M51.13203,16.0787c-0.02245-0.00537-0.04588,0-0.0654,0.00927
	c-0.03319-0.06734-0.04783-0.14687-0.05564-0.21275l0.26355,0.00098c0.00391,0.00488,0.00879,0.01025,0.01269,0.01561
	c0.05661,0.06734,0.08883,0.162,0.08004,0.23568c-0.00488,0.0366-0.01855,0.06197-0.04295,0.08002
	c-0.02147,0.01562-0.04685,0.02049-0.08199,0.01659l-0.00879-0.04977C51.22379,16.12359,51.18279,16.08504,51.13203,16.0787z
	 M51.7626,17.20928c-0.04197,0.09076-0.11518,0.13614-0.21767,0.17859c-0.10933,0.04391-0.39727,0.00342-0.46853-0.06636
	c-0.07125-0.07026-0.08785-0.18152-0.04197-0.27032c0.01757-0.03269,0.05173-0.0688,0.09858-0.10247l0.00684,0.03952
	c0.00976,0.05758,0.02733,0.15322,0.09468,0.22446c0.07028,0.07466,0.1796,0.10003,0.28893,0.06343
	c0.07028-0.02342,0.12982-0.06831,0.16887-0.12589C51.70696,17.17756,51.73234,17.19903,51.7626,17.20928z M51.44634,17.05021
	c-0.00879,0.00439-0.03026,0.00732-0.03807-0.00097c-0.0205-0.02147-0.02929-0.08051-0.03319-0.10345l-0.01757-0.09076
	c0.00098,0,0.00195,0,0.00293,0.00049c0.04392,0.00439,0.08883,0.02928,0.11615,0.06392
	c0.01171,0.01366,0.03026,0.04148,0.02733,0.07514C51.501,17.01605,51.4766,17.04045,51.44634,17.05021z M51.91096,15.86497
	c0.00488-0.00244,0.00976-0.00537,0.01366-0.00878c0.01074-0.00732,0.01855-0.01659,0.02636-0.02684
	c0.00293,0.01122,0.00683,0.02196,0.01171,0.03269c0.03514,0.08051,0.1103,0.12784,0.19912,0.12784
	c0.00879,0,0.01757-0.00049,0.02636-0.00146c0.03123-0.00342,0.07321-0.02879,0.0937-0.0566
	c0.02343-0.03172,0.03416-0.07319,0.03514-0.1337c0.12397,0.01415,0.25769,0.05367,0.28405,0.10442
	c0.03514,0.0649,0.03905,0.162,0.01074,0.24739c-0.02147,0.06783-0.06149,0.11906-0.11225,0.14346
	c-0.17082,0.08344-0.39142,0.09564-0.47146,0.02537c-0.07516-0.06734-0.09761-0.27472-0.1142-0.42745L51.91096,15.86497z
	 M50.91729,16.29388c-0.05661,0.07319-0.10933,0.10588-0.15813,0.09173c-0.06052-0.01659-0.09566-0.11564-0.09859-0.20006
	c-0.00195-0.10588,0.03905-0.22104,0.1103-0.30839c0.01464,0.12784,0.04197,0.26935,0.12494,0.38792
	C50.90265,16.27485,50.91046,16.28461,50.91729,16.29388z M52.79184,14.41856c0.01366-0.03306,0.01043-0.06972,0.0208-0.10375
	c0.01519-0.04928,0.02227-0.09954,0.03014-0.15072c0.00957-0.06154,0.03801-0.11967,0.03648-0.18213
	c-0.00098-0.04587-0.00488-0.09125-0.01269-0.13565c0.0449,0.12394,0.05271,0.25715,0.02245,0.37865
	c-0.01305,0.05111-0.04197,0.0968-0.06772,0.14358C52.81179,14.38562,52.80282,14.40234,52.79184,14.41856z M53.12426,17.41129
	c-0.20205,0.08393-0.47146,0.15614-0.60226,0.01561c-0.02538-0.02781-0.04393-0.06441-0.05173-0.10637l0.31528,0.04831
	c0.0449,0.00732,0.08785,0.01073,0.12787,0.01073c0.13568,0,0.22841-0.04989,0.29552-0.11967
	c0.0144-0.01464,0.02398-0.03208,0.03423-0.04959c0.01531-0.02592,0.0449-0.04209,0.05094-0.07374
	c0.03319-0.18006-0.11811-0.31766-0.27135-0.36987c-0.23232-0.07759-0.49586-0.02098-0.65302,0.14248
	c-0.03807,0.03855-0.07028,0.08539-0.09468,0.13955l-0.45877-0.07026c-0.0244-0.00439-0.05173,0.00097-0.07321,0.0122
	c0-0.07905-0.02831-0.15712-0.08102-0.22202c-0.06833-0.08393-0.17179-0.14004-0.27721-0.15078
	c-0.02148-0.00097-0.04393-0.00097-0.06931,0.00098l-0.02928-0.15566c0.0654-0.0039,0.12689-0.02537,0.17863-0.06295
	c0.07906-0.05709,0.12689-0.14151,0.13861-0.24349c0.01171-0.08978-0.00488-0.18835-0.04686-0.28008l0.11616,0.00049
	l0.00488,0.04196c0.02147,0.20006,0.04881,0.4494,0.19229,0.57773c0.17375,0.15371,0.50953,0.11857,0.73501,0.01073
	c0.10835-0.05319,0.19131-0.15419,0.23426-0.28448c0.04685-0.14639,0.03709-0.31229-0.02636-0.43184
	c-0.07028-0.13321-0.24403-0.19128-0.37873-0.21714c-0.04783-0.0083-0.09468-0.01415-0.13958-0.01659
	c-0.01171-0.07368-0.02733-0.16298-0.04685-0.26496l-0.00488-0.02879c-0.00586-0.0244-0.00976-0.05075-0.01464-0.07661
	l-0.00195-0.00878c0.01562-0.00976,0.02733-0.02147,0.03709-0.03513c0.0244-0.03269,0.03221-0.08344,0.01757-0.12101
	c-0.00879-0.02489-0.01952-0.04538-0.03124-0.06197c0.01171,0.00342,0.02245,0.00342,0.03319,0.00342
	c0.38947-0.0161,0.74184-0.30204,0.8375-0.68069c0.09273-0.37231-0.0859-0.80024-0.41582-0.99493
	c-0.05466-0.03318-0.11713-0.06148-0.18449-0.08442c-0.0205-0.01854-0.04295-0.03318-0.0654-0.04733
	c0.6579,0.01854,1.16449,0.20104,1.39486,0.50454c0.06931,0.42354,0.08199,0.85489,0.09371,1.23549l0.05466,1.94059
	C53.74507,17.0385,53.39074,17.30053,53.12426,17.41129z M51.95294,12.93433c-0.25379-0.04977-0.50855-0.03806-0.7477-0.02196
	l-3.06205,0.19811l-13.7216,0.34596c-0.1186,0.00293-0.29771,0.00781-0.42753,0.12394
	c-0.19571,0.17469-0.13714,0.42354-0.08541,0.6441l0.00146,0.00683c0.02929,0.12589,0.0571,0.24495,0.03807,0.33961
	c-0.09273-0.02733-0.18692-0.05758-0.28063-0.09027c0.00293-0.02049,0.00049-0.04196-0.00732-0.06197
	c-0.10054-0.25032-0.20449-0.50893-0.38654-0.72656c-0.03813-0.04538-0.08797-0.06783-0.13068-0.10564
	c-0.03166-0.02818-0.06326-0.05465-0.09694-0.07832c-0.08407-0.05898-0.16783-0.09979-0.2594-0.12876
	c-0.04417-0.01427-0.08785-0.02696-0.13226-0.03349c-0.03672-0.00531-0.07229-0.02757-0.10889-0.02757
	c-0.01952,0-0.03856,0.00049-0.05759,0.00195c-0.11226,0.00976-0.2289,0.04489-0.35579,0.10881
	c-0.38263,0.19225-0.65155,0.54602-0.70133,0.92369c-0.05661,0.4333,0.20108,0.87197,0.58615,0.99835
	c0.22011,0.0727,0.44706,0.0444,0.65155,0.02001c0.1591-0.01952,0.35677-0.04392,0.52172-0.14882
	c0.13275-0.0849,0.22646-0.22348,0.24842-0.36596c0.10005,0.05221,0.18741,0.15029,0.28746,0.26252l0.00439,0.00488
	c0.08297,0.09271,0.16887,0.18835,0.27136,0.26349c0.24988,0.18152,0.55492,0.20982,0.87215,0.22543
	c0.38361,0.01854,0.79748,0.02781,1.23185,0.02781c0.62568,0,1.29236-0.02098,1.98442-0.06197l-0.02343,0.13516
	c-0.10347-0.0649-0.22939-0.08588-0.33968-0.05124c-0.21084,0.06197-0.35823,0.2835-0.35042,0.5265
	c0.00781,0.24202,0.14251,0.65678,0.59835,0.67581c0.01171,0.00049,0.02343,0.00049,0.03416,0.00049
	c0.38654,0,0.56517-0.27862,0.60714-0.45575c0.03709,0.09076,0.09663,0.17322,0.17374,0.24154
	c0.13177,0.11662,0.29966,0.17615,0.46463,0.162c0.16301-0.01366,0.31919-0.10003,0.43046-0.23763
	c0.06442-0.07807,0.10933-0.17078,0.13177-0.26789c0.03026,0.01805,0.07028,0.01952,0.10444,0.00683
	c0.02538-0.01074,0.05173-0.02001,0.07907-0.02879c-0.0244,0.02489-0.04197,0.0527-0.05466,0.08393
	c-0.02831,0.07222-0.0205,0.15175,0.0244,0.23617c0.06638,0.1215,0.18449,0.20396,0.34164,0.23763
	c0.22548,0.04831,0.531-0.01269,0.69987-0.14346c0.10347-0.07954,0.16984-0.2064,0.18644-0.35669
	c0.02245-0.19713-0.04197-0.41329-0.16692-0.56456c-0.10054-0.12052-0.25476-0.18201-0.41289-0.2064h0.19522
	c0.10054,0,0.23622,0.00195,0.39923,0.00439l0.13665,0.00244c0.82188,0.01318,2.20014,0.03708,3.38416-0.04928
	c1.56958-0.11662,2.47736-0.18689,2.8961-0.28301c0.50367-0.11613,0.90387-0.43964,1.04541-0.84318
	c0.12299-0.35377,0.03319-0.78121-0.22353-1.07349l1.58617-0.10296c-0.02147,0.01025-0.04295,0.02098-0.06345,0.03221
	c-0.26843,0.14736-0.45292,0.43672-0.49294,0.77438c-0.041,0.33815,0.06931,0.66313,0.29576,0.87002
	c0.40899,0.37426,1.0132,0.34449,1.54615,0.28789c0.11518-0.01415,0.31138-0.00244,0.46951,0.00634
	c0.07809,0.0039,0.14251,0.00732,0.19619,0.00878c0.00391,0.02391,0.00879,0.05026,0.01464,0.08002l0.01171,0.05807
	c0.01269,0.06831,0.02929,0.15761,0.04295,0.24105c-0.01659,0.00781-0.02928,0.01561-0.03904,0.0244
	c-0.02148,0.01805-0.03807,0.03904-0.05076,0.06295c-0.00195-0.0039-0.00293-0.0083-0.00488-0.0122
	c-0.03222-0.06295-0.09664-0.08978-0.16399-0.07563c-0.03319,0.00878-0.06247,0.02684-0.08492,0.05319l-0.34652-0.00098
	c-0.08492-0.0688-0.18058-0.11272-0.27624-0.12736c-0.0244-0.0039-0.04881-0.00586-0.07418-0.00586
	c-0.12494,0-0.24793,0.0488-0.35238,0.14053c-0.15422,0.13565-0.24696,0.34498-0.24207,0.54699
	c0.0039,0.162,0.07711,0.36987,0.27233,0.42354c0.12201,0.03513,0.24598-0.00342,0.3553-0.11223l0.03514,0.19225
	c-0.11908,0.0649-0.21669,0.15663-0.26355,0.24642c-0.09371,0.18103-0.05857,0.40646,0.0859,0.54894
	c0.14642,0.14492,0.54369,0.19079,0.7272,0.11711c0.14251-0.05855,0.29771-0.14785,0.36702-0.36011l0.2245,0.03465
	c0.00293,0.11808,0.04588,0.2269,0.12104,0.30741c0.17863,0.1903,0.46951,0.20592,0.86776,0.04148
	c0.19912-0.08295,0.45779-0.2469,0.79162-0.50113l0.0205,0.73973c-0.13177-0.0283-0.28405-0.04391-0.4656-0.04684
	c-1.05614-0.01854-2.21381,0.11467-3.23091,0.23129c-0.6003,0.06929-1.28163,0.14785-1.91707,0.18981
	c-5.63311,0.37328-10.13588,0.34157-12.27843,0.20006c-0.4412-0.02879-0.90583-0.04245-1.46123-0.04245
	c-0.31577,0-0.60958,0.0039-0.93364,0.00878c-1.2011,0.01757-2.15085,0.03221-2.66038-0.25959
	c-0.44169-0.33961-0.4656-1.01787-0.49293-1.80396l-0.00976-0.2469c-0.09127-2.23043,0.10884-2.96675,0.29234-3.19169
	c0.38361-0.46795,0.858-0.68313,2.65647-0.71778c0.75258-0.01464,1.53151-0.06099,2.28409-0.10589l0.03611-0.00244
	c1.11569-0.06539,2.27042-0.13468,3.36073-0.09954c1.63205,0.04977,3.28069-0.01805,4.87174-0.08295
	c1.77066-0.0727,3.6643-0.11516,5.33539-0.15224c0.82383-0.01854,1.75699-0.03952,2.65208-0.06392h0.03514
	c0.69206,0,1.25624,0.56798,1.50808,1.13156c0.06247,0.14004,0.11616,0.29228,0.15911,0.4538
	C53.27849,12.93531,52.51225,12.87529,51.95294,12.93433z M52.87524,17.69687c0.04942-0.00732,0.10304-0.02172,0.15746-0.03733
	C52.97785,17.67576,52.92502,17.68894,52.87524,17.69687z M62.63055,33.30438l0.0244-0.02732
	c1.04932-0.13272,1.92878-0.6685,2.35339-1.43556c0.46463-0.83635,0.64521-1.80542,0.79065-2.72765
	c0.28014-1.76443,0.5144-3.79919-0.27136-5.6051c-0.34749-0.79683-1.03271-1.62732-1.78725-2.16797
	c-0.33578-0.24056-0.86678-0.47966-1.33629-0.69094l-0.01073-0.00488c-0.29674-0.13321-0.69596-0.31229-0.85019-0.42159
	c0.29771-0.03904,1.19768,0.0771,1.74625,0.14736l0.02343,0.00293c0.31235,0.04001,0.60811,0.07758,0.84921,0.10101
	c0.33286,0.03172,0.63155,0.06587,0.92047,0.15273c0.67546,0.20445,1.29041,0.71485,1.72966,1.43751
	c0.43827,0.72168,0.64911,1.55413,0.78381,2.19871c0.1591,0.76218,0.24792,1.63269,0.27916,2.73936
	c0.03514,1.2111-0.10835,2.23384-0.43729,3.1268c-0.38849,1.05495-1.0581,1.92351-1.88583,2.44562
	c-0.73696,0.4655-1.64376,0.85294-2.48712,1.06374c-0.07321,0.01854-0.14837,0.03611-0.22353,0.05367l-0.00488,0.00098
	c-0.49001,0.11613-0.9966,0.23617-1.3724,0.58945c-0.45682,0.42647-0.58664,1.05495-0.68816,1.71661
	c-0.10444,0.67533-0.19717,1.59463-0.28698,2.48465l-0.00781,0.08295c-0.09566,0.94858-0.21279,2.12357-0.30162,2.36657
	c-0.0693-0.03513-0.21279-0.1903-0.30943-0.2957l-0.00488-0.00391c-0.13275-0.14541-0.29966-0.32693-0.47634-0.45379
	c-0.20401-0.14444-0.39727-0.20299-0.57102-0.25569c-0.17472-0.05368-0.32504-0.09857-0.45096-0.22836
	c-0.0205-0.02049-0.04002-0.04391-0.05857-0.06636c-0.01659-0.01854-0.03221-0.03806-0.04881-0.05563
	c0.14739-0.52406,0.36897-1.20036,0.5476-1.74492l0.01366-0.04294c0.28405-0.86953,0.57883-1.76931,0.69889-2.34607
	c0.12104-0.57774,0.28795-1.60341,0.49684-3.05067c0.04978,0.23421,0.15422,0.43428,0.31138,0.68703
	c0.18058,0.28984,0.66278,0.77779,1.19085,0.85392c0.04588,0.00683,0.0898,0.00976,0.13177,0.00976
	C62.08296,33.94067,62.36115,33.61764,62.63055,33.30438z M61.64957,33.91042c-0.00397,0-0.0083-0.00079-0.01226-0.00085
	c0.00805,0.00006,0.01556-0.0011,0.02349-0.00128C61.65677,33.90834,61.65366,33.91042,61.64957,33.91042z M15.19671,19.53834
	c0.0039,0.02348,0.00927,0.04739,0.01421,0.06984C15.20598,19.58512,15.20049,19.56194,15.19671,19.53834z M16.37145,35.54359
	c0.04069,0.01628,0.06729,0.04672,0.11225,0.05904c-0.26355,0.05953-0.46609,0.14346-0.63349,0.26057
	c-0.29722,0.2108-0.5227,0.49771-0.74038,0.77487c-0.16887,0.2147-0.3431,0.43623-0.54662,0.61385
	c-0.40411,0.35328-0.82725,0.60408-1.25771,0.74657c-0.31235,0.10442-0.64765,0.15614-0.9722,0.20689l-0.01513,0.00195
	c-0.24354,0.03806-0.49489,0.0771-0.7355,0.0771c-0.03172,0-0.06345-0.00098-0.09468-0.00195
	c-0.13665-0.00488-0.27819-0.02342-0.41533-0.04196l-0.00927-0.00098c-0.01074-0.00195-0.02001-0.0039-0.03124-0.0039
	l-0.01171-0.02635c-0.02001-0.04196-0.06198-0.06636-0.10835-0.06636c-0.00781,0-0.01611,0-0.02391,0.00195
	c-0.28405,0.05953-0.58371,0.02439-0.84482-0.09564c-0.03709-0.01659-0.08004-0.01464-0.11372,0.0078
	c-0.03416,0.0205-0.05515,0.05758-0.05564,0.09954c-0.00098,0.16492,0.00586,0.33473,0.02099,0.50649
	c-0.27233-0.29082-0.61153-0.51332-0.9844-0.64312c-0.05289-0.01842-0.12842-0.02458-0.19498-0.03843
	c-0.00287-0.00055-0.00543-0.0011-0.00836-0.00165c-0.05442-0.01086-0.09828-0.03117-0.15831-0.03117
	c-0.02294,0-0.04636,0.00098-0.06979,0.00391c-0.29381,0.02927-0.49879,0.22934-0.65448,0.46453
	c0.05076-0.10345,0.09761-0.20885,0.14105-0.3162c0.03904-0.10247-0.01513-0.16102-0.03221-0.17566
	c-0.00976-0.00976-0.02245-0.01659-0.03856-0.02342c-1.28602-2.03183-2.18111-4.72142-2.66038-7.99363
	c-0.30162-2.06501-0.40752-4.1876-0.5105-6.24091l-0.00049-0.0161c-0.01025-0.21177-0.02099-0.42305-0.03221-0.62995
	c0.15715-0.80659,0.12201-1.55901-0.10347-2.23677c-0.23573-0.70558-0.21474-1.15059,0.07955-1.70246
	c0.30015-0.56261,0.79162-0.91247,1.28358-0.91247c0.53295,0,1.24209,0.50503,1.45977,0.84611
	c0.20303,0.31814,0.34115,0.68752,0.45389,1.01006c-0.32211,0.30155-0.5881,0.67533-0.7721,1.08277l-0.327-0.81537
	c-0.0815-0.20201-0.22109-0.47185-0.49586-0.48112c-0.00146,0-0.00293,0-0.00439,0c-0.18497,0-0.35189,0.12492-0.42558,0.31961
	c-0.06149,0.16005-0.05222,0.33083-0.0449,0.46941c0.02587,0.46844,0.34701,3.7016,0.34993,3.73283
	c0.00146,0.01952,0.16496,2.12747,0.47878,4.30862c0.46267,3.22536,1.13814,6.59711,2.93076,9.40381
	c0.0327,0.05075,0.09859,0.06831,0.15227,0.04294c0.05466-0.02538,0.08102-0.08979,0.06052-0.14639
	c-0.07174-0.20396-0.20889-0.69484,0.06003-0.85489c0.08687-0.05172,0.20791-0.06149,0.3636-0.02635
	c0.07174,0.01561,0.13714,0.03709,0.19571,0.06441c-0.1674,0.03513-0.29576,0.12492-0.37287,0.26154
	c-0.11128,0.19811-0.07077,0.46453,0.09419,0.6197c0.16399,0.15517,0.43144,0.18054,0.62227,0.0605
	c0.22597-0.14248,0.27575-0.42257,0.22743-0.63434c0.02831,0.01171,0.05076,0.02147,0.07077,0.03123l0.05369,0.02537
	c0.3187,0.15517,0.71695,0.3484,1.06493,0.15224c0.0122-0.00683,0.02294-0.01562,0.03319-0.0244
	c0.00586-0.00586,0.01171-0.01073,0.01757-0.01464c0.09078-0.01561,0.15959-0.0322,0.22304-0.0527
	c0.56321-0.18542,0.94389-0.68509,1.25039-1.08618l-0.00976-0.01171l-0.00018-0.00006l0.00006-0.00006l0.00012,0.00012
	l0.01171,0.00878c1.0581-1.38969,2.01761-2.63591,3.04545-3.82554c1.13911-1.31649,2.51445-2.37828,3.58524-3.15607
	c3.34951-2.4339,7.82641-3.83823,13.68646-4.293c0.67693-0.05221,1.48417-0.08198,2.46808-0.09125
	c1.37534-0.01415,2.83071,0.00488,4.20799,0.35181c0.67253,0.17078,1.44366,0.43037,2.05861,1.06276
	c0.53783,0.55334,0.7028,1.06471,0.84921,1.51851c0.02929,0.09173,0.05369,0.1659,0.07809,0.23422
	c0.40411,1.16035,0.41387,2.44464,0.42265,3.68892c0.00098,0.1903,0.00195,0.37865,0.00488,0.567l0.06833,4.73704
	c0.00683,0.5465,0.01562,1.16523-0.00195,1.75663c-0.01562,0.48698-0.04881,0.98371-0.08102,1.46483l-0.00098,0.01464
	c-0.09663,1.44727-0.1962,2.94333,0.18253,4.36814c0.05759,0.2147,0.19229,0.5182,0.4002,0.74364
	c-1.2416-0.14639-2.41781-0.68899-3.3168-1.53022c-1.02101-0.95639-1.68281-2.30313-1.81654-3.69477
	c-0.06637-0.70168,0.06443-1.44141,0.19034-2.15675l0.00293-0.01561c0.18155-1.02763,0.36897-2.08941-0.02733-3.06336
	c-0.27721-0.68118-0.87459-1.26087-1.68378-1.63269c-0.73208-0.33571-1.52077-0.46746-2.26652-0.57383
	c-1.53395-0.21958-3.09914-0.27813-4.65505-0.27813c-0.90827,0-1.8136,0.01952-2.70772,0.04001h-0.00683
	c-2.16012,0.04684-4.39199,0.09564-6.5482-0.13858c-0.96781-0.10637-2.03274,0.081-3.07034,0.54163
	c-0.83945,0.3728-1.66865,0.91442-2.60962,1.70198c-0.06247,0.0527-0.20986,0.17469-0.19327,0.34742
	c0.0083,0.08588,0.0532,0.16298,0.13763,0.23714c0.03502,0.0316,0.0895,0.04233,0.12946,0.06813
	C16.25847,35.48985,16.31307,35.52084,16.37145,35.54359z M10.56484,38.73846c-0.03776,0.01677-0.08059,0.02439-0.11152,0.05343
	c-0.07711,0.07417-0.11469,0.17859-0.10688,0.29375c0.00976,0.1298,0.07906,0.25569,0.18107,0.32888
	c0.11811,0.08295,0.27087,0.11125,0.43193,0.0849c-0.00049,0.39817,0.02587,0.80024,0.07858,1.19451
	c-0.15862,0.0078-0.31723,0.01757-0.47488,0.02732l-0.08687,0.00488c-0.00439,0-0.00879,0.00098-0.01318,0.00098l-0.01513-0.76218
	c-0.00244-0.1298-0.00586-0.30643-0.1142-0.44306c-0.02245-0.02928-0.05661-0.04587-0.09273-0.04587
	c-0.00293,0-0.00537-0.00098-0.00732-0.00098c-0.00244,0-0.00439,0.00098-0.00634,0.00098
	c0.0122-0.03806,0.01952-0.07612,0.02245-0.11613c0.00927-0.11808-0.02489-0.24105-0.10396-0.37377
	c0.00976-0.01561,0.01611-0.03318,0.01806-0.05172l0.04344-0.44111c0.00098-0.00976,0.00146-0.01659,0.00195-0.02245
	c0.00683-0.00293,0.01562-0.00488,0.02245-0.00683c0.20693-0.05075,0.42509-0.03416,0.63105-0.00976
	c0.03026,0.08588,0.05222,0.17371,0.06589,0.26349c-0.13641-0.03745-0.24561-0.02513-0.342,0.01031
	C10.57918,38.73077,10.57222,38.73516,10.56484,38.73846z M11.99703,36.20769c0.01806,0,0.03612,0.00195,0.05369,0.00586
	c0.08736,0.01757,0.15715,0.07027,0.20791,0.15517c0.09517,0.16005,0.11469,0.41964,0.04832,0.64507
	c-0.01269,0.04099-0.02538,0.07807-0.03904,0.11223c-0.00927,0-0.01855,0-0.02782,0c-0.10786,0-0.19961-0.01952-0.28014-0.0605
	c-0.20547-0.10247-0.3392-0.32108-0.31772-0.51918c0.01074-0.10344,0.07174-0.20494,0.16301-0.2713
	C11.86477,36.23111,11.93115,36.20769,11.99703,36.20769z M10.60316,37.86575c-0.10151,0.06343-0.24695,0.04977-0.33188-0.0322
	c-0.0859-0.081-0.10786-0.22543-0.04978-0.32888c0.05857-0.10442,0.17082-0.1581,0.33383-0.1581
	c0.03856,0,0.07711,0.00293,0.1142,0.00878c0.00683,0.01073,0.01318,0.02147,0.01903,0.03221
	C10.77056,37.53687,10.75543,37.76914,10.60316,37.86575z M9.70465,36.88302c-0.16545,0.09856-0.25964,0.26935-0.27477,0.49771
	c-1.53493-2.67203-2.14304-5.79394-2.57106-8.77143c-0.31723-2.20945-0.47488-4.27836-0.47585-4.29642
	c-0.00342-0.02879-0.32504-3.27123-0.34945-3.72503c-0.00781-0.14639-0.01074-0.2674,0.0288-0.37133
	c0.01513-0.04001,0.07321-0.16688,0.18497-0.16688c0.00488,0,0.00976,0.00049,0.01513,0.00098
	c0.10152,0.00293,0.19376,0.11125,0.28112,0.33083l0.39435,0.98273c0.00683,0.01659,0.01611,0.03904,0.02782,0.06343
	c-0.05466,0.1659-0.09322,0.31717-0.11811,0.46355c-0.1064,0.62165-0.03319,1.24428,0.03758,1.84641
	c0.06052,0.5182,0.11372,1.02275,0.16984,1.55657l0.02147,0.20494l0.00098,0.00488c0.13177,1.2638,0.26843,2.57151,0.49049,4.03732
	c0.34066,2.25141,1.03272,4.89904,1.64571,6.2936c0.01464,0.03318,0.0288,0.06734,0.04295,0.10149l0.02391,0.05563
	c0.13129,0.3162,0.26696,0.6441,0.58029,0.8305c0,0,0.00049,0,0.00049,0.00097C9.80177,36.83617,9.75004,36.85569,9.70465,36.88302z
	 M11.07461,41.62786c0.06198-0.07515,0.16545-0.11418,0.26257-0.10735c0.00488,0.00097,0.00976,0.00097,0.01464,0.00097
	c0.03221,0,0.06247-0.01268,0.08443-0.03611c0.02587-0.02635,0.03807-0.06343,0.03221-0.09954l-0.05613-0.39817
	c-0.00342-0.02635-0.01611-0.05075-0.03465-0.06831c0.56126-0.01561,1.21525-0.0039,1.84533,0.17859
	c0.45096,0.13077,0.77015,0.33083,0.94926,0.5953c0.37385,0.55139,0.10151,1.3448-0.36506,1.76346
	c-0.51782,0.46258-1.25234,0.63239-1.90243,0.73779c-1.78139,0.28691-3.62965,0.2469-5.41787,0.20982H6.47618
	c-0.89802-0.01854-1.91414-0.04197-2.88976-0.01366c-0.03996,0.00092-0.07363,0.02458-0.09499,0.05813
	c0.09901-0.13675,0.18473-0.2824,0.29314-0.41238l1.16205-1.39457c0.42656-0.51235,0.80626-1.06471,1.12203-1.53802
	c0.01562,0.00879,0.03124,0.01171,0.06198,0.01562c1.35581-0.01562,2.73456-0.06343,4.09915-0.14053l0.01123,0.58652
	c0,0.00683,0.00098,0.01464,0.00195,0.02147c-0.00976,0.0039-0.02587,0.01073-0.03172,0.01366
	c-0.29234,0.11809-0.51392,0.38256-0.57883,0.69094c-0.01025,0.04684,0.00879,0.09467,0.04832,0.12199
	c0.04051,0.02635,0.09224,0.03025,0.13177,0.00293c0.19425-0.12296,0.42851-0.20006,0.66131-0.2186l0.02343,0.58847
	c0.00293,0.06343,0.05564,0.1132,0.11957,0.1132c0.06442,0,0.11664-0.04977,0.11909-0.1132
	c0.00732-0.20689,0.00439-0.41866-0.00976-0.62848c0.08395-0.03318,0.1635-0.07027,0.23671-0.11125
	c0.05027-0.02733,0.0737-0.0849,0.05661-0.13956C10.99018,41.81329,11.01165,41.70398,11.07461,41.62786z M7.79588,38.96755
	c0.16155-0.33181,0.36262-0.74364,0.70816-0.77877c0.01513-0.00098,0.03026-0.00195,0.04539-0.00195
	c0.09956,0,0.19913,0.03025,0.28307,0.05953c0.41192,0.14248,0.78284,0.41476,1.04346,0.76511
	c0.10103,0.13565,0.143,0.23812,0.13617,0.33083c-0.00537,0.07319-0.04441,0.15224-0.11567,0.23617
	c-0.23915,0.28106-0.63789,0.40988-0.95805,0.51332c-0.03612,0.01269-0.06491,0.04197-0.07662,0.07905
	c-0.01123,0.03709-0.0039,0.07808,0.02001,0.10735c0.12055,0.15517,0.21914,0.32693,0.29332,0.5104
	c0.00049,0.00195,0.00146,0.00293,0.00195,0.00488c-0.89802,0.04099-1.82141,0.06929-2.74579,0.08393
	C6.98376,40.32601,7.45473,39.66727,7.79588,38.96755z M9.79445,39.98054l-0.47683,0.54456
	c-0.04295-0.08686-0.09371-0.17371-0.14983-0.25764C9.38009,40.19621,9.59972,40.11033,9.79445,39.98054z M10.20588,39.87319
	c0.00195,0.02928,0.00293,0.0605,0.00342,0.09564l0.01562,0.77194c-0.24647,0.01366-0.50709,0.02732-0.81554,0.04196
	L10.20588,39.87319z M10.55539,41.14455c-0.01043,0.01683-0.01629,0.03556-0.02349,0.05423
	c-0.01269,0.03233-0.03953,0.05684-0.041,0.09436c-0.00244,0.05172,0.03026,0.10052,0.08004,0.11906
	c0.10298,0.03513,0.21133,0.05563,0.32163,0.0605l-0.00244,0.00293c-0.09127,0.11223-0.1347,0.25764-0.11909,0.40207
	c-0.06247,0.03025-0.12445,0.0566-0.18204,0.07808c-0.06253,0.00031-0.12037,0.02574-0.18247,0.03257
	c-0.08022,0.00884-0.15819,0.02245-0.23744,0.04245c-0.05771,0.01464-0.12043,0.01092-0.17552,0.03135
	c0.08053-0.10735,0.19083-0.19323,0.31723-0.24495c0.03904-0.01659,0.09712-0.04099,0.13421-0.09954
	c0.03563-0.05465,0.03514-0.11516,0.03465-0.15517l-0.0122-0.59725l0.1103-0.00683c0.0693-0.0039,0.13958-0.00781,0.20986-0.01171
	C10.68905,40.98145,10.61041,41.05501,10.55539,41.14455z M10.77788,41.21994c0.03416-0.0283,0.08297-0.05075,0.13373-0.06051
	c0.05808-0.01171,0.11811-0.01366,0.17619-0.01561c0.00732,0,0.01464,0,0.02245,0c0.00439,0.0244,0.00927,0.04977,0.01464,0.07515
	C11.01117,41.24238,10.89306,41.24238,10.77788,41.21994z M6.48008,40.48117c0.21328-0.324,0.44852-0.67728,0.68913-1.01591
	l0.01855-0.02635c0.13763-0.19323,0.27917-0.39329,0.40801-0.60506c-0.00537,0.01073-0.01025,0.02147-0.01562,0.03123
	C7.29855,39.44379,6.91982,39.99908,6.48008,40.48117z M3.46624,44.48427c-0.1951,0.36169-0.40704,0.72668-0.63337,1.08624
	c-0.10444,0.16493-0.22499,0.35035-0.36702,0.52016C2.76735,45.54539,3.09629,45.00083,3.46624,44.48427z M12.50363,33.81575
	c-0.01171,0.01269-0.02489,0.02342-0.04051,0.03416c0.02928-0.04001,0.0532-0.08295,0.07077-0.12687
	c0.05173-0.13467,0.04783-0.27325,0.03953-0.40305c-0.01464-0.23422-0.04344-0.46843-0.08492-0.6968
	c0.05076,0.05465,0.09615,0.1132,0.13568,0.17469c0.07126,0.1132,0.11176,0.21568,0.12397,0.31229
	C12.78036,33.36976,12.64663,33.66839,12.50363,33.81575z M12.49832,32.35574c0.07827,0.06581,0.14812,0.13748,0.21047,0.21573
	C12.6459,32.49249,12.57586,32.42088,12.49832,32.35574z M8.26148,21.17096l-0.95707,0.21909l-0.00732,0.00146
	c-0.01659,0.00341-0.03612,0.00781-0.04978,0.00781c-0.00488,0.00049-0.00537,0.00195-0.0122-0.00342
	c0.15618-0.41037,0.4046-0.79439,0.71988-1.11204L8.26148,21.17096z M7.39762,16.17775
	c0.33676-0.12492,0.70524-0.1742,1.05663-0.13907c0.11128,0.00976,0.25281,0.03025,0.3636,0.09905
	c0.09908,0.06197,0.16203,0.16054,0.16008,0.2513c-0.00195,0.11223-0.09224,0.20494-0.1757,0.25471
	c-0.11079,0.06587-0.24842,0.09466-0.38117,0.12199c-0.05857,0.01171-0.09956,0.06587-0.09517,0.1254l0.14202,1.86788
	c0.00342,0.04928,0.03807,0.09173,0.08541,0.10588c0.05027,0.01318,0.09859-0.0039,0.12933-0.04343
	c0.06149-0.08295,0.15032-0.14395,0.24988-0.17127c0.14642-0.04294,0.31528,0.00342,0.4085,0.10833
	c0.09371,0.10735,0.10298,0.27765,0.02099,0.3806c-0.06882,0.08637-0.18936,0.12882-0.31919,0.1742l-0.041,0.01464
	c-0.327,0.11613-0.64325,0.29667-0.94145,0.53626c-0.07467-0.21031-0.16691-0.4538-0.28502-0.68752L7.7744,19.16353
	c-0.0083-0.09857-0.03221-0.39085-0.05173-0.55041c0.09273,0.0083,0.19327-0.00878,0.28258-0.04782
	c0.03953-0.01805,0.06686-0.05563,0.07077-0.09808c0.00439-0.04294-0.01513-0.0849-0.05125-0.10979
	c-0.29088-0.19909-0.48122-0.41476-0.56516-0.64215c-0.07809-0.21324-0.10103-0.38695-0.06833-0.51723
	c0.03075-0.12248,0.07028-0.16151,0.15422-0.20738c0.09078-0.05075,0.20401-0.07222,0.31577-0.0932
	c0.06101-0.01171,0.10249-0.06734,0.09663-0.1298c-0.00683-0.06099-0.05808-0.10686-0.1225-0.10686
	c-0.06345,0.00195-0.12299,0.00244-0.17863,0.00244c-0.70036,0-0.79601-0.11662-0.80822-0.15517
	c-0.03904-0.11711,0.33334-0.25227,0.49293-0.30985L7.39762,16.17775z M45.14851,45.64371
	c-0.32114-0.04879-0.58566-0.52406-0.67156-0.84513c-0.36897-1.38774-0.27038-2.86818-0.17472-4.29984l0.0039-0.06343
	c0.03123-0.46551,0.06345-0.94565,0.07711-1.41702c0.01757-0.55334,0.01074-1.11741,0.00488-1.66196l-0.07028-4.84048
	c-0.00195-0.12589-0.00293-0.25178-0.00391-0.37767l-0.00195-0.18737c-0.00781-1.25989-0.01562-2.5637-0.43534-3.76699
	c-0.02538-0.07222-0.04978-0.14639-0.07614-0.22934c-0.14544-0.45282-0.327-1.01689-0.90485-1.61122
	c-0.65692-0.6763-1.46611-0.94858-2.17086-1.12668c-1.22697-0.30936-2.50371-0.36206-3.73067-0.36206
	c-0.18058,0-0.35921,0.00097-0.53686,0.00244c-0.9927,0.00927-1.80531,0.03952-2.48516,0.09173
	c-5.90544,0.45868-10.42237,1.87764-13.80848,4.33887c-1.08104,0.78463-2.46955,1.85617-3.62526,3.19316
	c-1.03223,1.19353-1.99418,2.44366-3.05521,3.83726c-0.11128,0.14541-0.22011,0.27813-0.3309,0.40305
	c0.00732-0.01952,0.01367-0.04001,0.01855-0.0605c0.06003-0.25764-0.01269-0.54748-0.19473-0.77584
	c-0.18058-0.22641-0.44559-0.36108-0.71256-0.36108c-0.07614,0.00098-0.15227,0.01073-0.22548,0.0205
	c-0.06784,0.00976-0.13421,0.01854-0.19766,0.01854c-0.01122,0-0.02245-0.00097-0.03368-0.00097
	c-0.28307-0.01757-0.49586-0.23032-0.72281-0.48991c0.04783-0.01366,0.09663-0.03123,0.14544-0.05172
	c0.09322-0.03708,0.20986-0.09466,0.28844-0.20494c0.06149-0.08686,0.08443-0.18542,0.10005-0.27716
	c0.0654-0.37572,0.02635-0.90466-0.27526-1.26965c0.23085-0.28691,0.40167-0.6441,0.49537-1.03153
	c0.12543,0.03123,0.24549,0.08197,0.35774,0.14931c0.07223,0.30936,0.11957,0.62848,0.13958,0.94858
	c0.00683,0.10345,0.01074,0.21275-0.0244,0.30156c-0.0449,0.11711-0.16887,0.20494-0.29478,0.20884
	c-0.04636,0.00098-0.08834,0.02928-0.10591,0.07124c-0.03416,0.07807-0.00927,0.16005,0.06247,0.20884
	c0.14398,0.09271,0.52515,0.03904,0.70182-0.14248c0.18058-0.18737,0.35433-0.54846,0.30991-0.90174
	c-0.01611-0.1337-0.06833-0.2674-0.15911-0.41085c-0.1064-0.1659-0.25135-0.31522-0.42021-0.43233
	c-0.16008-0.63922-0.42119-1.2433-0.77552-1.79469c-0.12592-0.19713-0.33041-0.46063-0.64911-0.47819
	c-0.06503,0.00671-0.13275,0.00982-0.20108,0.01092c-0.02068,0.00037-0.04234-0.00092-0.06332-0.0011
	c-0.28575-0.00366-0.60085-0.05855-0.95768-0.17084C9.67,29.77649,9.51968,29.71598,9.50601,29.61839
	c-0.00488-0.03611,0.00927-0.08002,0.04148-0.12687c0.13421-0.1942,0.42851-0.23031,0.72671-0.24007l1.16449-0.03513
	c0.04344,0.26545,0.02977,0.53577-0.04002,0.78365c-0.00927,0.03416-0.00342,0.07124,0.01708,0.10052
	c0.02001,0.02928,0.05222,0.04782,0.08883,0.05075c0.54076,0.04196,1.08397,0.03318,1.6135-0.02537
	c0.21377-0.02245,0.45877-0.05855,0.65545-0.20299c0.20645-0.15127,0.34017-0.45575,0.20645-0.7046
	c-0.14983-0.27813-0.49293-0.30448-0.77503-0.29472l-1.57592,0.04782c-0.09127-0.34157-0.26306-0.65093-0.49781-0.89685
	c-0.78479-0.81976-0.86776-2.1548-0.85019-3.23073c0.03172,0.00195,0.06345,0.00293,0.09517,0.00293
	c0.56614,0,1.17718-0.32107,1.28895-0.90369c0.00683-0.03513,0.01123-0.06831,0.01415-0.10101
	c0.01269,0.02049,0.02782,0.03904,0.04441,0.05611c0.07614,0.07661,0.17521,0.10198,0.27136,0.06831
	c0.13665-0.04928,0.18546-0.19176,0.20157-0.23861c0.03221-0.0932,0.05124-0.19225,0.05613-0.29424l0.06442-0.01561
	c0.19669-0.04733,0.4002-0.09564,0.57395-0.22543c0.15569-0.11613,0.25818-0.32351,0.25525-0.51625
	c-0.00244-0.14736-0.0654-0.2713-0.17667-0.34888c-0.16106-0.11223-0.35774-0.08881-0.51441-0.0688l-0.08053,0.00878
	c-0.04191,0.00451-0.08388,0.00598-0.1258,0.00628c-0.01123,0.00006-0.02251-0.00214-0.0338-0.00232
	c-0.27996-0.00433-0.56492-0.08313-0.85556-0.17524c0.00244-0.00683,0.00537-0.01366,0.00976-0.02147
	c0.04392-0.07612,0.19424-0.15517,0.36506-0.19128c0.18448-0.03904,0.42021-0.16102,0.50074-0.33718
	c0.04295-0.09515,0.03856-0.19274-0.01171-0.28252c-0.0327-0.05855-0.07858-0.09905-0.12152-0.13028
	c0.10493-0.15322,0.17082-0.33034,0.1918-0.51479c0.18985-0.02098,0.33383-0.07075,0.45145-0.15566
	c0.13226-0.09613,0.22011-0.25764,0.22939-0.42208c0.00195-0.04148-0.00098-0.08198-0.00879-0.12101
	c0.32553,0.00488,0.66131,0.00781,0.99904,0.01073c0.40557,0.0039,0.81066,0.00781,1.19573,0.01318
	c0.04392,0.00927,0.0815-0.02001,0.10347-0.05221c0.02294-0.03269,0.02733-0.07514,0.01171-0.1132
	c-0.05173-0.12199-0.07223-0.25471-0.0859-0.41427c2.15036,0.12638,4.49545,0.26252,7.16706,0.41671
	c-0.11128,0.11906-0.1757,0.26447-0.17814,0.40354c-0.00488,0.29521,0.1918,0.5914,0.50074,0.75437
	c0.25769,0.13663,0.54418,0.17225,0.83945,0.19957c1.0908,0.09759,2.05128,0.0893,2.93808-0.02976
	c0.42021-0.05514,0.89314-0.15566,1.21525-0.47917c0.18351-0.18396,0.29039-0.45965,0.28112-0.72314
	c0.14446,0.0122,0.29527,0.02635,0.44852,0.04245l0.14739,0.01513c0.59884,0.0649,1.21671,0.13126,1.80335-0.04928
	c0.03416-0.01025,0.06149-0.03562,0.07467-0.06831c0.01415-0.03269,0.0122-0.06978-0.00439-0.10149
	c-0.19327-0.36499-0.33529-0.75584-0.42265-1.16181c-0.10981-0.51528-0.10981-0.95834-0.10981-1.47166
	c0-0.44209,0-0.94321-0.0693-1.60244L29.81535,15.459c-0.14642-1.37602-0.29771-2.79889,0.85165-3.52594
	c1.17816-0.7451,9.44577-0.70997,11.94753-0.68216c0.09078,0.00098,0.18448,0.00146,0.28014,0.00146
	c1.13131,0,2.54373-0.07173,4.03229-0.14736l0.04002-0.00195c1.43488-0.07173,2.91953-0.14639,4.13576-0.15175
	c0.08785-0.00098,0.17668-0.00146,0.26745-0.00146c0.52612,0,1.09422,0.02293,1.6135,0.20689
	c0.50465,0.17859,1.09031,0.59872,1.21916,1.24037c0.17082,0.85538,0.18644,1.72735,0.20108,2.57053v0.00878
	c0.01366,0.77731,0.02733,1.58048,0.16203,2.37779l0.00976,0.05563c0.05857,0.3484,0.11811,0.70314,0.1142,1.04471
	c-0.00879-0.05367-0.02538-0.10784-0.04978-0.16054c-0.07223-0.15273-0.19717-0.26935-0.37092-0.34645l-0.08883-3.058v-0.00537
	c-0.0205-0.69289-0.04392-1.47801-0.35237-2.167c-0.28502-0.63775-0.9273-1.27258-1.72771-1.27258
	c-0.01269,0-0.02636,0.00049-0.03904,0.00049c-0.74282,0.02049-1.51394,0.03806-2.25969,0.05514l-0.45096,0.01025
	c-1.75113,0.03952-3.56083,0.08051-5.28659,0.15127c-1.58812,0.06636-3.23188,0.1337-4.85027,0.08246
	c-1.10788-0.03464-2.28018,0.03465-3.41149,0.10247h-0.00586c-0.70963,0.04245-1.51492,0.09076-2.27481,0.1054
	c-1.89218,0.03708-2.40415,0.27862-2.83559,0.8061c-0.30943,0.37816-0.42266,1.47459-0.34652,3.35174l0.00927,0.24593
	c0.03026,0.84513,0.05564,1.57462,0.59982,1.99328c0.57932,0.33327,1.55884,0.31912,2.79605,0.30009l0.01757-0.00049
	c0.71061-0.00976,1.51492-0.02147,2.35827,0.03367c2.15036,0.14102,6.66485,0.17274,12.30967-0.20006
	c0.60909-0.0405,1.25039-0.1132,1.87022-0.18396l0.05856-0.00634c0.94975-0.1093,2.01957-0.23227,3.00641-0.23227
	c0.06442,0,0.12885,0.00049,0.19327,0.00195c0.19229,0.00342,0.34847,0.02147,0.47634,0.05612l0.02636,0.90271
	c0.00098,0.02489,0.00293,0.05709,0.00781,0.09515c-0.27917,0.13467-0.613,0.13077-0.91168,0.1254l-21.49092-0.26008
	c-0.30991,0.00098-0.94829,0.05611-1.14595,0.25764c-0.05954,0.061-0.07077,0.12394-0.06979,0.1659
	c0.01123,0.34401,0.71841,0.45916,0.97464,0.46209c7.64681,0.08734,15.40295,0.04391,23.05464-0.13223
	c0.51343-0.01122,1.09909-0.02489,1.58715,0.20152c0.56028,0.25959,1.16645,0.26252,1.63498,0.23617
	c-0.0039,0.05758,0.03416,0.11028,0.0898,0.12443c0.37385,0.09271,2.28702,1.06813,2.76824,2.60615
	c0.48317,1.54486,0.19327,2.97407-0.01855,4.02121l-0.01074,0.0527c-0.04783,0.24007-0.10347,0.47624-0.16008,0.71631
	c-0.05954,0.25666-0.11811,0.50747-0.16887,0.76218c-0.16301,0.82269-0.24305,1.68734-0.24598,2.6447
	c-0.00098,0.00098-0.00098,0.00195-0.00098,0.00293c-0.00391,0.0283-0.41094,3.05653-0.66863,4.2891
	c-0.12201,0.58554-0.43242,1.53022-0.7067,2.36364c-0.18839,0.57578-0.36995,1.13107-0.50758,1.60633
	c-0.34261-0.38841-0.61885-0.74657-0.84336-1.09594c-0.02538-0.03806-0.07223-0.0605-0.11225-0.05367
	c-0.04588,0.0039-0.08395,0.03318-0.09956,0.07612c-0.32602,0.8666-1.43975,1.1623-2.28311,0.94175
	c-0.59348-0.15615-1.04443-0.51625-1.20647-0.96322c-0.07126-0.19811-0.09371-0.42842-0.0654-0.68411
	c0.05856-0.54358,0.36311-1.06959,0.83554-1.44336c0.40411-0.3201,0.89119-0.49478,1.36655-0.49478
	c0.07614,0,0.15325,0.00488,0.22841,0.01366c0.12885,0.01659,0.25867,0.04684,0.38459,0.08979
	c0.2206,0.55919,0.13275,1.21793-0.22353,1.68636c-0.3475-0.30838-0.76527-0.45282-1.15278-0.39817
	c-0.45779,0.06343-0.91656,0.48014-0.86873,0.99835c0.01854,0.20396,0.11811,0.37963,0.26648,0.46941
	c0.12982,0.08002,0.28209,0.08881,0.40508,0.09564h0.00488c0.25964,0.01659,0.58176,0.03025,0.85507-0.11223
	c0.18644-0.09759,0.32016-0.2469,0.36604-0.40793c0.01855-0.06148,0.02343-0.12394,0.01464-0.18542
	c0.0244,0,0.04783-0.00098,0.07223-0.00098c0.6169,0,1.24942,0.12199,1.83508,0.35426
	c0.03123,0.01366,0.07223,0.00976,0.10347-0.00781c0.03221-0.01952,0.05271-0.05075,0.05661-0.08686
	c0.0859-0.60408-0.09761-1.25306-0.50172-1.78102c-0.28014-0.36694-0.64423-0.64702-1.0542-0.81097
	c-0.03904-0.08588-0.08687-0.16981-0.14056-0.25081c-0.48122-0.71436-1.45342-1.03738-2.26359-0.74461
	c-0.32602,0.11515-0.60323,0.30838-0.85897,0.49771c-0.25574,0.18835-0.54564,0.41085-0.78479,0.68996
	c0.02343-0.10735,0.05076-0.2147,0.07906-0.3279l0.00781-0.03025c0.00976-0.04099-0.00195-0.0849-0.03123-0.11418
	c-0.02928-0.02928-0.07418-0.04294-0.1142-0.03025c-0.43632,0.11613-0.8863,0.17664-1.33727,0.18054
	c-0.23426,0.00195-0.46951-0.00976-0.7106-0.02245l-0.00586-0.00098c-0.68327-0.0322-1.38509-0.06734-2.00004,0.20299
	c-0.84336,0.37084-1.18987,1.35163-1.33239,2.10991l-0.01171,0.06538c-0.04881,0.26545-0.09859,0.53968-0.2616,0.73583
	c-0.02929,0.03611-0.03514,0.0849-0.01659,0.12687c0.0205,0.04196,0.06149,0.06831,0.10835,0.06831l2.93515,0.00878
	c0.041,0,0.07907-0.02147,0.10054-0.05563c0.02245-0.03416,0.0244-0.07905,0.00586-0.11613
	c-0.07613-0.15322-0.02733-0.3523,0.03416-0.56017c0.15325-0.52113,0.28209-1.03153,0.16789-1.53607
	c-0.01165-0.05099-0.04716-0.09436-0.06534-0.14407c-0.02391-0.06612-0.05259-0.12967-0.08724-0.1925
	c-0.05119-0.09253-0.10652-0.17042-0.17588-0.24818c-0.04771-0.0538-0.0981-0.10302-0.15368-0.14742
	c-0.03703-0.02977-0.06412-0.07496-0.10353-0.0993c0.27917-0.00878,0.57005,0.00683,0.84921,0.0205l0.07906,0.0039
	c0.18351,0.00976,0.37288,0.01854,0.5515,0.01854c0.03221,0,0.06345,0,0.09468-0.00098
	c0.40216-0.00293,0.80626-0.04977,1.20159-0.13858c-0.03319,0.1337-0.05661,0.24007-0.07418,0.34157
	c-0.01855,0.1054-0.03319,0.2186-0.04393,0.34449c-0.27331,0.54846-0.31723,1.18865-0.12201,1.75663
	c0.22939,0.66264,0.78772,1.20524,1.45635,1.41604c0.05076,0.01366,0.11226-0.00586,0.13958-0.0566
	c0.02733-0.0488,0.01562-0.11126-0.02636-0.14834c-0.817-0.70168-1.28162-1.81323-1.2133-2.90234
	c0.03807-0.07026,0.07516-0.13174,0.11323-0.18542c0.23817-0.34742,0.58371-0.61677,0.88923-0.84123
	c0.2411-0.17762,0.50172-0.36011,0.7965-0.46551c0.71451-0.25178,1.5647,0.0283,1.98735,0.65483
	c0.00293,0.00488,0.00683,0.00976,0.00976,0.01464c-0.07224-0.01659-0.13958-0.0283-0.20596-0.03611
	c-0.08492-0.01073-0.17082-0.01561-0.25769-0.01561c-0.52905,0-1.06883,0.19225-1.51589,0.5465
	c-0.52124,0.41281-0.85799,0.99738-0.92242,1.60341c-0.03221,0.29179-0.00684,0.55724,0.07809,0.79048
	c0.18741,0.52211,0.69987,0.93784,1.36948,1.11448c0.86288,0.22641,2.01371-0.04489,2.47443-0.88612
	c0.23329,0.34449,0.51051,0.69289,0.84726,1.06178c-0.08102,0.29863-0.12982,0.53284-0.14642,0.69582
	c-0.00488,0.04294,0.01367,0.08393,0.04881,0.10833c0.03416,0.02635,0.08102,0.03123,0.11909,0.01171
	c0.19815-0.09076,0.56224-0.05465,0.65887-0.01659c-0.00195,0.00195-0.00488,0.00488-0.00879,0.00683
	c-0.02831,0.01952-0.07906,0.02245-0.14154,0.02342l-0.65594,0.00293c-0.04197,0-0.08004,0.02147-0.10152,0.0566
	c-0.02147,0.03513-0.0244,0.07807-0.00586,0.11613c0.04978,0.09759,0.11127,0.18932,0.18253,0.27423
	c-0.97709-0.02927-1.99711-0.05172-2.98396-0.07319l-0.25964-0.00586c-1.00637-0.02245-2.04787-0.04489-3.03959-0.07612
	l-0.00488-0.00098c-1.44073-0.04294-2.92929-0.09076-4.38467,0.15419c-0.28795,0.04977-0.59152,0.1132-0.84335,0.29472
	c-0.24696,0.17566-0.45584,0.50942-0.36409,0.85684c0.04783,0.1825,0.19717,0.33766,0.38947,0.405
	c0.13763,0.04684,0.27917,0.04099,0.3963-0.0205c0.4168,0.17566,0.5964,0.69875,0.62471,1.09496
	c0.01464,0.2391-0.0039,0.486-0.02245,0.7251l-0.00098,0.01464c-0.01854,0.2469-0.03709,0.50259-0.0205,0.75828
	c0.00683,0.10735,0.02147,0.23324,0.08395,0.34644c0.08297,0.15126,0.24305,0.26447,0.43925,0.31034
	c0.01952,0.00488,0.04002,0.00879,0.06149,0.01171C47.07436,45.6925,46.10411,45.67201,45.14851,45.64371z M48.61087,45.30544
	c-0.0194,0.01836-0.03727,0.03696-0.05881,0.05288C48.57348,45.3424,48.59153,45.32373,48.61087,45.30544z M59.96603,42.28519
	c-0.0305,0.00976-0.05984,0.01989-0.09187,0.02483C59.90619,42.30484,59.93553,42.29502,59.96603,42.28519z M60.23568,42.10191
	c-0.02147,0.028-0.04411,0.05373-0.07193,0.0771C60.19139,42.15558,60.21427,42.12984,60.23568,42.10191z M27.63571,19.6427
	c-0.37531-0.02586-0.75648-0.04294-1.13521-0.05026c0.03612-0.01025,0.07272-0.02049,0.10835-0.03123l0.01708-0.00488
	c0.34652-0.10003,0.67449-0.19323,0.91022-0.01854C27.57568,19.56658,27.60887,19.6022,27.63571,19.6427z M26.58883,18.69168
	c0.16008-0.02586,0.30747-0.08539,0.45194-0.14395c0.07077-0.0283,0.14398-0.05807,0.21718-0.08295
	c0.16447-0.05514,0.39532-0.09759,0.56321,0.01025c0.0737,0.04684,0.12543,0.14248,0.12836,0.23714
	c0.00146,0.04587-0.00879,0.10881-0.06149,0.14687c-0.04588,0.03416-0.11616,0.04684-0.17814,0.0566
	c-0.37092,0.05416-0.75746,0.03269-1.1191-0.06392l-0.09517-0.02586c-0.09419-0.02635-0.20059-0.05611-0.30991-0.07222
	c-0.0083-0.01952-0.01659-0.03904-0.02538-0.05758C26.28185,18.70876,26.43559,18.71754,26.58883,18.69168z M27.15321,18.95481
	c-0.01904-0.00098-0.03734-0.00592-0.05637-0.00732C27.11581,18.94889,27.13417,18.95377,27.15321,18.95481z M26.34456,18.67789
	c0.00159,0,0.00317,0,0.00476,0C26.34768,18.67783,26.34615,18.67795,26.34456,18.67789z M25.51122,18.31205
	c0.02635-0.09271,0.06491-0.14395,0.08687-0.14639c0.00732,0,0.03563,0.00878,0.08785,0.11223l0.06393,0.12784
	c-0.08492-0.00976-0.17131-0.01854-0.25769-0.02586C25.49853,18.35597,25.50487,18.33352,25.51122,18.31205z M26.02025,19.16743
	c-0.01269,0.07319-0.07174,0.14785-0.143,0.18152c-0.04539,0.02001-0.08394,0.02049-0.11518,0.00146
	c-0.03612-0.02098-0.05173-0.05953-0.04636-0.11467c0.00927-0.10003,0.08443-0.20104,0.17033-0.2308
	c0.03856-0.01366,0.07955-0.02147,0.12445-0.02342C26.02709,19.04886,26.0305,19.10937,26.02025,19.16743z M25.4873,19.1567
	c-0.06149-0.13858-0.07614-0.32058-0.04344-0.54211c0.14886,0.01317,0.29478,0.02879,0.43437,0.04636l0.00634,0.01269
	c0.01318,0.02635,0.02587,0.05221,0.03807,0.07759c-0.03953,0.00634-0.0776,0.01561-0.1142,0.0283
	C25.65373,18.83319,25.52439,18.98738,25.4873,19.1567z M24.38967,19.6466c-0.22694,0.0161-0.46072,0.0322-0.66961-0.02977
	c-0.18399-0.05514-0.38117-0.20152-0.40899-0.40549c-0.02928-0.21811,0.14349-0.41378,0.31577-0.50308
	c0.2123-0.11028,0.46463-0.12394,0.70524-0.12882c0.28942-0.00537,0.57981,0,0.87313,0.01805
	c-0.05857,0.43233,0.04197,0.75828,0.29088,0.94321c0.02587,0.01903,0.0532,0.0366,0.08102,0.05221
	c-0.388,0.00732-0.78577,0.02537-1.18353,0.05319l0.00098,0.01513v0.00018h-0.00006l0.00006-0.00018L24.38967,19.6466z
	 M17.59573,6.76314c-0.07608-0.03989-0.15209-0.07844-0.23219-0.1046c-0.11854-0.03891-0.24195-0.0627-0.37037-0.07069
	c-0.03496-0.00232-0.06589-0.01934-0.10145-0.01934c-0.08297,0-0.16789,0.00634-0.25379,0.01903
	c-0.41289,0.05758-0.73013,0.18152-0.99856,0.38987c-0.04057,0.03184-0.06198,0.08106-0.09846,0.11674
	c-0.06772,0.06606-0.12769,0.13663-0.17912,0.21232c-0.05356,0.07874-0.09968,0.16316-0.13879,0.25447
	c-0.0388,0.09173-0.07016,0.18743-0.09346,0.28734c-0.0133,0.05538-0.04185,0.09796-0.05094,0.15675
	c-0.03026,0.17225-0.0366,0.35279-0.04246,0.52699L15.0337,8.59888c-0.00781,0.14541-0.00781,0.14541-0.1552,0.16346
	c-0.25867,0.03172-0.47195,0.07758-0.6701,0.14346c-0.07955,0.02635-0.13226,0.02049-0.19668-0.02245
	c-0.12329-0.08539-0.23518-0.17066-0.34243-0.25624c-0.02398-0.01909-0.04807-0.03806-0.07162-0.05746
	c-0.15758-0.13016-0.29369-0.26288-0.41863-0.39774c-0.09029-0.09735-0.17546-0.2-0.25519-0.30832
	c-0.04435-0.06057-0.09175-0.11998-0.13129-0.18256c-0.27233-0.42647-0.42119-0.89393-0.44266-1.3892
	c-0.03612-0.79487,0.10249-1.45703,0.42265-2.02305c0.41924-0.74413,1.08836-1.22964,1.98882-1.44239
	c0.62031-0.14639,1.28748-0.13419,1.98589,0.03513c0.16252,0.03952,0.16252,0.03952,0.16935,0.2147v0.00878
	c0.00397,0.0774,0.03057,0.14388,0.03953,0.21897c0.01495,0.12888,0.03794,0.2552,0.06845,0.37914
	c0.03337,0.13394,0.07516,0.26264,0.12616,0.38737c0.04624,0.11302,0.10097,0.22324,0.16356,0.33095
	c0.03557,0.06136,0.05381,0.1323,0.09426,0.19085c0.04344,0.06246,0.09517,0.11467,0.17228,0.17566
	c0.12104,0.09076,0.26501,0.11418,0.39483,0.06246c0.13177-0.05172,0.22304-0.16883,0.24988-0.32205
	c0.02636-0.14834,0.00049-0.30595-0.08102-0.49576c-0.19815-0.45575-0.49293-0.83098-0.87605-1.11595
	c-0.13714-0.09954-0.14251-0.10345-0.07174-0.25764c0.39776-0.85636,0.85409-1.45166,1.43634-1.87325
	c0.73501-0.53431,1.58373-0.68801,2.51982-0.45819c0.26306,0.06587,0.51929,0.1581,0.76185,0.27423
	c0.69499,0.33181,1.18304,0.86319,1.49295,1.62439c0.26648,0.65971,0.37531,1.4053,0.34212,2.34705
	c-0.00525,0.1495-0.01727,0.3018-0.02977,0.45459c-0.00884,0.10704-0.01977,0.21372-0.03185,0.32022
	c-0.06149,0.54547-0.16472,1.12046-0.32297,1.76791c-0.0435,0.1789-0.09621,0.36212-0.14629,0.54401
	c-0.0726,0.26295-0.15069,0.52394-0.23353,0.78322c-0.1394,0.43666-0.29314,0.88435-0.47536,1.35901
	c-0.01507,0.03928-0.0305,0.07844-0.04575,0.11766c-0.11988,0.30839-0.2472,0.6244-0.38703,0.9548
	c-0.0366,0.08588-0.07614,0.17274-0.1142,0.25617l-0.01513,0.03367c-0.00342,0.00195-0.00732,0.00537-0.00879,0.00781
	c-0.03758,0.06539-0.06833,0.13711-0.09907,0.23129l-0.02147,0.04782c-0.01806,0.04001-0.03612,0.07954-0.0532,0.12004
	c-0.03123,0.08149-0.06442,0.11467-0.16057,0.08685c-0.64423-0.18981-1.33727-0.38792-2.18209-0.62409
	c-0.0898-0.02049-0.09468-0.07271-0.10054-0.14541c-0.04832-0.57676-0.14739-1.16474-0.30308-1.79762
	c-0.11567-0.46697-0.27575-0.89783-0.49001-1.31796C18.40321,7.52685,18.22556,7.237,17.96885,7.0023
	c-0.05533-0.05056-0.11963-0.07216-0.17777-0.11394C17.72744,6.84213,17.66284,6.79864,17.59573,6.76314z M14.1718,9.23956
	c0.05857,0.04294,0.12201,0.08295,0.18351,0.1215c0.04295,0.02733,0.08638,0.05465,0.12885,0.08344
	c0.31187,0.22397,0.674,0.35084,1.07713,0.37816c0.184,0.01415,0.37336,0.02928,0.55784,0.02928
	c0.02928-0.00049,0.05808-0.00049,0.08785-0.00098c0.78381,0,1.43048,0.32546,1.97613,0.99347
	c0.21523,0.26398,0.41289,0.54065,0.60372,0.84513c0.01757,0.03269,0.03612,0.06587,0.05466,0.09954
	c0.03807,0.0688,0.07711,0.13955,0.11127,0.21031c0.02099,0.04001,0.03416,0.06929,0.02782,0.08295
	c-0.00635,0.01366-0.03563,0.02293-0.0815,0.03318c-0.22792,0.05465-0.43046,0.09661-0.61934,0.12882
	c-0.97562,0.16834-1.93171,0.19518-2.83998,0.08051c-0.48561-0.05855-0.88142-0.15078-1.24502-0.28984
	c-0.24159-0.09369-0.49049-0.2108-0.67498-0.43037c-0.37092-0.43623-0.46121-0.94468-0.27624-1.55364
	c0.11762-0.39866,0.36116-0.67776,0.72427-0.83001c0.0366-0.01464,0.06735-0.02391,0.09761-0.02391
	C14.10005,9.19711,14.13324,9.20931,14.1718,9.23956z M16.18508,12.40131c-0.03837-0.00165-0.07675-0.00519-0.11518-0.00726
	C16.10839,12.39618,16.14646,12.39966,16.18508,12.40131z M17.99032,4.19609c0.03465,0.08588,0.04539,0.18005,0.03026,0.26398
	c-0.02245,0.09661-0.06979,0.15517-0.14934,0.18347c-0.07077,0.02586-0.13568,0.00244-0.19766-0.0688
	c-0.07272-0.07368-0.12201-0.13663-0.15422-0.19713c-0.23426-0.41622-0.36067-0.80951-0.38654-1.20231l-0.00146-0.01415
	c-0.00293-0.02879-0.00586-0.05611,0.01513-0.09174C17.53399,3.36364,17.81804,3.74229,17.99032,4.19609z M17.76734,4.65665
	c-0.01208-0.00396-0.02251-0.01134-0.03374-0.01787C17.74483,4.64482,17.75575,4.65305,17.76734,4.65665z M24.12319,14.1669
	c0.0449,0.3523-0.10542,0.74657-0.37434,0.98078c-0.21572,0.1864-0.56712,0.24934-0.94097,0.1659
	c-0.38361-0.08539-0.69499-0.30448-0.81358-0.57139c-0.14544-0.33034-0.12689-0.9154-0.09956-1.33211
	c0.45145-0.07124,1.2665-0.15078,1.74772,0.08881c0,0,0,0,0,0.00049C23.99093,13.67212,24.09635,13.95806,24.12319,14.1669z
	 M14.57584,8.84224c-0.03014,0.00598-0.06028,0.0125-0.09023,0.01934C14.51478,8.85487,14.54552,8.84828,14.57584,8.84224z
	 M19.13139,11.30555c0.00146,0.03757,0.00293,0.07661-0.00976,0.11857c-0.04685-0.05611-0.07858-0.10442-0.07614-0.17078
	c0.00049-0.03318,0.02343-0.05563,0.05564-0.05612c0.01952,0.00049,0.02977,0.00781,0.03026,0.04733
	C19.12992,11.26456,19.1309,11.28457,19.13139,11.30555z M22.03878,11.42796c-0.01055,0.03202-0.02215,0.06356-0.02953,0.09655
	C22.01657,11.4914,22.02829,11.45998,22.03878,11.42796z M19.19069,12.21851c-0.00433,0.00244-0.00909,0.00512-0.01434,0.00744
	C19.18074,12.22351,19.18697,12.22113,19.19069,12.21851z M11.72909,21.18707c-0.21181,0.16346-0.50123,0.21909-0.76673,0.14931
	c0.04685-0.15322,0.22939-0.2469,0.3841-0.24934C11.47531,21.08947,11.5939,21.12022,11.72909,21.18707z M10.17446,24.18449
	c0.01775,0.02293,0.02013,0.05892,0.04167,0.07764c-0.01562,0.00586-0.03221,0.01073-0.05027,0.01366
	c-0.09322,0.01415-0.20157-0.01854-0.26306-0.08246c-0.14056-0.14931-0.14105-0.3889-0.11664-0.56407
	c0.02928-0.20835,0.09127-0.36157,0.19034-0.46843c0.03856-0.04294,0.08541-0.08002,0.1391-0.11125
	c-0.00879,0.16542,0.03709,0.33083,0.08492,0.47331c-0.11957,0.10198-0.17375,0.26642-0.14398,0.44208
	c0.00604,0.03477,0.03422,0.05374,0.04588,0.08539C10.12035,24.10069,10.14365,24.14503,10.17446,24.18449z M10.04891,24.28098
	c-0.03032-0.00653-0.05448-0.01848-0.08126-0.03257C9.99407,24.26232,10.01896,24.27403,10.04891,24.28098z M10.50798,23.66586
	c0.03612,0.00537,0.0737,0.01903,0.10688,0.03952c0.06149,0.03708,0.10591,0.09174,0.12152,0.14785
	c-0.00342,0.00049-0.00683,0.00049-0.01025,0.00049c-0.04344,0-0.09322-0.02049-0.12933-0.05514
	C10.56313,23.76589,10.53483,23.72441,10.50798,23.66586z M10.66575,23.85769c-0.00043-0.00018-0.00067-0.00031-0.0011-0.00049
	C10.66508,23.85732,10.66538,23.85756,10.66575,23.85769z M10.92332,32.0884c-0.21133,0.09174-0.40118,0.22739-0.55443,0.39914
	c-0.01757,0.01952-0.03563,0.04001-0.05417,0.05856c0.08346-0.21372,0.29234-0.36596,0.47439-0.42354
	C10.83156,32.10792,10.87646,32.09718,10.92332,32.0884z M10.9282,33.22826c0.03221,0.01757,0.06296,0.03806,0.09175,0.05953
	l-0.54467,0.67337l-0.00293,0.0039c-0.02684,0.03318-0.0571,0.07027-0.08492,0.081
	c-0.03319,0.01073-0.08102,0.00293-0.14105-0.00879L9.79982,33.9436c-0.01367-0.25764,0.11079-0.51918,0.31967-0.6685
	C10.34839,33.11115,10.68124,33.09163,10.9282,33.22826z M10.61877,34.90681c-0.0122,0-0.0244,0-0.03612,0
	c-0.15813,0-0.3104-0.02342-0.4534-0.07124c-0.09859-0.03123-0.20401-0.13077-0.21767-0.20299
	c-0.00342-0.01561-0.00049-0.0244,0.01269-0.03416c0.01513-0.01366,0.0449-0.02049,0.08785-0.02147h0.01025
	C10.26445,34.57696,10.45918,34.73993,10.61877,34.90681z M2.2519,28.5c0.00207-0.00049,0.00494-0.00244,0.00708-0.00299
	C2.25678,28.49768,2.25404,28.49945,2.2519,28.5z M1.53221,48.38697c0.11567,0.30643,0.33432,0.57481,0.61836,0.76023
	l-0.88094,0.12784c-0.28844,0.04197-0.56224,0.06734-0.76624-0.05953c-0.17326-0.1093-0.27965-0.34157-0.26355-0.57871
	c0.01806-0.26838,0.16984-0.49771,0.2943-0.64214c0.16447-0.1903,0.37434-0.34742,0.58029-0.50259l0.49098-0.36791
	C1.40678,47.51257,1.37896,47.98002,1.53221,48.38697z M32.55284,35.83685c1.87266,0.0078,3.75898,0.08686,5.6087,0.23617
	c0.32602,0.02635,0.75453,0.15712,0.9029,0.2391c-0.11909,0.02147-0.34945,0.01659-0.45584,0.01659
	c-0.07321-0.00195-0.14349-0.00195-0.20108,0c-0.13568,0.00293-0.27136,0.00488-0.40704,0.00488
	c-1.31091,0-2.63451-0.162-3.91809-0.31912C33.58507,35.95298,33.07262,35.89052,32.55284,35.83685z M57.29712,48.18594
	c0.04978-0.06148,0.09078-0.1298,0.12299-0.20299c0.18058-0.41671-0.01366-0.8627-0.18644-1.17206
	c0.0449,0.00878,0.09175,0.01757,0.13763,0.02732c0.13372,0.3035,0.2411,0.62263,0.31723,0.94858
	c0.01855,0.07905,0.03416,0.15615,0.01562,0.21861C57.67096,48.1186,57.53724,48.17715,57.29712,48.18594z M56.63434,48.57825
	c0.14349-0.04001,0.27136-0.09271,0.37971-0.15517c0.02831-0.00195,0.06247-0.00098,0.09468-0.00098
	c0.17765,0.01073,0.71158,0.03513,0.82481-0.34937c0.03514-0.11808,0.01171-0.23812-0.01269-0.33961
	c-0.0654-0.28009-0.15325-0.55627-0.26062-0.82074c0.17472,0.05367,0.32114,0.11711,0.44608,0.19421
	c0.29088,0.17859,0.56321,0.52601,0.51441,0.89978c-0.06833,0.51333-0.66082,0.76121-0.84043,0.82561
	c-0.40509,0.14151-0.94292,0.14151-1.16449-0.19713C56.61677,48.61436,56.62263,48.59582,56.63434,48.57825z M57.13868,48.92842
	c-0.01629-0.00171-0.03069-0.00598-0.04667-0.00842C57.10781,48.9225,57.12263,48.92665,57.13868,48.92842z M56.82804,48.84132
	c-0.01574-0.00817-0.02568-0.02361-0.04063-0.03294C56.80229,48.81771,56.81236,48.83315,56.82804,48.84132z M57.54822,48.90244
	c-0.04289,0.0083-0.0834,0.01793-0.12671,0.02257C57.4647,48.92031,57.50551,48.91073,57.54822,48.90244z M19.33979,49.05059
	c-0.52612,0.00683-1.02784,0.01366-1.50125,0.02049c0.16984-0.01464,0.33285-0.03025,0.49098-0.04782
	C18.68824,49.03302,19.02304,49.04278,19.33979,49.05059z M11.38013,49.19405L3.45757,49.4068
	c0.13177-0.11808,0.41192-0.14053,0.4451-0.14346c1.08299-0.08588,2.25627-0.12589,3.69163-0.12589
	c1.01417,0,2.03664,0.0205,3.02495,0.04001l0.09078,0.00195C10.93259,49.18429,11.15612,49.18917,11.38013,49.19405z"/>
</svg>
