<?xml version="1.0" encoding="utf-8"?>
<!-- Generator: Adobe Illustrator 23.1.1, SVG Export Plug-In . SVG Version: 6.00 Build 0)  -->
<!DOCTYPE svg PUBLIC "-//W3C//DTD SVG 1.1//EN" "http://www.w3.org/Graphics/SVG/1.1/DTD/svg11.dtd" [
	<!ENTITY ns_extend "http://ns.adobe.com/Extensibility/1.0/">
	<!ENTITY ns_ai "http://ns.adobe.com/AdobeIllustrator/10.0/">
	<!ENTITY ns_graphs "http://ns.adobe.com/Graphs/1.0/">
	<!ENTITY ns_vars "http://ns.adobe.com/Variables/1.0/">
	<!ENTITY ns_imrep "http://ns.adobe.com/ImageReplacement/1.0/">
	<!ENTITY ns_sfw "http://ns.adobe.com/SaveForWeb/1.0/">
	<!ENTITY ns_custom "http://ns.adobe.com/GenericCustomNamespace/1.0/">
	<!ENTITY ns_adobe_xpath "http://ns.adobe.com/XPath/1.0/">
]>
<svg version="1.1" id="Слой_1" xmlns:x="&ns_extend;" xmlns:i="&ns_ai;" xmlns:graph="&ns_graphs;"
	 xmlns="http://www.w3.org/2000/svg" xmlns:xlink="http://www.w3.org/1999/xlink" x="0px" y="0px" viewBox="0 0 56.69 49.64882"
	 style="enable-background:new 0 0 56.69 49.64882;" xml:space="preserve">
<metadata>
	<sfw  xmlns="&ns_sfw;">
		<slices></slices>
		<sliceSourceBounds  bottomLeftOrigin="true" height="49.6507" width="56.68796" x="0.00204" y="3.51871"></sliceSourceBounds>
	</sfw>
</metadata>
<path d="M56.67194,5.03314c-0.04901-0.10296-0.13586-0.07714-0.21906-0.03161c-0.44757,0.22301-0.92535,0.39055-1.3916,0.5662
	c-0.6178,0.22246-1.87164,0.55808-2.19989,0.64694c-0.12585,0.02374-0.9538,0.20562-1.5589,0.31261
	c-0.79077,0.12536-1.60498,0.18645-2.40247,0.23394c-0.98004,0.05999-1.95001,0.01001-2.92004-0.2
	c-0.13-0.03003-0.17999-0.07-0.14996-0.22997c0.10999-0.67001-0.22003-1.26996-0.82001-1.57994
	C44.69,4.60128,44.35999,4.6913,44.28998,4.97125c-0.08997,0.36998-0.07996,0.73001,0.17999,1.05
	c0.24005,0.28996,0.54004,0.46995,0.92004,0.61997c-0.46002,0.50992-0.98004,0.78994-1.67004,0.68997
	C43.12,7.25118,42.53003,7.10116,41.95001,6.91116C41.47998,6.7512,41,6.6212,40.59003,6.34118
	c-0.60004-0.39994-1.20001-0.80996-1.81-1.18995C38.12,4.74128,37.46997,4.33133,36.75,4.03129
	c-0.54999-0.23998-1.09998-0.45994-1.60999-0.76992c-0.53003-0.33-1.04999-0.64999-1.40002-1.17994
	C33.56,1.82144,33.39001,1.57145,33.19,1.33147c-0.39001-0.47001-0.90002-0.73001-1.46002-0.95998
	c-0.94995-0.39-1.90997-0.40995-2.89996-0.34001c-0.48999,0.02002-0.97003,0.11999-1.47003,0.10003
	c-0.51996-0.02002-1.03998,0.01001-1.56-0.01001c-0.84998-0.03998-1.57001,0.22997-2.22998,0.74996
	c-0.42999,0.34001-0.77002,0.73996-1.06,1.18995c-0.48999,0.73996-1.16003,1.21991-2,1.44994
	c-1.19,0.31999-2.31,0.81997-3.44,1.25995c-0.96002,0.36998-1.89001,0.83993-2.78003,1.36993
	c-0.60999,0.35997-1.13,0.78994-1.5,1.3999C12.53003,7.96116,12.31,8.40108,12.14001,8.86108
	c0,0.01001-0.01001,0.02002-0.01001,0.03003c-0.06,0.14996-0.10999,0.29997-0.16998,0.45994
	c-0.01001,0.03003-0.02002,0.04998-0.03003,0.07c-0.20001,0.60001-0.33997,1.33996-0.44,1.93991c0,0.01001,0,0.01001,0,0.01001
	c-0.02002,0.09002-0.03998,0.17998-0.03998,0.27001c-0.02002,0.07995-0.03003,0.14996-0.04004,0.20995
	c-0.00995,0.08001-0.01996,0.15002-0.02997,0.21001c0,0.02997,0,0.05999-0.01001,0.08996c0,0.05005-0.01001,0.10003-0.02002,0.14001
	c-0.00995,0.10998-0.01996,0.17998-0.01996,0.17998c-0.03003,0.17004-0.06,0.35002-0.08002,0.53
	c-0.10999,0.60996-0.23999,1.22992-0.33002,1.83988c-0.06,0.44999-0.13995,0.88997-0.20001,1.32995
	c-0.07996,0.64999-0.21997,1.28998-0.31995,1.93991c-0.10004,0.66995-0.19,1.32996-0.29004,1.9899
	c-0.07996,0.55997-0.15997,1.10999-0.23999,1.66997c-0.06,0.47996-0.13,0.95992-0.19,1.42993
	c-0.08002,0.62997-0.17999,1.24994-0.19,1.87992c0,0.08996,0,0.18999-0.03998,0.26995
	c-0.22003,0.48002-0.28003,1.00996-0.34003,1.51995C9.03003,27.59019,9,28.32019,8.96997,29.05014
	c-0.01996,0.51999,0.01001,1.02998-0.00995,1.54992c-0.06,1.21997,0.15997,2.43989,0.13995,3.64985
	c-0.01996,0.67996,0.11005,1.3399,0.09003,2.01992c0,0.03998,0.01001,0.06995,0.02002,0.10998
	c0.06,0.70993,0.13,1.42992,0.21997,2.14986c0.08002,0.75997,0.06,1.52996,0.06,2.28993
	c-0.01001,0.74997-0.06,1.49993-0.02002,2.2499c0.02002,0.69998,0,1.4099,0.08002,2.11989
	c0.04999,0.44999,0.03003,0.90993-0.03998,1.37994c-0.06,0.39-0.10004,0.76992-0.19,1.14991
	c-0.03998,0.17004-0.10999,0.18999-0.23999,0.11004C8.84003,47.65925,8.22998,47.48927,8.19,47.47926s-0.08002-0.01996-0.12-0.02996
	c-0.13-0.04004-0.27002-0.07001-0.41003-0.10003c-0.19-0.03998-0.37994-0.07995-0.57996-0.10998
	c-0.12-0.02002-0.25-0.04998-0.37-0.07c-0.04004-0.01001-0.08002-0.01001-0.12-0.02002
	c-0.57001-0.08996-1.55005-0.14996-1.55005-0.14996C4.54999,46.95933,4.06,46.97929,3.59003,46.88933
	C3.25,46.82933,2.94,46.71929,2.67999,46.44934c0.35999-0.15002,0.72003-0.16003,1.07001-0.23003
	c0.70001-0.13995,1.39001-0.34996,2.07001-0.57993c0.04999-0.02002,0.10999-0.03003,0.10999-0.11004
	c0-0.05999-0.04999-0.07995-0.08997-0.09997c-0.85004-0.42997-1.73004-0.57999-2.64001-0.23998
	c-0.38,0.14001-0.67999,0.40995-0.79999,0.81997C2.37,46.09932,2.34998,46.21931,2.22998,46.21931
	c-0.20996,0-0.40997,0.09002-0.60999,0.09002c-0.44,0.01001-0.88,0.08001-1.33002,0.05999c-0.06,0-0.12,0.02002-0.19,0.03997
	c-0.06,0.03003-0.11993,0.07001-0.08997,0.15002c0.02997,0.07,0.08997,0.09997,0.15997,0.08001
	c0.19-0.06,0.38-0.03003,0.57001-0.04004c0.41998-0.03997,0.85004-0.02997,1.27002-0.11999
	c0.14001-0.02997,0.33002-0.08996,0.44,0.05999c0.38,0.48997,0.95001,0.57999,1.5,0.63998
	c0.58002,0.07,1.38,0.05999,1.83002,0.11999c0.17999,0.02002,0.35999,0.03998,0.54999,0.06
	c0.40997,0.05999,0.81,0.11999,1.20996,0.21001c0.48004,0.10998,0.96002,0.2,1.40002,0.41996
	c0.15002,0.08001,0.27997,0.16998,0.15997,0.36998C9.08002,48.38926,9.04999,48.44925,9.12,48.49924
	c0.08002-0.02002,0.12-0.09002,0.22998-0.06c0.90002,0.31999,1.84003,0.23998,2.75,0.14001
	c0.52002-0.05005,1.05005-0.09002,1.57001-0.18999c0.37-0.07,0.75-0.03003,1.12-0.11999c0.07001-0.02002,0.12-0.05005,0.15002-0.13
	c0.08002-0.22002,0.12-0.46,0.12-0.69998c0.02002-0.63998-0.02997-1.26996-0.12-1.89994
	c-0.16998-1.24994-0.02002-2.49988,0.27002-3.7198c0.20996-0.82998,0.32996-1.67991,0.44995-2.52991
	c0.06-0.48997,0.07001-0.98994,0.12006-1.48992c0.07996-0.70999,0.06995-1.41992,0.12994-2.13992
	c0.05005-0.59995,0.03003-1.2099,0.01001-1.82987c-0.01996-0.48002-0.17999-0.92-0.57996-1.22998
	c-0.21002-0.15997-0.20001-0.30999-0.11005-0.51994c0.02002-0.03003,0.04004-0.07,0.04004-0.11004
	c0.01001-0.21996,0.13-0.28996,0.32996-0.26995c0.23004,0,0.30005-0.07,0.32001-0.30998c0.01001-0.13,0.01001-0.26,0.02002-0.39
	c0.09998-0.73996,0.14001-1.47991,0.23999-2.21993c0.06-0.45994,0.06-0.92995,0.12-1.3999
	c0.07001-0.55997,0.09003-1.12995,0.13-1.69993c0.06-0.78994,0.10004-1.57994,0.07001-2.36988
	c-0.02002-0.26,0.04999-0.48997,0.20001-0.68997c0.03998-0.04998,0.03998-0.15002,0.10999-0.15002
	c0.08002,0,0.08002,0.10003,0.10999,0.15002c0.04999,0.10998,0.10004,0.21996,0.16003,0.33
	c0.44,0.78994,0.76996,1.61992,0.82001,2.52985c0.04999,0.79,0.06,1.57994-0.09003,2.34993
	c-0.09998,0.51993-0.15997,1.02992-0.25,1.53991c-0.06,0.37999-0.10999,0.74996-0.17999,1.10993
	C17.27002,31.03003,17.12,31.57004,17.06,32.12c-0.08002,0.75997-0.29999,1.48992-0.51001,2.21986
	c-0.09998,0.40001-0.25,0.79-0.20996,1.20996c0.00995,0.14001,0.02997,0.26,0.14996,0.34996
	c0.10004,0.07,0.14001,0.18005,0.15002,0.29002c0.01996,0.27001,0.07996,0.53996,0.07996,0.79995
	c0,1.36993,0.07001,2.73986-0.03998,4.09978c-0.08997,1.06996-0.08997,2.13992-0.14001,3.20987
	c-0.03998,0.72995-0.00995,1.45995-0.00995,2.19991c0,0.10998-0.01001,0.18999-0.18005,0.18999
	c-0.19-0.02002-0.31,0.10998-0.38995,0.27996c-0.17999,0.40001-0.06,0.77999,0.06,1.15998
	c0.01996,0.06,0.03998,0.15997,0.12,0.16998c0.07996,0,0.12-0.08996,0.14996-0.15002
	c0.16003-0.24999,0.28003-0.50993,0.34003-0.80996c0.01001-0.07995,0.02997-0.15997,0.08997-0.17999
	c0.08002-0.02996,0.12006,0.05999,0.17004,0.11004c0.19,0.18999,0.29999,0.43998,0.39996,0.68997
	c0.28003,0.71994,0.82001,1.11995,1.54004,1.34991c0.44,0.13,0.88995,0.2,1.34998,0.27995
	c0.70001,0.11004,1.37,0.07,2.03998-0.09997c0.71002-0.16997,1.38-0.46,2-0.83998c0,0,0.17004-0.08996,0.41003-0.25994
	c0.03998-0.03003,0.08002-0.07,0.13-0.08001c0,0,0,0,0.01001,0c0.10999-0.08001,0.25-0.17999,0.38995-0.28002
	c0.19-0.14996,0.37006-0.29997,0.55005-0.45994c0.01996-0.02002,0.02997-0.04004,0.04999-0.04998
	c1.22998-1.07997,2.21997-2.33992,2.76001-3.95984c0.13,0.46995,0.28998,0.90993,0.56,1.31994
	c0.48999,0.71994,1.12,1.30994,1.83997,1.80991c0.62,0.41996,1.28003,0.76998,1.97003,1.03993
	c0.62,0.23003,1.26001,0.41002,1.89996,0.55997c0.76001,0.17004,1.52002,0.24999,2.27002,0.30998
	c0.65997,0.04999,1.29999-0.01995,1.95001-0.11999c0,0,0.01001,0,0.02997-0.01001c0.15002-0.02997,0.67004-0.14996,0.98004-0.32994
	c0.04999-0.02002,0.08997-0.05005,0.13-0.08001c0.13995-0.15002,0.19-0.33,0.16998-0.53995
	c-0.03003-0.30004-0.04999-0.61002-0.08002-0.90999c-0.06-0.74997-0.06-1.50994-0.13-2.26991
	c-0.06-0.71994-0.07001-1.43993-0.12-2.15987c-0.06-0.86996-0.08002-1.7299-0.14001-2.59985
	c-0.03998-0.56998-0.04999-1.13996-0.07996-1.70994c-0.03003-0.59-0.21002-1.17994,0.01996-1.76994
	C39.81,36.04981,39.81,35.99982,39.81,35.94984c0-0.53-0.04999-1.05-0.14001-1.56993c-0.06-0.41002-0.17999-0.81997-0.20996-1.22998
	c-0.05005-0.78994-0.07001-1.57988-0.14001-2.36988c-0.06-0.72995,0.07001-1.4699,0.08002-2.19985
	c0.00995-0.61002,0.06-1.21997,0.09998-1.81992c0.03998-0.53,0.09998-1.03999,0.15002-1.55992c0,0,0-0.02002,0-0.05005
	c0-0.04999,0.00995-0.13995,0.01996-0.25994c0.01001-0.11004,0.03003-0.24004,0.03003-0.35002
	c0-0.03998,0.01001-0.07,0.01001-0.10998c0.03998-0.53,0.13-1.28992,0.26996-2.0599c0.01001-0.03003,0.01001-0.07,0.02002-0.09997
	c0.09003-0.33,0.15997-0.63998,0.23999-1.00996c0-0.01001,0.01001-0.02002,0.01001-0.02002
	c0-0.02002,0.01001-0.03998,0.02002-0.02002c0.13995-0.31999,0.08997,0.37999,0.13,0.95998
	c0.03998,0.57999,0.10999,0.61997,0.19995,2.39991c0.01001,0.18999,0.02002,0.39994,0.03003,0.61997
	c0.02997,0.37999,0.01001,0.75997,0.09998,1.1399c-0.02997-0.09997-0.06-0.17999-0.09998-0.26995
	c-0.03003-0.05999-0.06-0.11999-0.14001-0.11999c-0.08997,0.01001-0.12,0.07995-0.13,0.14996
	c-0.01001,0.09002-0.01996,0.17998-0.01996,0.26c0.01996,0.98994,0.03998,1.96994,0.10999,2.94987
	c0.07001,0.94997,0.06,1.90988,0.14001,2.85985c0.06995,0.88997,0.06,1.78996,0.12994,2.68988
	c0.07001,0.96999,0.08002,1.95993,0.12006,2.93987c0.06,1.47991,0.01996,2.94987,0.14996,4.42978
	c0.04004,0.48002,0,0.96999,0.07001,1.44994c0.09998,0.63998,0.09003,1.28992,0.16998,1.93991
	C41.31,46.18935,41.37,46.77929,41.44,47.34927c0.02997,0.18999,0.09998,0.33,0.34998,0.35002c0.69,0.07,1.38,0.04998,2.06,0.01995
	c0.43005-0.01995,0.86005-0.03997,1.28003,0.01001c0.40002,0.04004,0.79999,0.02002,1.19-0.03997
	c0.09998-0.01001,0.16998-0.04999,0.16998-0.16003c0.02002-0.32994,0.08002-0.64993,0.08002-0.96992
	c0.01001-0.46-0.06-0.89998-0.07001-1.34991c-0.03003-1.57994-0.04999-3.1699,0.08002-4.74977
	C46.62,39.82966,46.69,39.19968,46.72998,38.5597c0.06-0.74997,0.16003-1.48992,0.15002-2.23988
	c-0.01001-2.62988,0.02002-5.25976-0.12-7.88964c-0.07001-1.42993,0.02997-2.85985-0.13-4.28978
	c-0.06-0.59-0.10999-1.18995-0.16998-1.77995c-0.08002-0.68997-0.13-1.37994-0.22003-2.06991
	c-0.06-0.50999-0.08002-1.02992-0.13-1.54992c-0.07001-0.96992-0.14996-1.93991-0.26001-2.90984
	c-0.07996-0.69998-0.17999-1.40997-0.29999-2.09994c-0.12-0.66995-0.28998-1.32996-0.5-1.9899
	c-0.27997-0.87996-0.60999-1.7299-1.07001-2.5199C43.70001,8.7511,43.37,8.33114,42.95001,7.99113
	c-0.34003-0.27996-0.66998-0.57999-1.04999-0.82998c0.45996,0.16003,0.94,0.26,1.39996,0.36003
	C44.12,7.68115,44.89001,7.55115,45.47998,6.8812c0.11005-0.13,0.22003-0.15002,0.37-0.10003
	c0.51001,0.14001,1.03003,0.17004,1.56,0.22002c0.89001,0.05999,1.79004-0.02002,2.68005-0.10003
	c0.30383-0.0271,0.60382-0.0816,0.90601-0.12475l0.00323,0.00348c0.06458-0.0058,0.12805-0.01031,0.19299-0.01587
	c0.12042-0.01343,0.23846-0.04577,0.35834-0.06402c0.06927-0.0119,0.14044-0.01623,0.20941-0.02881
	c0.11993-0.02045,0.2359-0.04968,0.35431-0.07184c0.18787-0.03845,0.37622-0.06884,0.56293-0.11413
	c0.04523-0.01062,0.09155-0.01642,0.13672-0.02771c-0.00079-0.00244-0.00006-0.00525-0.00079-0.00769
	c0.33411-0.08343,0.66791-0.16936,0.99878-0.2603c0.54218-0.14867,1.0791-0.32683,1.60254-0.52299
	c0.39099-0.14172,0.77222-0.28166,1.1463-0.46098C56.62616,5.17345,56.73267,5.1441,56.67194,5.03314z M2.64001,46.01937
	c0.10999-0.30998,0.34998-0.49003,0.63-0.61002c0.39996-0.18999,0.82996-0.18999,1.25-0.13995
	c0.32001,0.02997,0.62,0.10998,0.96997,0.23998c-0.58002,0.2-1.12,0.32994-1.65997,0.45994
	c-0.35004,0.09002-0.71002,0.10003-1.06,0.2C2.64001,46.20937,2.59003,46.16933,2.64001,46.01937z M16.46002,47.1193
	c-0.08002,0.22997-0.11005,0.48997-0.26001,0.71994c-0.13-0.27996-0.13-0.54996,0-0.81991
	c0.03998-0.08001,0.10999-0.13,0.20996-0.08001C16.48999,46.96928,16.47998,47.04929,16.46002,47.1193z M32.65997,1.10144
	c0.36005,0.31999,0.63,0.72,0.89001,1.10999c0.40002,0.59995,0.98004,0.95992,1.57001,1.29993
	c0.19,0.09997,0.37,0.20995,0.54999,0.30998c0.15002,0.07995,0.13,0.14001,0,0.20995c-0.44,0.26-0.87,0.52-1.29999,0.77999
	c-0.17999,0.09997-0.16998,0.14001,0,0.27001c0.5,0.35997,0.98999,0.74996,1.39001,1.21991
	C35.94,6.51122,36.02002,6.73118,36.04999,7.0112c0.04999,0.63992-0.21997,1.19996-0.44,1.76988
	c-0.38,1.00996-0.82001,1.99991-1.26001,2.98991C34,12.56092,33.63,13.35086,33.28003,14.14087
	c-0.60004,1.28992-1.19,2.57983-1.79004,3.86981c-0.63,1.35992-1.27002,2.71984-1.90997,4.08977
	c-0.19,0.41002-0.37,0.83999-0.57001,1.25995c-0.02002,0.06-0.04004,0.11999-0.13,0.2
	c0.04999-0.28996,0.09998-0.53995,0.15002-0.79995c0.12-0.53,0.25-1.05995,0.37994-1.59996
	c0.19-0.85995,0.39001-1.71989,0.58002-2.58984c0.12-0.51999,0.22003-1.04994,0.33002-1.56993
	c0.14001-0.68997,0.29999-1.38995,0.45001-2.08993c0.10999-0.53995,0.20996-1.07991,0.31-1.62993
	c0.13-0.67996,0.26996-1.35992,0.38995-2.03988c0.10004-0.56998,0.20001-1.14997,0.30005-1.71989
	c0.12-0.74996,0.23999-1.49993,0.34998-2.23995c0.06-0.44993,0.09998-0.89992,0.16998-1.3399
	c0.02002-0.16003,0.04004-0.33,0.06-0.50999C32.38,5.08129,32.39001,4.73127,32.44,4.39132c0-0.01001,0-0.01001,0-0.01001
	c0.02002-0.24999,0.03998-0.48002,0.04999-0.67996V3.60132c0-0.11999,0-0.24999,0.02002-0.37999
	c0.04999-0.45994,0-0.92995-0.04999-1.37994c-0.02002-0.31993-0.06-0.66995-0.26001-0.98994
	C32.41998,0.88148,32.53003,1.00147,32.65997,1.10144z M24.06,1.04145c-0.01001-0.2,0.08002-0.30998,0.25-0.39994
	c0.37-0.17998,0.76001-0.27001,1.15997-0.28002c0.78003,0,1.56006,0.02002,2.33002,0
	c0.72003-0.03998,1.42999-0.14996,2.16003-0.14001c0.54999,0.02002,1.07001,0.11999,1.57996,0.33
	c0.13,0.04999,0.22003,0.10998,0.27002,0.26c0.09998,0.28996,0.21002,0.57999,0.32001,0.86995
	c0.04999,0.13,0.01001,0.17998-0.13,0.18999c-1.01001,0.07-2.02002,0.09002-3.09003,0.13
	c-1.06995-0.08001-2.20996,0-3.32996-0.05999c-0.47003-0.03003-0.95001-0.07-1.41003-0.21001
	c-0.09998-0.02997-0.14996-0.08001-0.13-0.2C24.07001,1.37145,24.07001,1.20147,24.06,1.04145z M23.92999,2.0414
	c0.03003-0.09997,0.08002-0.09997,0.16003-0.07995c1.25,0.30998,2.51996,0.21996,3.77997,0.22997
	c0.53003,0.01001,1.04999,0.07,1.58002,0.03998c0.52997-0.03998,1.06-0.01996,1.58002-0.05999
	c0.33997-0.02997,0.67999-0.05999,1.01996-0.07c0.15002-0.01001,0.21002,0.04004,0.21002,0.2
	C32.25,2.91135,32.28998,3.53132,32.23999,4.14134c-0.06,0.82992-0.14996,1.6699-0.26001,2.49988
	c-0.10999,0.86995-0.25,1.73991-0.38995,2.59985c-0.12006,0.74996-0.25,1.49993-0.39001,2.23989
	C31.02002,12.44093,30.81,13.3909,30.62,14.34081c-0.10999,0.59-0.21002,1.18-0.33002,1.75993
	c-0.15997,0.73001-0.32996,1.44994-0.48999,2.16994c-0.21997,1.05995-0.45001,2.11989-0.67999,3.16983
	c-0.08997,0.39-0.20001,0.76998-0.27997,1.14991c-0.14001-0.29997-0.23004-0.59995-0.34003-0.90993
	c-0.21002-0.54996-0.41998-1.09992-0.59998-1.6699c-0.17004-0.56998-0.34003-1.12995-0.49005-1.69993
	c-0.23999-0.84994-0.47998-1.68992-0.70996-2.53986c-0.15002-0.50999-0.28003-1.01997-0.42999-1.51995
	c-0.05005-0.22002-0.12-0.43998-0.17004-0.66C26.07001,13.48086,26.03003,13.36087,26,13.24088
	c-0.15002-0.59-0.31-1.17994-0.47998-1.76994c-0.01001-0.05999-0.02002-0.11999-0.01001-0.14996
	c-0.17999-0.70999-0.37-1.42993-0.5-1.95993c-0.02002-0.02997-0.03003-0.05999-0.04004-0.09997
	c-0.03998-0.17998-0.07996-0.35002-0.12-0.53c-0.00995-0.05999-0.01996-0.09997-0.02997-0.13
	C24.81,8.58113,24.81,8.57112,24.81,8.56111c-0.12-0.48997-0.23999-0.97993-0.34003-1.46996
	c-0.12-0.57993-0.21997-1.15992-0.32996-1.73991C23.98999,4.58132,23.87,3.80133,23.85999,3.01138
	C23.84998,2.69139,23.88,2.36139,23.92999,2.0414z M21.35999,3.42134C21.87,3.24135,22.19,2.86137,22.48999,2.4414
	c0.28003-0.36998,0.56-0.74996,0.89001-1.08998c0.08997-0.08996,0.16998-0.16997,0.32001-0.24999
	c-0.06,0.33,0.08002,0.61002,0.01001,0.92995c-0.17999,0.81997-0.07001,1.63994,0.04999,2.45991
	c0.08997,0.60996,0.20001,1.20996,0.32001,1.80991c0.13995,0.73996,0.31,1.45995,0.47998,2.1899l0.12,0.47001l0.89001,3.56978
	c0.09998,0.37999,0.21002,0.76998,0.31,1.14997c0.28998,1.02998,0.58002,2.07992,0.88,3.11985
	c0.14001,0.50998,0.27002,1.02998,0.40997,1.53991c0.32001,1.16999,0.67999,2.32991,1.13,3.45986
	c0.21002,0.53,0.46002,1.35992,0.27002,2.02993c-0.26001-0.49998-0.48999-0.95998-0.72998-1.42999
	c-0.82001-1.55993-1.64001-3.1298-2.45001-4.69973C24.62,16.21078,23.88,14.72079,23.12,13.24088
	c-0.56-1.07997-1.09998-2.16988-1.63-3.25986c-0.33002-0.68997-0.69-1.35992-0.91998-2.07992
	c-0.15002-0.48997-0.15002-0.9399,0.28998-1.30994c0.35004-0.30998,0.60999-0.69992,0.92004-1.0699
	c0.14996-0.18005,0.12994-0.22002-0.11005-0.30998C21.35999,5.10125,21.06,4.98126,20.75,4.87128
	c-0.10999-0.03998-0.14001-0.10998-0.10999-0.21001c0.10999-0.36998,0.21997-0.71994,0.45001-1.02992
	C21.15997,3.53132,21.25,3.46138,21.35999,3.42134z M14.13,6.51122c0.59998-0.36998,1.22998-0.70999,1.87-1.00996
	c0.54999-0.28002,1.13-0.49998,1.70001-0.72995c0.60999-0.26,1.22998-0.43003,1.83997-0.69998
	C19.01001,4.42129,18.51001,4.78126,18.06,5.22124c-0.46002,0.44999-0.82001,0.95998-1.10999,1.51995
	c-0.29004,0.55997-0.47003,1.15992-0.60004,1.77995c-0.13,0.60996-0.09998,1.23993-0.19995,1.8599
	c-0.28003-0.30998-0.41003-0.67996-0.58002-1.02998C15.20001,8.5511,14.87,7.72112,14.37,7.00119
	c-0.08002-0.10998-0.16998-0.21001-0.26001-0.29997C14.03998,6.6212,14.02002,6.58122,14.13,6.51122z M9.53998,25.84027
	C9.56,27.25023,9.65002,28.65013,9.60999,30.0601c-0.01001,0.41996-0.17999,0.80996-0.26996,1.21991
	C9.29999,31.43003,9.26001,31.57004,9.22998,31.72C9.19,29.75012,9.15002,27.78018,9.53998,25.84027z M9.56,31.44004
	c0.02002,0.59995-0.07001,1.18995-0.21997,1.75993C9.32001,32.59996,9.38,32.01002,9.56,31.44004z M15.22998,32.80997
	c0.32001,0.27996,0.42004,0.64999,0.46002,1.04994c0.02002,0.28002,0,0.56998,0,0.85995
	c0.01001,1.01997-0.09003,2.01992-0.15002,3.02988c-0.01996,0.50999-0.04999,1.02992-0.12,1.53991
	C15.31,40.19964,15.15997,41.10957,14.94,42.00955c-0.22003,0.89992-0.33002,1.82987-0.28998,2.76983
	c0.01996,0.50998,0.13995,1.00996,0.15997,1.51995c0.02002,0.51999,0.04999,1.03993-0.02997,1.55993
	c-0.01001,0.10003-0.07001,0.14001-0.16003,0.17998c-0.26001,0.10003-0.53998,0.06-0.81,0.10003
	c-0.91998,0.10998-1.83002,0.26995-2.76001,0.27996c-0.45996,0.01001-0.91998,0.01001-1.37-0.11999
	c-0.06-0.02002-0.14996-0.01001-0.16998-0.08996c0-0.07,0.07001-0.10003,0.13-0.14001c0.39001-0.31999,0.82001-0.57999,1.26001-0.85
	c0.46997-0.27995,0.94-0.58994,1.35999-0.95992c0.46997-0.42002,0.83997-0.92,0.98999-1.55992
	c0.16998-0.68997,0.21997-1.37994,0.26001-2.07992c0.02997-0.68997,0.07001-1.37994,0.17999-2.0599
	c0.04999-0.22997,0.02997-0.46,0.04999-0.69998c0.06-0.54996,0.13-1.11994,0.14001-1.67991
	c0.01001-0.62997,0.08002-1.26996,0.15997-1.89994c0.08002-0.68997,0.23004-1.36993,0.44-2.04989
	c0.13-0.44999,0.33002-0.87997,0.46002-1.3399C15,32.65995,15.04999,32.64994,15.22998,32.80997z M14.81,32.21002
	c-0.32001-0.2-0.67999-0.31004-0.97998-0.54001c0.38995,0.01001,0.76996,0.03003,1.15997,0.04004
	c0.06,0,0.09003,0.04999,0.07001,0.11999c-0.02997,0.10998-0.07001,0.22997-0.10999,0.33995
	C14.91998,32.25,14.85999,32.25,14.81,32.21002z M16.15002,25.8803c-0.04004,0.27995-0.02002,0.54996-0.04004,0.82998
	C16.07001,27.37022,16,28.03017,15.94,28.69017c-0.04999,0.54996-0.07001,1.10993-0.17999,1.64989
	c-0.04999,0.30998-0.04999,0.62003-0.07001,0.93001c0,0.11999-0.02002,0.20995-0.15997,0.18999
	C15.38,31.45005,15.44,31.34001,15.45001,31.27007c0.09998-0.47001,0.20001-0.93001,0.23999-1.40997
	c0.02002-0.27001,0.02997-0.52994,0.02002-0.79995c0-1.04994,0.07996-2.10989,0.09998-3.15989
	c0.01001-0.78994,0.16998-1.57988,0.46002-2.37983C16.27002,24.35035,16.26001,25.12033,16.15002,25.8803z M16.5,22.45047
	c-0.39001-1.57994-0.77002-3.12986-1.32001-4.62979c0.28998,0.35997,0.48999,0.77993,0.64001,1.2099
	c0.35999,0.99,0.58002,2.01992,0.88,3.01988C16.75,22.22044,16.60999,22.31046,16.5,22.45047z M16.71002,21.21054
	c-0.12-0.42002-0.23004-0.82998-0.35004-1.24994c-0.25-0.86001-0.51001-1.70994-1.08997-2.42994
	c-0.22003-0.25994-0.48999-0.44993-0.80005-0.59995c0.12006,0.24999,0.25,0.50998,0.38,0.76998
	c0.25,0.52994,0.42004,1.0799,0.59003,1.64989c0.21002,0.74996,0.41998,1.50994,0.63,2.26991
	c0.07001,0.28996,0.13,0.59,0.19,0.88997c0.07001,0.33995-0.09003,0.62997-0.20001,0.92995
	c-0.19,0.46995-0.29999,0.94997-0.37,1.44994c-0.19,1.35992-0.20001,2.71984-0.20001,4.08978
	c0,0.76998-0.09998,1.53997-0.27997,2.28993c-0.02002,0.10998-0.05005,0.19994-0.20001,0.19994
	c-0.47998,0-0.96002-0.00995-1.42999-0.10998c-0.04999-0.01001-0.12-0.02997-0.15002,0.03003
	C13.38,31.48002,13.39001,31.56003,13.44,31.64004c0.14001,0.22997,0.38,0.32994,0.59998,0.43998
	c0.22003,0.10998,0.44,0.22997,0.66003,0.32994c0.10999,0.05999,0.14001,0.13,0.08997,0.24999
	c-0.09998,0.27001-0.19,0.55997-0.28998,0.83999c-0.21997,0.54996-0.39001,1.11994-0.51001,1.70994
	c-0.12,0.63993-0.20996,1.27991-0.27002,1.9199c-0.04999,0.59995-0.03998,1.2099-0.12994,1.7999
	c-0.08002,0.59-0.05005,1.18995-0.18005,1.77995C13.35999,40.91957,13.38,41.1396,13.37,41.35956
	c-0.02002,0.49998-0.12,0.99995-0.10999,1.50994c0,0.60996-0.09003,1.21991-0.25,1.81992
	c-0.13,0.53995-0.45001,0.95992-0.84003,1.32995c-0.57001,0.52995-1.23999,0.90993-1.88,1.30994
	C10.04999,47.47926,9.81,47.64924,9.56,47.78925c0.14001-0.43998,0.15997-0.90993,0.21002-1.35992
	c0.04999-0.56998,0.07001-1.13996-0.02002-1.70994c-0.02002-0.09997-0.03003-0.19994-0.03003-0.29997
	c0-1.51995-0.00995-3.02983,0-4.53976c0.01001-0.74997-0.06995-1.46996-0.16998-2.20992
	c-0.08002-0.61996-0.13-1.23993-0.14001-1.87992c-0.00995-0.57993-0.12-1.15992-0.08997-1.74992
	c0.01001-0.11999,0.02002-0.21996,0.08002-0.32994c0.19995-0.36003,0.26996-0.75998,0.31995-1.15998
	c0.10004-0.77993,0.11005-1.54991,0.14001-2.33986c0.01001-0.33,0.16003-0.66,0.22003-1.00996
	c0.10999-0.55997,0.22998-1.11994,0.31-1.69993c0.07001-0.46,0.07001-0.89998,0.04999-1.35992
	c-0.01001-0.42002-0.10999-0.82998-0.62-0.93996c-0.09003-0.03003-0.09003-0.11999-0.10004-0.2
	c-0.04999-0.37999,0.08002-0.74997,0.10004-1.11994c0.02997-0.43998,0.09998-0.87996,0.15997-1.30993
	c0.11005-0.68997,0.23004-1.36993,0.32001-2.06991c0.06-0.44999,0.13-0.88997,0.19-1.32996
	c0.08002-0.53995,0.16998-1.07997,0.25-1.61992c0.09003-0.63998,0.17999-1.27991,0.29004-1.91989
	c0.10999-0.72,0.23999-1.43993,0.34998-2.14992c0.04999-0.28996,0.09998-0.57999,0.15002-0.86995
	c0,0,0.00995-0.02997,0.00995-0.09997c0.07001-0.47001,0.35004-2.3899,0.66003-3.15989
	C12.44,8.69111,12.71002,8.03111,13.12,7.45118c0.15002-0.18999,0.31-0.36998,0.47003-0.54001
	c0.12-0.11999,0.19995-0.08996,0.25995,0.05005c0.16003,0.42997,0.32001,0.84994,0.44,1.28992
	c0.19,0.71994,0.32001,1.44994,0.42999,2.17989c0.09003,0.74996,0.23004,1.49993,0.38,2.23988
	c0.19,0.92995,0.55005,1.7999,0.92004,2.67987c0.23999,0.57999,0.41998,1.16999,0.52997,1.7999
	C16.76001,18.49064,16.75,19.85056,16.71002,21.21054z M9.84003,25.46034C9.92999,25.4203,10,25.51033,10.03998,25.57032
	c0.11005,0.15997,0.17004,0.33995,0.17999,0.52994c0.04004,0.73001-0.04999,1.44994-0.19995,2.16994
	C9.96997,28.54015,9.94,28.81016,9.84998,29.06015c0.02002-1.13996-0.06995-2.26991-0.06-3.39987
	C9.79999,25.59028,9.75,25.49031,9.84003,25.46034z M17.09003,22.07049c0.10999-0.10998,0.15997,0.01996,0.21997,0.07995
	c0.27002,0.26,0.46002,0.57999,0.65997,0.89998c0.24005,0.37999,0.5,0.73995,0.68005,1.15998
	c0.02997,0.06994,0.06,0.14996,0.09998,0.22997l-0.03998,0.02002c-0.20001-0.24999-0.42004-0.49003-0.61005-0.74002
	c-0.33997-0.45994-0.69995-0.89992-1-1.37994C17.03003,22.24046,16.98999,22.16045,17.09003,22.07049z M17.03003,33.69994
	c0.06995-0.2,0.23999-0.2,0.39996-0.15002c0.29999,0.09002,0.60999,0.05999,0.91998,0.10998
	c1.23004,0.17998,2.46002,0.11999,3.69,0.13c0.36005,0.01001,0.39001,0.03003,0.35004,0.39
	c-0.07001,0.60996-0.17004,1.20996-0.28003,1.80991c-0.03998,0.16998-0.13,0.23998-0.29999,0.26
	c-0.27002,0.03997-0.56,0.04998-0.85999,0.04998c-0.53003,0.02002-1.07001-0.08996-1.60999-0.15997
	c-0.53003-0.05999-1.05005-0.15002-1.57001-0.15002c-0.26001,0-0.5-0.07-0.75-0.10998c-0.11005-0.01001-0.17004-0.07-0.19-0.18999
	c-0.02002-0.2-0.06-0.40001-0.08002-0.60001C16.70001,34.59986,16.87,34.14988,17.03003,33.69994z M28.46002,39.69966
	c-0.16003,0.85995-0.11005,1.73991-0.12,2.61987c-0.01001,0.26,0.07996,0.51993,0.02997,0.78994
	c-0.15997,0.80996-0.5,1.53991-0.96997,2.20992c-0.98004,1.41991-2.22003,2.57983-3.77002,3.37984
	c-0.60999,0.31999-1.25,0.53996-1.94,0.64993c-1.13,0.16003-2.21002-0.01001-3.25-0.44999
	c-0.44-0.17999-0.72003-0.52995-0.90002-0.95992c-0.17999-0.39-0.33997-0.77999-0.70996-1.04994
	c-0.08002-0.06-0.08002-0.15002-0.07001-0.24004c0.01001-0.32994,0.02997-0.66995,0.02997-1.0099
	c0-0.56998-0.07996-1.12995,0-1.68992C16.88,43.34945,16.83002,42.7395,16.87,42.13955
	c0.03998-0.90999,0.14001-1.81992,0.10999-2.73992c-0.01996-0.61997-0.01996-1.21991,0-1.82987
	c0.01001-0.43998-0.07996-0.87996-0.09998-1.31994c0-0.10998,0.02002-0.15002,0.14001-0.11999
	c0.53998,0.09997,1.08997,0.08996,1.63995,0.14996c0.54004,0.06,1.08002,0.17004,1.63,0.22002
	c0.61005,0.04998,1.23004,0.08996,1.82001-0.09002c0.14001-0.04999,0.19-0.10998,0.21002-0.24999
	c0.09998-0.71994,0.27002-1.41992,0.32001-2.14986c0-0.04004,0.01001-0.07,0.01996-0.09002
	c0.08002-0.27995,0.02002-0.34996-0.26996-0.34996c-0.72003-0.01001-1.45001,0-2.17004-0.02002
	c-0.43994,0-0.88995,0.01001-1.31995-0.05999c-0.55005-0.08001-1.10004-0.10998-1.64001-0.17999
	c-0.12-0.03003-0.13-0.09002-0.12-0.17999c0.04999-0.35002,0.09998-0.69998,0.15997-1.04994
	c0.07001-0.43003,0.16003-0.85,0.23999-1.27997c0.11005-0.56998,0.22003-1.15992,0.33002-1.73991
	c0.07001-0.46,0.14001-0.91994,0.19-1.38995c0.03003-0.24999,0.07001-0.50999,0.09003-0.76998
	c0.04999-0.46995,0.01996-0.9399-0.02002-1.40991c-0.06-0.61997-0.12-1.24994-0.45001-1.80991
	c-0.02002-0.03998-0.02997-0.08001-0.02997-0.13c0.65997,0.78994,1.31,1.57994,1.89996,2.41987
	c0.02002-0.00995,0.04004-0.01996,0.06-0.02997c-0.09998-0.26-0.20001-0.51999-0.29999-0.77999
	c-0.37-1.01991-0.90997-1.9299-1.52997-2.80987c-0.11005-0.15997-0.24005-0.29997-0.38-0.43998
	c-0.24005-0.22997-0.24005-0.22997-0.5-0.06c0.08997-0.18999,0.06995-0.38993,0.06995-0.58994
	c0-0.73001,0.03003-1.46996-0.00995-2.20992c-0.05005-1.06996-0.11005-2.14992-0.49005-3.16983
	c-0.20996-0.57999-0.44995-1.14997-0.67999-1.71995c-0.22998-0.58994-0.38995-1.2099-0.51996-1.84989
	C15.12,11.48096,15.01001,10.64103,14.87,9.80104c-0.14001-0.81997-0.32001-1.62993-0.60999-2.40986
	c-0.02002-0.04004-0.02002-0.09002-0.04999-0.21001c0.32001,0.44999,0.51996,0.86995,0.71997,1.30994
	c0.28998,0.63999,0.56,1.27997,0.90002,1.88993c0.04999,0.08996,0.09998,0.15997,0.17999,0.21996
	c0.13,0.10003,0.27997,0.07,0.33997-0.07995c0.04004-0.15002,0.11005-0.29003,0.10004-0.47001
	c-0.02002-0.58994,0.04999-1.17994,0.19-1.75993c0.21997-0.93996,0.62-1.78989,1.25-2.52985
	c0.76001-0.87996,1.70996-1.48992,2.73999-1.96994c0.01001-0.01001,0.02997-0.01001,0.06-0.01001
	c-0.01001,0.2-0.14001,0.36998-0.19,0.55997c-0.03998,0.14001-0.07001,0.28002-0.12,0.41001c-0.07001,0.2,0.02997,0.26,0.19,0.30998
	c0.28998,0.08996,0.57001,0.2,0.85999,0.29997c0.13,0.03998,0.10999,0.08001,0.03998,0.16997
	c-0.25995,0.31999-0.48999,0.64999-0.79999,0.92c-0.47998,0.42997-0.5,0.93996-0.32001,1.50994
	c0.33002,0.98994,0.83002,1.90988,1.29004,2.83983c0.57996,1.17994,1.16998,2.34986,1.76996,3.51985
	c0.58002,1.14991,1.18005,2.29988,1.78003,3.44985c0.47998,0.93996,0.96002,1.88986,1.45001,2.82982
	c0.54999,1.05995,1.07996,2.1199,1.64996,3.1699c0.27002,0.51993,0.23004,1.02992,0.01001,1.53991
	c-0.16998,0.40001-0.34998,0.79995-0.51996,1.18995c-0.04004,0.08001-0.04004,0.15997-0.02002,0.22997
	c0.09998,0.40001,0.08997,0.80996,0.10999,1.20996c0.03998,1.25995,0.07001,2.5199,0.04999,3.77979
	c0,0.13,0.03003,0.26,0.02002,0.39c-0.01001,0.2,0.08002,0.24999,0.26001,0.24999c0.33997-0.01001,0.66998,0,1.03998,0
	c-0.34998,0.09002-0.66998,0.10998-1,0.15002c-0.20001,0.02996-0.29999,0.09997-0.28998,0.32994
	c0.02997,0.63998,0.01001,1.29999,0.07001,1.94992c0.06,0.60995,0.04999,1.21997,0.12,1.83994
	c0.07001,0.56998,0.15997,1.13996,0.22998,1.70988C28.41998,38.78967,28.54999,39.23966,28.46002,39.69966z M29.65997,26.36026
	c-0.00995,0.11999-0.00995,0.23998-0.03998,0.35002c-0.09998,0.29997-0.32001,0.38994-0.67999,0.25994
	c-0.26001-0.09997-0.5-0.22997-0.75-0.33995c-0.10999-0.04004-0.10999-0.09002-0.03003-0.16997
	c0.26001-0.28002,0.56-0.52,0.94-0.62998c0.37-0.11004,0.55005,0.02997,0.55005,0.41996v0.10998H29.65997z M28.46997,37.32978
	c-0.06995-0.57999-0.13995-1.16999-0.15997-1.75993c-0.02997-0.79995-0.08002-1.59996-0.12-2.39991
	c0-0.07001,0.01001-0.13-0.01001-0.2c-0.01001-0.14996,0.03998-0.22997,0.20001-0.23998
	c0.46002-0.03997,0.91998-0.16998,1.38-0.02997c0.08002,0.02997,0.15997,0.03998,0.23999,0.09997
	c0.07001,0.04999,0.13,0.04999,0.19-0.02002c0.06-0.07995,0.02002-0.13-0.03998-0.17998
	C29.82001,32.32,29.46002,32.12,29.01001,32.12c-0.17999,0-0.37-0.01001-0.56,0c-0.21002,0.02002-0.28003-0.06-0.27002-0.26
	c0-0.61997,0.01001-1.21991,0-1.82993c-0.03998-0.97993-0.08997-1.94986-0.13-2.92986c0-0.26,0-0.26,0.23999-0.14996
	c0.22003,0.08996,0.42999,0.17998,0.65002,0.24999c0.42999,0.13995,0.78998,0.01001,0.89001-0.43998
	c0.07001-0.27001,0.09998-0.54996-0.01001-0.81997c-0.13-0.33-0.35004-0.43998-0.69-0.35997
	c-0.33002,0.06994-0.59998,0.24999-0.91003,0.46995c0.23004-0.47996,0.40002-0.91994,0.51001-1.37994
	c0.11005-0.52994,0.42004-0.97993,0.75-1.40991c0.58002-0.73996,1.20001-1.43994,1.86005-2.10995
	c0.88995-0.91994,1.60999-1.96988,2.23999-3.07981c0.34998-0.59,0.69-1.17994,0.95001-1.81992c0-0.01001,0-0.02002,0-0.02002
	c0.08997-0.14001,0.03998-0.36998,0.20996-0.43998c0.14001-0.04998,0.29999,0.08001,0.45001,0.13
	c0.60999,0.2,1.25,0.35002,1.90002,0.36998c0.42999,0.02002,0.84998-0.03998,1.25995-0.18999
	c0.09003-0.03998,0.18005-0.07995,0.31-0.13c-0.06,0.21001-0.09998,0.40001-0.14996,0.59
	c-0.33002,1.06996-0.70001,2.1299-1.09003,3.18985c-0.29999,0.80996-0.57001,1.62993-0.87,2.4499
	c-0.34998,0.94991-0.64996,1.91989-0.95996,2.88982c-0.16003,0.52-0.29004,1.03999-0.44,1.55993
	c-0.20001,0.80001-0.38,1.59996-0.52002,2.40992c-0.07001,0.39-0.12,0.79995-0.16998,1.18995
	C34.38,30.92005,34.32001,31.59,34.23999,32.25c-0.06,0.56998-0.13,1.13996-0.16998,1.71989
	c-0.06,0.70999-0.09003,1.44994-0.40002,2.08993c-0.27997,0.57999-0.64996,1.12995-1.17999,1.50994
	c-0.70996,0.52995-1.45001,1.00996-2.27002,1.34991c-0.41998,0.16998-0.85999,0.29997-1.31,0.36998
	c-0.13995,0.02002-0.19-0.02996-0.20996-0.17999C28.63,38.51973,28.54999,37.92973,28.46997,37.32978z M39.47998,36.8898
	c0,1.0099,0.10004,2.00985,0.15002,3.00981c0.02997,0.76998,0.06,1.54998,0.13,2.3199c0.06,0.74002,0.06,1.46996,0.12,2.20992
	c0.07001,0.73996,0.08002,1.47991,0.13,2.21986c0.02997,0.30004,0.04999,0.59,0.08002,0.87997
	c0.01996,0.25999-0.09003,0.37999-0.29004,0.48002c-0.33997,0.14996-0.69,0.22997-1.04999,0.26994
	c-0.48999,0.05005-0.98999,0.11999-1.48999,0.09002c-1.17999-0.07-2.35004-0.22997-3.47998-0.57999
	c-0.87006-0.26994-1.69-0.60995-2.45001-1.09992c-1.02002-0.66-1.91003-1.44994-2.40002-2.60986
	c-0.14996-0.35002-0.21002-0.73001-0.28998-1.09998c-0.04004-0.14996,0.06-0.28997,0.07001-0.43998
	c0.07996-0.89992,0.12-1.7999,0.03998-2.69989c-0.01001-0.20995,0.03003-0.30998,0.26001-0.33995
	c1.06-0.15002,1.97998-0.62998,2.84998-1.21997c0.42999-0.27996,0.89001-0.54996,1.22003-0.94991
	c0.29999-0.36003,0.57001-0.73001,0.77997-1.13996C33.88,36.13983,33.90002,36.1098,33.94,36.06983
	c0.06,0.39994,0.20001,0.50999,0.59998,0.53995c0.51001,0.03998,1.02002,0.03998,1.52002-0.02996
	c0.78998-0.10003,1.58002-0.11004,2.38-0.09002c0.27002,0,0.52997,0,0.78998-0.01001c0.16003-0.01001,0.22003,0.07,0.23004,0.2
	C39.46997,36.74979,39.47998,36.81979,39.47998,36.8898z M39.42999,35.98981c0.03003,0.21001-0.06,0.27001-0.26001,0.27001
	c-0.35999-0.01001-0.72998,0-0.98999,0c-0.70001-0.04999-1.28998-0.03003-1.87,0.05999
	c-0.58002,0.07995-1.15997,0.05999-1.75,0.04998c-0.29999,0-0.35999-0.08001-0.38-0.39
	c-0.03998-0.64993,0.10004-1.27991,0.13-1.91989c0-0.09997,0.07001-0.10998,0.15002-0.09997
	c0.94995,0.06994,1.89996,0.11999,2.85999,0.07995c0.58002-0.02997,1.16998-0.02997,1.76001-0.04998
	c0.14996,0,0.21997,0.03003,0.21997,0.21001C39.34003,34.79987,39.34003,35.38987,39.42999,35.98981z M40.34003,15.24079
	c-0.10004,0.87996-0.12006,1.75993-0.19,2.63989c-0.06,0.78994-0.04004,1.58989,0,2.3899
	c0.00995,0.20995-0.03003,0.41996-0.07001,0.61997C40,21.28048,39.91998,21.67048,39.81,22.05047
	c-0.01001,0.09002-0.03998,0.16998-0.06,0.24999c-0.14001,0.53995-0.41998,1.21997-0.62,1.6699
	c0,0.01001-0.01001,0.02002-0.01001,0.04004c-0.04999,0.14996-0.13,0.30998-0.21002,0.45994
	c-0.00995,0.01001-0.00995,0.02002-0.00995,0.02002c-0.05005,0.09002-0.11005,0.2-0.16003,0.28996
	c-0.48999,0.88997-0.89001,1.81992-1.12,2.80987c-0.12,0.53-0.17999,1.06996-0.15002,1.60997
	c0,0.07995-0.02997,0.15997,0.07001,0.26c0.48004-1.60997,0.84003-3.22989,1.89001-4.58981
	c0.01001,0.34996-0.08997,0.69998-0.09998,1.03993c-0.04999,0.85-0.15002,1.67991-0.16003,2.52991
	c-0.01996,0.79995-0.13,1.58989-0.07996,2.37989c0.06,0.80996,0.12,1.60991,0.13995,2.40986v0.05999
	c0.11005,0.49998,0.12,0.47001-0.37,0.47001c-0.88-0.01001-1.75,0.10998-2.63,0.04999c-0.56-0.03998-1.13995,0-1.69995-0.09002
	c-0.15002-0.02997-0.20001-0.07995-0.19-0.23998c0.03998-0.54996,0.10999-1.07997,0.16998-1.61992
	c0.08997-0.74997,0.14996-1.51995,0.26001-2.26991c0.04999-0.38993,0.10999-0.76992,0.20996-1.14991
	c0.15002-0.57999,0.23999-1.16993,0.40002-1.73991c0.22998-0.83999,0.46997-1.67991,0.75-2.50989
	c0.26001-0.80996,0.52997-1.61992,0.82001-2.41987c0.27997-0.79,0.58002-1.58995,0.84998-2.37989
	c0.29999-0.83999,0.58002-1.67991,0.85004-2.52991c0.12-0.39994,0.21997-0.81997,0.32996-1.22992
	c0.01001-0.04004,0.03003-0.08001-0.01001-0.11999c-0.04999-0.04998-0.08997,0-0.12994,0.03998
	c-0.73004,0.55997-1.55005,0.55997-2.41003,0.42997c-0.53998-0.08001-1.06-0.24999-1.57001-0.42997
	c-0.28998-0.08996-0.31-0.08001-0.40997,0.21001c-0.29004,0.85994-0.73004,1.64989-1.20001,2.41987
	c-0.28998,0.48997-0.59003,0.96992-0.90997,1.42992c-0.41003,0.60001-0.93005,1.09999-1.42004,1.62993
	c-0.44,0.47996-0.87,0.94997-1.26996,1.44995c-0.02002,0.02997-0.05005,0.04998-0.10004,0.05999
	c0.34003-0.75997,0.69-1.50994,1.04004-2.26991c0.41998-0.89992,0.83997-1.78989,1.25995-2.68988
	c0.46002-0.99995,0.92004-1.9899,1.38-2.98985c0.55005-1.21991,1.10004-2.43989,1.64001-3.6598
	c0.34003-0.75997,0.66998-1.52996,0.97998-2.30989c0.24005-0.61002,0.5-1.21997,0.42004-1.89993
	c-0.02002-0.2-0.07001-0.39-0.17004-0.54996C35.76001,5.84121,35.25,5.46128,34.76001,5.09124
	C34.62,4.98126,34.59998,4.93128,34.77002,4.83131c0.39996-0.22002,0.77997-0.44999,1.15997-0.68002
	c0.09003-0.05999,0.16003-0.05999,0.25,0.01001C37.03003,4.8213,38,5.31126,38.90002,5.9012
	c0.77997,0.50999,1.01996,1.26996,0.94995,2.15993c-0.03998,0.52-0.15997,1.00996-0.37,1.47991
	c-0.02997,0.05999-0.08997,0.13-0.02997,0.17999c0.07001,0.07,0.12-0.01996,0.17999-0.04999
	c0.27002-0.13,0.54999-0.26,0.82001-0.36998c0.09998-0.04998,0.21997-0.08001,0.33997-0.08001
	c0.14001,0,0.20001,0.05005,0.21002,0.2c0.01001,0.26-0.09003,0.47996-0.10999,0.72995
	c-0.04004,0.47001-0.12,0.93996-0.17004,1.41998C40.63,12.24093,40.57001,12.91088,40.5,13.59084
	C40.44,14.14087,40.40002,14.69083,40.34003,15.24079z M39.38,24.44037c-0.34003,0.56998-0.70001,1.12995-1.03003,1.71989
	c0.06-0.23998,0.17004-0.46995,0.29004-0.68997c0.20001-0.36998,0.39996-0.73996,0.58997-1.09992
	c0.05005-0.07,0.09003-0.17998,0.17999-0.11999C39.51001,24.30036,39.41998,24.38037,39.38,24.44037z M40.37,19.34057
	c0.03003-0.52994-0.04999-1.06989,0.04999-1.5999c0.07001-0.34996,0.03003-0.71994,0.04999-1.06996
	c0.03003-0.72995,0.10004-1.44994,0.17004-2.16988c0.04999-0.53995,0.06-1.07997,0.17999-1.60991
	c0.03998-0.22002,0.03998-0.46,0.06-0.68997c0.02002-0.46,0.10999-0.92,0.15002-1.37994c0.02997-0.46,0.13995-0.92,0.19995-1.37994
	c0.05005-0.30998-0.06-0.43998-0.38-0.43998c-0.27997,0-0.51996,0.10998-0.75995,0.21001
	C40.01001,9.24107,39.94,9.30107,39.87,9.24107c-0.06-0.04998,0.02002-0.10998,0.03998-0.16997
	c0.16003-0.61997,0.27002-1.24994,0.13-1.88993C39.89001,6.50121,39.5,5.99122,38.90002,5.62125
	c-0.71002-0.43998-1.44-0.83999-2.12-1.32995c0.38995,0.14001,0.72998,0.36998,1.07996,0.56998
	c0.90002,0.52,1.78003,1.07997,2.62,1.69993c0.45001,0.33,0.86005,0.67996,1.11005,1.18995
	C41.73999,8.0911,41.81,8.44112,41.82001,8.80109c0.02997,0.50999-0.03003,1.00996-0.06,1.50994
	c-0.06,0.83993-0.15002,1.6599-0.26001,2.47986c-0.09998,0.70999-0.16998,1.42993-0.27002,2.13991
	C41.13,15.74077,41,16.54072,40.79999,17.33072c-0.13,0.52994-0.22998,1.05995-0.32001,1.58989
	C40.45001,19.06062,40.37,19.19062,40.37,19.34057z M42.10999,7.61114C43.12,8.2811,43.81,9.2011,44.28003,10.31103
	c0.32996,0.77993,0.59998,1.58989,0.81,2.41987c0.16998,0.68997,0.29999,1.39996,0.38995,2.10989
	c0.11005,0.79,0.19,1.57994,0.27002,2.36995c0.06,0.50992,0.08002,1.01991,0.12,1.5299
	c0.09003,0.97993,0.16003,1.95993,0.27002,2.92986c0.08997,0.81997,0.16998,1.64995,0.26001,2.46992
	c0.15997,1.5299,0.06,3.05985,0.13,4.57974c0.10999,2.34993,0.12,4.69979,0.12,7.04972
	c0.00995,0.64993,0.02997,1.29993-0.07001,1.9299c-0.09003,0.56998-0.06,1.14991-0.17999,1.69987
	c-0.05005,0.28001-0.02002,0.56998-0.04004,0.84999c-0.14001,1.73991-0.13,3.49984-0.07996,5.24976
	c0.00995,0.36998,0.03998,0.74996,0.04999,1.11994c0.01001,0.24999-0.06,0.46995-0.07001,0.70999
	c-0.01001,0.10998-0.08002,0.13-0.16003,0.14996c-0.28998,0.04999-0.58997,0.04999-0.88995,0.02002
	c-0.51001-0.05999-1.02002-0.03998-1.54004-0.01001c-0.57996,0.03003-1.16998,0.04999-1.75-0.01001
	c-0.17999-0.01996-0.23999-0.08996-0.26996-0.26994c-0.11005-0.89998-0.21002-1.80997-0.28003-2.7099
	c-0.06-0.72995-0.08997-1.45995-0.15002-2.17989c-0.10999-1.55993-0.09998-3.10984-0.14996-4.65982
	c-0.03003-1.01991-0.06-2.04989-0.12-3.05985C40.88,33.72991,40.88,32.84995,40.82001,31.99
	c-0.07001-0.89998-0.06-1.80991-0.14001-2.70989c-0.06-0.71994-0.01001-1.44988-0.09998-2.16988
	c-0.01001-0.08996,0-0.17999,0-0.28996c0.07996,0.09997,0.09998,0.27995,0.26001,0.22997c0.12994-0.03998,0.12-0.18999,0.12-0.31999
	c0-0.21996-0.01001-0.43998-0.03003-0.65994c0-0.01001,0-0.01001,0-0.02002c-0.08997-0.93996-0.25-2.71984-0.35999-3.80982
	c0-0.09002,0-0.16998-0.02002-0.24999c0-0.09002-0.01001-0.16998-0.01996-0.24999c-0.02002-0.35997-0.06006-0.71994-0.09003-1.06996
	c-0.03998-0.50998,0.13-0.97993,0.21002-1.4699c0.06-0.37999,0.14996-0.74997,0.22998-1.11994
	c0.10999-0.48002,0.21997-0.94997,0.32001-1.43993c0.08002-0.40001,0.14001-0.80996,0.20001-1.20997
	c0.08997-0.65994,0.15997-1.30994,0.23999-1.96988C41.69,12.9909,41.73999,12.52095,41.81,12.06095
	c0.08002-0.51999,0.12-1.03993,0.16998-1.56993C42.03998,9.77108,42.13,9.04107,42,8.33114
	c-0.07001-0.39-0.16998-0.75997-0.45001-1.06996C41.76001,7.34114,41.92999,7.49115,42.10999,7.61114z M45.60999,6.2312
	C45.59998,6.40118,45.52002,6.46123,45.37,6.38122c-0.21997-0.10998-0.44-0.21001-0.62-0.39
	c-0.26001-0.24999-0.31-0.55997-0.25-0.88997c0.03003-0.17998,0.21002-0.23998,0.41998-0.13c0.36005,0.2,0.62,0.49003,0.69,0.92
	V6.2312z"/>
</svg>
