<?xml version="1.0" encoding="utf-8"?>
<!-- Generator: Adobe Illustrator 23.1.1, SVG Export Plug-In . SVG Version: 6.00 Build 0)  -->
<!DOCTYPE svg PUBLIC "-//W3C//DTD SVG 1.1//EN" "http://www.w3.org/Graphics/SVG/1.1/DTD/svg11.dtd" [
	<!ENTITY ns_extend "http://ns.adobe.com/Extensibility/1.0/">
	<!ENTITY ns_ai "http://ns.adobe.com/AdobeIllustrator/10.0/">
	<!ENTITY ns_graphs "http://ns.adobe.com/Graphs/1.0/">
	<!ENTITY ns_vars "http://ns.adobe.com/Variables/1.0/">
	<!ENTITY ns_imrep "http://ns.adobe.com/ImageReplacement/1.0/">
	<!ENTITY ns_sfw "http://ns.adobe.com/SaveForWeb/1.0/">
	<!ENTITY ns_custom "http://ns.adobe.com/GenericCustomNamespace/1.0/">
	<!ENTITY ns_adobe_xpath "http://ns.adobe.com/XPath/1.0/">
]>
<svg version="1.1" id="Слой_1" xmlns:x="&ns_extend;" xmlns:i="&ns_ai;" xmlns:graph="&ns_graphs;"
	 xmlns="http://www.w3.org/2000/svg" xmlns:xlink="http://www.w3.org/1999/xlink" x="0px" y="0px" viewBox="0 0 56.69 49.64882"
	 style="enable-background:new 0 0 56.69 49.64882;" xml:space="preserve">
<style type="text/css">
	.st0{stroke:#201600;stroke-width:0.05;stroke-linecap:round;stroke-linejoin:round;stroke-miterlimit:10;}
</style>
<metadata>
	<sfw  xmlns="&ns_sfw;">
		<slices></slices>
		<sliceSourceBounds  bottomLeftOrigin="true" height="49.6488" width="41.03729" x="7.82635" y="0.00002"></sliceSourceBounds>
	</sfw>
</metadata>
<path class="st0" d="M31.31025,21.46404c-0.01856-0.00338-0.02798,0.00831-0.03914,0.01628
	c-0.58899,0.42077-1.24716,0.64207-1.96817,0.67997c-0.145,0.00762-0.28962-0.0111-0.43443-0.01723
	c-0.17657-0.00747-0.22775,0.03714-0.23488,0.21519c-0.00298,0.07446,0.00088,0.14995,0.00973,0.224
	c0.04497,0.37643,0.09303,0.75249,0.13839,1.12887c0.00325,0.02695,0.0237,0.0719-0.01109,0.07926
	c-0.02852,0.00603-0.03495-0.04189-0.04492-0.06929c-0.06601-0.18139-0.09373-0.37176-0.12634-0.5605
	c-0.0462-0.2674-0.09022-0.53547-0.08823-0.80831c0.00041-0.0565,0.00791-0.1121,0.02723-0.16541
	c0.03092-0.08534,0.08955-0.14023,0.1787-0.16255c0.13618-0.0341,0.27469-0.01871,0.41229-0.02058
	c0.72391-0.00986,1.3844-0.22471,1.99055-0.61494c0.06493-0.0418,0.12522-0.09058,0.17734-0.14817
	c0.03206-0.03542,0.06818-0.06042,0.11688-0.03992c0.04547,0.01914,0.05227,0.06166,0.05411,0.10558
	c0.01188,0.2828,0.01919,0.5659,0.03732,0.8483c0.02908,0.45281,0.14291,0.89127,0.24038,1.33206
	c0.13391,0.60555,0.2642,1.21184,0.38301,1.82052c0.01284,0.06578,0.04299,0.08111,0.10167,0.06636
	c0.51085-0.12839,1.03374-0.16773,1.55628-0.20904c0.12301-0.00973,0.12308-0.00784,0.1049-0.13275
	c-0.20464-1.4064-0.35316-2.81878-0.45083-4.23657c-0.02508-0.36403-0.05619-0.7278-0.04436-1.09329
	c0.00098-0.03025,0.00461-0.06074,0.01044-0.09044c0.00718-0.03659,0.02457-0.06672,0.0671-0.07004
	c0.04332-0.00338,0.0644,0.02534,0.07523,0.06049c0.01443,0.04686,0.02677,0.0947,0.03552,0.14293
	c0.10165,0.56019,0.15662,1.12613,0.2074,1.69258c0.04031,0.44971,0.08203,0.89929,0.12026,1.34917
	c0.03347,0.39388,0.06058,0.78831,0.09501,1.1821c0.02522,0.2885,0.03109,0.58047,0.12394,0.85906
	c0.05442,0.16328,0.12508,0.21482,0.29493,0.21377c0.22316-0.00138,0.44175-0.04677,0.66133-0.07956
	c0.30547-0.04561,0.60973-0.09926,0.915-0.1463c0.05053-0.00778,0.06454-0.02206,0.05868-0.07509
	c-0.03071-0.27803-0.10954-0.54538-0.17427-0.8159c-0.08216-0.34337-0.16529-0.68651-0.24537-1.03037
	c-0.08804-0.37806-0.17602-0.75617-0.25854-1.13546c-0.07056-0.32429-0.15131-0.64787-0.14251-0.98367
	c0.00655-0.25023,0.09783-0.35662,0.34719-0.39456c0.14087-0.02143,0.28366-0.0314,0.42591-0.04223
	c0.27395-0.02086,0.54134-0.08009,0.80931-0.13544c0.38932-0.08041,0.77494-0.17846,1.16703-0.24571
	c0.09929-0.01703,0.19961-0.02888,0.30032-0.01828c0.09161,0.00965,0.11794,0.04631,0.12323,0.13771
	c0.01396,0.2414,0.07048,0.47645,0.11193,0.71371c0.04832,0.27656,0.11098,0.55055,0.14907,0.82895
	c0.0038,0.02781,0.0075,0.05572,0.00933,0.0837c0.00288,0.04398-0.01041,0.08051-0.05816,0.09056
	c-0.04855,0.01021-0.07581-0.01997-0.08884-0.06091c-0.0312-0.098-0.0596-0.1969-0.08866-0.29557
	c-0.08057-0.27354-0.14711-0.5514-0.25115-0.81769c-0.01614-0.04131-0.03586-0.08125-0.05464-0.12149
	c-0.05191-0.11122-0.14186-0.16957-0.2608-0.18966c-0.12831-0.02168-0.25729-0.0154-0.38488-0.00249
	c-0.49922,0.05051-0.98936,0.15252-1.47411,0.27896c-0.29118,0.07595-0.36217,0.18997-0.34406,0.49439
	c0.01963,0.33006,0.07046,0.65626,0.12301,0.98176c0.14175,0.878,0.26847,1.75818,0.3925,2.63877
	c0.00989,0.07021,0.02929,0.08716,0.09984,0.07558c0.28401-0.04662,0.56903-0.08714,0.85382-0.12891
	c0.04385-0.00643,0.08842-0.0086,0.13276-0.01095c0.0378-0.00201,0.07233,0.00674,0.07994,0.05059
	c0.00817,0.04711-0.02346,0.06841-0.06219,0.07921c-0.07654,0.02133-0.15335,0.04192-0.23067,0.06014
	c-0.24822,0.05849-0.49833,0.10845-0.74975,0.15036c-0.07374,0.01229-0.08024,0.04186-0.071,0.10662
	c0.07173,0.50275,0.13753,1.00635,0.20966,1.50904c0.10411,0.72559,0.15421,1.45669,0.22807,2.18536
	c0.01724,0.17004,0.04106,0.33879,0.08639,0.5044c0.05282,0.19299,0.1784,0.30029,0.37198,0.33583
	c0.18332,0.03365,0.36818,0.03053,0.55267,0.02105c0.54019-0.02777,1.07834-0.07627,1.61147-0.17131
	c0.22763-0.04058,0.24468-0.06045,0.2438-0.2905c-0.00149-0.38916-0.06644-0.77396-0.08302-1.16153
	c-0.0132-0.3084-0.0593-0.61347-0.07027-0.9215c-0.00066-0.01859,0.001-0.03736,0.00298-0.0559
	c0.00349-0.03274,0.01617-0.06097,0.05278-0.06444c0.04103-0.0039,0.05647,0.02448,0.06472,0.05954
	c0.04245,0.18053,0.0594,0.36467,0.07906,0.54849c0.04831,0.45157,0.06816,0.90489,0.08541,1.35841
	c0.00531,0.13983,0.03212,0.27819,0.00969,0.41982c-0.02089,0.13185-0.0898,0.21095-0.21707,0.24435
	c-0.24079,0.06318-0.48729,0.09248-0.7335,0.12186c-0.45786,0.05463-0.91649,0.10124-1.37869,0.0913
	c-0.04667-0.001-0.09341-0.00497-0.13984-0.01007c-0.38271-0.04201-0.56887-0.21307-0.64254-0.5914
	c-0.0614-0.31533-0.08945-0.63492-0.11439-0.95453c-0.06358-0.81467-0.16368-1.62514-0.27241-2.43472
	c-0.03083-0.2296-0.05751-0.4598-0.08264-0.6901c-0.00561-0.05142-0.02094-0.05912-0.07323-0.05878
	c-0.56818,0.00375-1.12455,0.1261-1.68914,0.1642c-0.13264,0.00895-0.13125,0.00945-0.09583,0.133
	c0.10968,0.3826,0.19075,0.77182,0.26561,1.16238c0.12594,0.65714,0.24135,1.31624,0.37516,1.97194
	c0.11039,0.54092,0.22509,1.08149,0.28115,1.63183c0.02252,0.22104,0.04063,0.4426,0.02074,0.66513
	c-0.00376,0.04207-0.00965,0.08395-0.02713,0.12279c-0.03525,0.07835-0.11504,0.08859-0.16656,0.01945
	c-0.04844-0.06502-0.06784-0.14326-0.08851-0.22001c-0.07002-0.25991-0.12017-0.52436-0.17411-0.78778
	c-0.15634-0.76338-0.30006-1.52919-0.4263-2.29817c-0.11828-0.7205-0.23475-1.44131-0.35007-2.16229
	c-0.00864-0.05399-0.02454-0.06983-0.08035-0.05723c-0.30363,0.06853-0.61165,0.11449-0.91705,0.17347
	c-0.19645,0.03794-0.37571,0.1286-0.53289,0.2561c-0.11018,0.08937-0.15494,0.20665-0.14524,0.34754
	c0.01537,0.22312,0.07058,0.43879,0.12442,0.65418c0.11284,0.4514,0.22573,0.90292,0.3485,1.35168
	c0.18878,0.6901,0.38122,1.37949,0.66826,2.03748c0.0296,0.06784,0.05388,0.13959,0.11245,0.19187
	c0.02292,0.02046,0.02167,0.05346-0.00779,0.06385c-0.06725,0.02373-0.11909,0.07339-0.18439,0.1001
	c-0.06655,0.02723-0.1314,0.03199-0.19748,0.00376c-0.11113-0.04748-0.21799-0.05086-0.33952-0.0187
	c-0.46342,0.12264-0.9355,0.2103-1.39883,0.33419c-0.32302,0.08638-0.64524,0.1758-0.96786,0.26369
	c-0.02028,0.00553-0.04079,0.01085-0.06153,0.01397c-0.15509,0.02334-0.2437-0.05014-0.2319-0.2066
	c0.01652-0.21907,0.04264-0.43746,0.06683-0.65591c0.01658-0.14971,0.01357-0.2978-0.00854-0.4473
	c-0.05887-0.39818-0.10997-0.79742-0.13492-1.19949c-0.00173-0.0279-0.00133-0.05601-0.00058-0.08398
	c0.00109-0.04043,0.0129-0.07673,0.05847-0.08356c0.04601-0.0069,0.06805,0.02644,0.0808,0.06336
	c0.03677,0.10649,0.05711,0.21713,0.07503,0.32792c0.06821,0.42171,0.09254,0.84597,0.06941,1.2727
	c-0.0041,0.07558,0.00681,0.14981,0.02242,0.22286c0.02229,0.10434,0.06605,0.14236,0.17178,0.15487
	c0.07915,0.00937,0.15904,0.00938,0.23812,0.00096c0.36762-0.03917,0.73522-0.07863,1.10251-0.12071
	c0.29612-0.03392,0.59238-0.04099,0.88932-0.0157c0.03064,0.00261,0.06063,0.00372,0.0906-0.0035
	c0.13133-0.03167,0.17091-0.08518,0.14171-0.21573c-0.05209-0.23294-0.13097-0.45855-0.1996-0.68691
	c-0.19116-0.63606-0.37579-1.27396-0.54969-1.91497c-0.09919-0.36564-0.20017-0.73081-0.28169-1.1009
	c-0.03371-0.15302-0.06816-0.30632-0.07994-0.46305c-0.00315-0.04194-0.01576-0.06189-0.05953-0.06816
	c-0.16671-0.02387-0.33364-0.04483-0.50129-0.06134c-0.10833-0.01067-0.20884,0.02354-0.31095,0.0456
	c-0.59434,0.1284-1.18711,0.2642-1.78223,0.38888c-0.4189,0.08776-0.83861,0.17337-1.26336,0.22959
	c-0.07869,0.01042-0.15847,0.01469-0.23788,0.01683c-0.04419,0.00119-0.09597-0.00215-0.10204-0.06162
	c-0.00568-0.05561,0.04098-0.06279,0.08226-0.07688c0.23011-0.07852,0.45893-0.16086,0.68906-0.23932
	c0.69138-0.23572,1.39688-0.4056,2.12868-0.45028c0.19381-0.01184,0.38791-0.02102,0.58205-0.01328
	c0.12278,0.00489,0.24156-0.00878,0.36073-0.0396c0.15162-0.03921,0.30527-0.07122,0.45909-0.10094
	c0.06188-0.01195,0.07813-0.03435,0.06308-0.09719c-0.07416-0.30945-0.14341-0.62008-0.21554-0.93002
	c-0.13473-0.57891-0.26781-1.15803-0.37147-1.74371c-0.07289-0.41186-0.09855-0.82659-0.10411-1.24354
	c-0.00047-0.03507-0.0027-0.07012-0.0048-0.10514C31.31519,21.4807,31.31202,21.47199,31.31025,21.46404z M33.0885,30.46669
	c0.10501,0.05572,0.203,0.08211,0.30777,0.00921c0.04248-0.02955,0.05399-0.04901,0.02958-0.09921
	c-0.30891-0.63531-0.51842-1.30657-0.71074-1.98374c-0.11749-0.41368-0.22208-0.83084-0.31851-1.24985
	c-0.06759-0.29371-0.14386-0.58575-0.18218-0.88578c-0.02813-0.22031,0.04188-0.3952,0.22374-0.52425
	c0.02529-0.01795,0.04971-0.03712,0.09039-0.06761c-0.08398,0.01134-0.1461,0.02305-0.20873,0.02736
	c-0.08291,0.00571-0.14079,0.02919-0.14435,0.12788c-0.00143,0.03981-0.02689,0.07895-0.04246,0.11798
	c-0.01409,0.0353-0.03957,0.06012-0.07851,0.06056c-0.04723,0.00054-0.04327,0.02691-0.03952,0.0603
	c0.01308,0.11655,0.03818,0.231,0.06645,0.34421c0.19202,0.76878,0.42217,1.52699,0.63932,2.28878
	c0.13004,0.45621,0.2688,0.90993,0.39974,1.36588C33.16016,30.19653,33.21308,30.34018,33.0885,30.46669z M35.05374,30.77586
	c0.00702-0.00072,0.01404-0.00144,0.02106-0.00216c0.00199-0.02284,0.00527-0.04566,0.00575-0.06853
	c0.00372-0.17568-0.0098-0.35059-0.02938-0.52484c-0.05937-0.52837-0.16974-1.04781-0.27906-1.56733
	c-0.16086-0.76447-0.28717-1.53555-0.44093-2.30135c-0.05236-0.26079-0.10603-0.52148-0.18261-0.77674
	C34.40181,27.29049,34.69293,29.03931,35.05374,30.77586z M30.32896,30.53717c-0.01867,0.16106-0.04336,0.30838-0.04762,0.45807
	c-0.00145,0.0511,0.01845,0.0763,0.07162,0.06356c0.05902-0.01413,0.11851-0.02705,0.17641-0.04496
	c0.49591-0.15337,0.99752-0.28496,1.5045-0.39622c0.14988-0.03289,0.29956-0.06674,0.44933-0.10015
	c-0.14635-0.018-0.29067-0.01055-0.43492,0.00109c-0.43817,0.03535-0.87211,0.11293-1.31162,0.13358
	C30.5951,30.6588,30.44826,30.67032,30.32896,30.53717z M36.19248,20.44388c-0.18917,0.01544-0.37577,0.02746-0.56161,0.04669
	c-0.21893,0.02266-0.28804,0.1055-0.28338,0.32631c0.0001,0.00467,0.00062,0.00933,0.00074,0.01401
	c0.00835,0.34406,0.09703,0.67455,0.17264,1.00693c0.07978,0.35077,0.16546,0.70019,0.2487,1.05017
	c0.02513,0.10568,0.0507,0.21125,0.07607,0.31687c0.01023-0.03028,0.00667-0.05773,0.0028-0.08515
	c-0.08237-0.5834-0.17043-1.16601-0.24144-1.75097c-0.0172-0.14166-0.0243-0.28399-0.01524-0.42676
	c0.01308-0.20608,0.11197-0.34782,0.31173-0.41186C35.99834,20.49972,36.09439,20.47302,36.19248,20.44388z M30.55321,25.92345
	c-0.79268,0.03345-1.55254,0.22352-2.29823,0.48083C29.0273,26.27414,29.79112,26.10333,30.55321,25.92345z M37.35126,20.20488
	c0.11005,0.00423,0.21681-0.00654,0.32433-0.01064c0.32752-0.01251,0.47478,0.07741,0.60572,0.37736
	c0.02848,0.06524,0.0542,0.13169,0.08118,0.19759c-0.01913-0.22061-0.05905-0.43772-0.04913-0.65815
	c0.0032-0.07112-0.02522-0.08167-0.08487-0.07762c-0.19914,0.01354-0.39262,0.05836-0.58636,0.10195
	C37.54488,20.15725,37.4482,20.18163,37.35126,20.20488z M32.35527,25.45659c0.03063,0.03804,0.07581,0.04467,0.08712,0.08371
	c0.0104,0.03586,0.03437,0.03123,0.06066,0.02567c0.19135-0.04051,0.38893-0.053,0.57203-0.13097
	c0.05128-0.02184,0.10707-0.03283,0.15966-0.05192c0.05103-0.01852,0.10757-0.02265,0.16233-0.05793
	C33.04368,25.35302,32.70129,25.38917,32.35527,25.45659z M31.74329,25.79255c0.17725,0.05484,0.18172,0.03973,0.17497-0.03853
	C31.8667,25.76538,31.81554,25.77664,31.74329,25.79255z M33.63054,20.99301c0.0023-0.00052,0.0046-0.00103,0.0069-0.00155
	c-0.01293-0.09575-0.02586-0.19151-0.03879-0.28726c-0.00232,0.00032-0.00465,0.00064-0.00697,0.00095
	C33.60463,20.80111,33.61759,20.89706,33.63054,20.99301z M33.66331,21.32579c0.00191,0.00064,0.00383,0.00128,0.00575,0.00192
	c-0.01162-0.0861-0.02325-0.1722-0.03488-0.25831c-0.0018,0.00022-0.0036,0.00045-0.0054,0.00067
	C33.6403,21.15532,33.65181,21.24056,33.66331,21.32579z"/>
<path d="M48.53912,34.16512c-0.1759-0.28638-0.35181-0.57373-0.51404-0.84052c-0.39972-0.66461-0.64111-1.11414-0.9588-1.78363
	l-0.00488-0.01855l-0.02246-0.20721c-0.01562-0.0528-0.02734-0.12317-0.0332-0.19446
	c-0.00586-0.09387-0.01178-0.19159-0.02155-0.2854c-0.0166-0.17981-0.03516-0.36163-0.05273-0.53754l-0.01666-0.16125
	c-0.03711-0.35089-0.07526-0.71442-0.09186-1.07703c-0.05176-1.30182-0.09869-2.63489-0.14465-4.00073
	c-0.03516-0.99786-0.07031-2.02991-0.10846-3.0434c-0.07916-2.24786-0.2121-4.90918-0.60693-7.6051l-0.00098-0.00781
	c-0.08698-0.61133-0.17847-1.19977-0.31964-1.65863c-0.14117-0.4588-0.34686-0.70654-0.58142-0.70654
	c-0.25415,0.00439-0.35089,0.22235-0.43591,0.46472c-0.12317,0.34009-0.20331,0.61914-0.25116,0.87811
	c-0.26978,1.44501-0.40271,3.0097-0.42908,5.07385c-0.04102,2.80396,0.07721,5.32355,0.36359,7.70282
	c0.17688,1.49634,0.80334,2.96527,1.97125,4.6228c0.56104,0.80536,0.68024,1.64581,0.72327,2.36322
	c0.04004,0.66455-0.20721,1.14838-0.75452,1.4787c-0.44373,0.26385-0.90015,0.52972-1.34186,0.78674l-0.87671,0.50726
	c-1.95758,1.12683-3.98163,2.29181-5.72717,3.79889c-0.25897,0.22382-0.51404,0.46521-0.73883,0.67822
	c-0.3548,0.33527-0.72229,0.68219-1.11908,0.98615c-2.9613,2.28015-6.28717,4.29932-9.88623,6.00183
	c-0.99487,0.47595-1.89893,0.78479-2.76483,0.94312c-0.13245,0.02637-0.34662,0.05542-0.4483-0.03058
	c-0.10211-0.08606-0.08289-0.28119-0.08093-0.40045c0.00098-0.05469,0.00146-0.13776,0.00195-0.23651
	c0.00195-0.26874,0.00488-0.67529,0.01807-0.93921c0.01807-0.36066,0.17932-0.52191,0.49945-0.84247l0.0127-0.01172
	c1.62189-1.61261,3.63177-3.02679,6.14398-4.32275c2.18823-1.11804,4.49182-2.38861,6.51196-4.1048
	c2.67694-2.27228,4.5163-5.00293,5.46625-8.11676c1.11316-3.66156,0.91968-7.34613,0.62744-10.14716
	c-0.21014-1.99084-0.53949-4.0799-1.0379-6.57355c-0.04303-0.21161-0.03229-0.35229,0.03711-0.45642
	c0.0694-0.10602,0.19647-0.17297,0.41144-0.21649c1.29303-0.27069,2.59875-0.58002,3.75104-0.85272l0.0332-0.00781
	c0.03522-0.0083,0.07428-0.01611,0.11438-0.02441l0.01758-0.00342c0.26776-0.05377,0.45642-0.10553,0.45349-0.28296
	c0-0.19299-0.16516-0.22186-0.43787-0.24579c-0.04688-0.00391-0.1026-0.00879-0.15344-0.01611
	c-0.97437-0.16077-1.97516-0.22479-2.94275-0.28638l-0.01855-0.00098c-0.16907-0.01074-0.30786-0.01611-0.4408-0.021
	c-0.17786-0.00684-0.34497-0.01367-0.57172-0.03174l-0.01953-0.00146c-0.33527-0.02057-0.65289-0.04742-0.70959-0.1012
	c-0.04883-0.04688-0.06641-0.18127-0.0899-0.35132c-0.00879-0.065-0.01758-0.13196-0.0293-0.19794
	c-0.32349-1.81635-0.89038-3.3855-1.73181-4.79675c-1.12494-1.9082-2.36322-3.11719-3.89471-3.80475
	c-0.97437-0.43591-1.93219-0.49695-2.76978-0.17688c-0.84344,0.32349-1.52264,1.01837-1.96246,2.00989
	c-0.01172,0.02539-0.14075,0.47888-0.22479,0.77698l-0.0166,0.05859l-0.02148-0.05664
	c-0.00195-0.00635-0.22479-0.5918-0.28735-0.69928c-0.23944-0.41785-0.48767-0.84979-0.79749-1.22998
	c-1.38635-1.71814-3.25647-2.05389-5.13202-0.91821c-1.13757,0.68707-2.08075,1.69666-2.80249,3.00092
	c-1.52124,2.74139-1.7973,5.10071-0.86884,7.42383c0.01221,0.03027,0.02588,0.05859,0.03857,0.086
	c0.03668,0.07623,0.06793,0.14221,0.05035,0.20813c-0.02148,0.0733-0.1344,0.06842-0.23944,0.06158
	c-0.0401-0.00146-0.07916-0.00293-0.11047-0.00195l-0.04199,0.00195c-0.44373,0.02106-0.90259,0.04303-1.35315,0.08063
	c-1.0022,0.09186-2.03821,0.18719-2.99451,0.5752c-0.91968,0.37579-1.25342,0.98511-1.08142,1.97662
	c0.07721,0.43494,0.21161,0.89429,0.42218,1.44452c0.08112,0.21161,0.08649,0.40021,0.01807,0.6123
	c-0.6416,1.82611-1.06525,3.83893-1.33307,6.33459c-0.17151,1.59399-0.32935,3.21393-0.48962,4.87152l-0.01562,0.15735
	c-0.0899,0.92554-0.18329,1.8833-0.27808,2.82544c-0.29272,2.90369-0.62451,6.19531-0.57416,9.40979
	c0,0.00488,0,0.0528,0.00537,0.13489l0.00732,0.12994c0.01172,0.2121,0.02637,0.45837,0.04785,0.70758l0.00299,0.03717
	l-0.03082,0.02148c-1.06482,0.76233-2.17944,1.49432-3.16266,2.1394l-0.01318,0.00879
	c-0.50037,0.32642-0.98712,0.63818-1.45135,0.93042c0.44714-0.20819,0.91089-0.45154,1.46649-0.77112
	c0.92065-0.53558,1.91364-1.18353,3.12457-2.0387l0.08795-0.06158l0.01416,0.10651c0.01611,0.13,0.0376,0.25513,0.05377,0.34601
	c0.01123,0.05566,0.02197,0.09772,0.03174,0.12799c0.00049,0,0.00488,0.00781,0.0083,0.03229
	c0,0.00098,0.00098,0.00391,0.00195,0.00781l0.00146,0.00586c0.00684,0.04498,0.01172,0.0733,0.02002,0.09283
	c0.00592,0.01367,0.01276,0.02838,0.0152,0.04694c0.09186,0.258,0.28583,0.45544,0.60986,0.61572
	c0.44855,0.21301,0.93774,0.474,1.49432,0.79553c1.422,0.81805,3.01215,1.90582,4.02661,3.7735
	c0.7467,1.38,2.2298,2.5528,2.57574,2.64954c0.40753,0.11523,0.68121,0.10449,0.94263-0.0332
	c0.27173-0.1427,0.38898-0.25806,0.54828-0.66071c0.06598-0.18079,0.19891-0.27264,0.3949-0.27264
	c0.02441,0,0.04785,0.00098,0.0733,0.00098c0.64404,0,1.25049-0.19452,1.81635-0.39392
	c2.112-0.75348,4.06769-1.84613,5.70276-2.81665c0.22382-0.13293,0.44855-0.26581,0.67334-0.39874
	c1.99963-1.1806,4.06476-2.40033,5.77313-4.02954c2.01331-1.92242,4.31006-3.36401,6.49243-4.6355
	c0.90015-0.52289,1.70349-0.98322,2.45703-1.40735c0.78088-0.43982,1.11023-1.07019,1.0047-1.92828l-0.12219-1.05652
	l0.16125,0.30005c0.03717,0.0694,0.08014,0.13977,0.12219,0.20721c0.43585,0.71442,0.91772,1.45422,1.46503,2.25079
	C48.75903,34.52382,48.6496,34.3459,48.53912,34.16512z M46.56396,30.72786c-0.92847-1.36536-1.81592-2.87439-2.02014-4.66193
	c-0.32153-2.81128-0.43396-5.74866-0.3313-8.73004c0.05566-1.49481,0.37134-3.96112,0.44757-4.26752
	c0.07623-0.302,0.20038-0.70319,0.40662-0.70319c0.16321,0,0.22235,0.10352,0.27881,0.23309
	c0.05646,0.12952,0.1424,0.4975,0.20984,0.94019l0.01953,0.12463c0.09283,0.60352,0.37433,2.43842,0.48865,3.81842
	c0.22968,2.88806,0.32159,5.77557,0.37628,7.96869l0.0127,0.59521c0.03229,1.52075,0.06451,3.09131,0.22968,4.63843l0.0274,0.258
	L46.56396,30.72786z M41.11829,10.32552c0.06836-0.05817,0.23163-0.02985,0.46027,0.00684
	c0.12903,0.021,0.27368,0.04498,0.42322,0.0567c0.40167,0.03076,0.85419,0.06549,1.53345,0.11823
	c0.74274,0.05817,1.25879,0.09479,1.53735,0.10022c0.09381,0.00195,0.91766,0.02197,0.93921,0.13336
	c0.0127,0.07135-0.13489,0.10217-0.41931,0.15442c-0.08209,0.01465-0.16614,0.03033-0.24335,0.04742
	c-0.05865,0.01318-0.20032,0.04395-0.39874,0.08746c-0.74866,0.16321-2.30652,0.5033-3.23108,0.71295
	c-0.03613,0.00732-0.0899,0.01807-0.1427,0.01807c-0.15247,0-0.20422-0.08698-0.2218-0.16028
	c-0.01178-0.04492-0.02838-0.10651-0.04791-0.17786C41.12903,10.77754,41.04108,10.39101,41.11829,10.32552z M40.94135,10.84206
	c0.01855,0.11285,0.03717,0.21204,0.0528,0.29999l0.01074,0.05914c0.12219,0.65924,0.10455,0.69049-0.47986,0.83124
	l-0.04987,0.01221c-0.09576,0.02344-0.2052,0.04987-0.33228,0.08453c-1.99866,0.54291-4.12823,0.51898-5.84058,0.49896
	c-0.07916-0.00391-0.15735-0.00195-0.23163-0.00195l-0.02148,0.00049c-0.04199,0.00098-0.08502,0.00146-0.12701,0.00146H30.8797
	c-0.03027,0-0.06451,0.00244-0.09869,0.00488c-0.03619,0.00244-0.07135,0.00488-0.10846,0.00488h-0.01276
	c-0.00391,0-0.00781,0-0.0127,0c-0.12213,0-0.28143-0.0083-0.30981-0.27466c-0.00586-0.05176-0.01562-0.10553-0.02539-0.16223
	c-0.04108-0.22382-0.08698-0.47693,0.17493-0.60889c0.73596-0.53021,1.07996-1.28906,1.11322-2.45898
	c0.01074-0.24481,0.12213-0.38947,0.37231-0.48376c1.29596-0.48523,2.48535-0.48962,3.63568-0.01611
	c0.43005,0.17639,0.85809,0.37189,1.27252,0.56146l0.03613,0.01611c0.37823,0.17352,0.77014,0.35236,1.15912,0.51556
	c0.76331,0.32202,1.54126,0.47888,1.87842,0.50629c0.04791,0.00391,0.12122,0.00537,0.20624,0.00684
	c0.30396,0.00488,0.56,0.01465,0.62842,0.08405C40.88171,10.4203,40.9267,10.71791,40.94135,10.84206z M30.26202,10.5146v-0.00049
	c0.00098-0.06006,0.00195-0.12067,0.00195-0.18127c-0.00684-0.11438-0.01367-0.21454-0.01953-0.30103
	c-0.03711-0.57367-0.03809-0.58441,0.2453-0.69684c0.11633-0.04596,0.27466-0.10895,0.5014-0.24188
	c0.09186-0.03864,0.20422-0.07477,0.28534-0.01807c0.0567,0.04053,0.08014,0.11627,0.07135,0.23065
	c-0.05176,0.85126-0.45642,1.55444-0.50232,1.63214c-0.1261,0.21008-0.35577,0.43243-0.47986,0.43243
	c-0.00983,0-0.01959-0.00146-0.02838-0.00439c-0.0899-0.03223-0.08698-0.22528-0.07721-0.40411
	c0.00098-0.021,0.00195-0.03906,0.00293-0.05231l0.00098-0.03076C30.26007,10.75893,30.26105,10.63484,30.26202,10.5146z
	 M33.15106,0.80141c0.72809-0.1051,1.47186,0.02588,2.20679,0.39288c1.44257,0.72125,2.60364,1.89404,3.65424,3.69043
	c0.80243,1.37213,1.35364,2.91779,1.68591,4.72443c0.04596,0.24481,0.05768,0.36597,0.03815,0.40411
	c-0.01178,0.02441-0.0401,0.03174-0.08112,0.03174c-0.03131,0-0.0694-0.00439-0.11145-0.00977
	c-0.04395-0.00537-0.0899-0.01074-0.13-0.01074c-0.01953,0-0.04199-0.00049-0.06445-0.00195
	c-0.86987-0.04791-1.73676-0.28979-2.81183-0.7843c-0.17493-0.07867-0.35083-0.1593-0.52777-0.24042l-0.08795-0.04059
	c-0.40265-0.18567-0.86005-0.39679-1.30768-0.57855c-0.58929-0.24432-1.18451-0.35529-1.77185-0.33234
	c-0.03424-0.00098-0.06842-0.00098-0.10266-0.00098c-0.54828,0-1.08093,0.10022-1.62726,0.30591
	c-0.14368,0.05426-0.29126,0.0968-0.39777,0.03082c-0.086-0.0528-0.13391-0.15881-0.15344-0.34406
	c-0.15344-1.30182-0.48962-2.63098-1.02814-4.06323c-0.04401-0.12366-0.05963-0.22723-0.04791-0.31763
	C30.59729,2.39735,31.91864,0.98268,33.15106,0.80141z M30.3031,4.52406l0.04395-0.216l0.08112,0.20526
	c0.07202,0.1842,0.11737,0.38647,0.18188,0.57532c0.06799,0.19904,0.13184,0.40143,0.19159,0.60632
	c0.11664,0.39935,0.21875,0.81592,0.30518,1.24121c0.03937,0.19464,0.07581,0.39288,0.10913,0.59381
	c0.03857,0.23193,0.09546,0.44495,0.12604,0.68597c0.04889,0.35962-0.14758,0.51208-0.36652,0.62354
	c-0.02051,0.01367-0.54926,0.3562-0.69977,0.35669c-0.08405,0-0.10162-0.09967-0.10748-0.13239
	c-0.0127-0.07428-0.0127-0.17596-0.0127-0.29321c-0.00098-0.10901-0.00098-0.23212-0.01172-0.35431l-0.00098-0.01514
	C30.01379,6.96492,30.06561,5.69637,30.3031,4.52406z M20.11194,8.19246V8.18806c0.19012-2.86212,1.45868-5.29468,3.6684-7.03632
	c0.62506-0.48962,1.30621-0.78381,2.0246-0.87469c1.21088-0.15198,2.24347,0.30054,3.1543,1.38635
	c0.50531,0.60205,0.85712,1.28571,1.10834,1.81342c0.086,0.17889,0.1026,0.35529,0.05371,0.57227
	c-0.31372,1.34528-0.38312,2.79175-0.21497,4.42242c0.00488,0.04492,0.01074,0.08844,0.01465,0.13
	c0.07233,0.62354,0.10162,0.88153-0.74377,1.31989l-0.20374,0.10651c-0.69635,0.3631-1.99329,1.03937-3.01215,1.49042
	c-0.25415,0.11096-0.51996,0.16223-0.83661,0.16223c-0.24384,0-0.48572-0.03125-0.71979-0.06104
	c-0.11243-0.01471-0.2287-0.02936-0.34259-0.04059l-0.31177-0.02783c-0.80383-0.07477-1.63165-0.14856-2.46143-0.12073
	c-0.06989,0.0083-0.13092,0.01221-0.1842,0.01221c-0.32397,0-0.37677-0.14368-0.46326-0.37628
	c-0.01172-0.03223-0.02441-0.06641-0.03864-0.10211C20.27563,10.15157,20.12854,9.32277,20.11194,8.19246z M30.02844,11.22609
	c0.00977,0.36554-0.1759,0.42029-0.37335,0.47797c-0.01758,0.00488-0.03516,0.01025-0.05273,0.01562
	c-0.48676,0.14563-0.99103,0.16565-1.46356,0.16565c-0.10364,0-0.20673-0.00098-0.30835-0.00195l-0.20038-0.00195
	c-0.39386-0.00342-0.79993-0.00684-1.20502-0.11682l-0.16077-0.04395l0.14801-0.07672
	c0.2439-0.12561,0.48627-0.24774,0.7345-0.37238c0.57611-0.28882,1.17035-0.58691,1.72986-0.91724l0.16418-0.09625
	c0.20575-0.12024,0.40613-0.23798,0.5957-0.35577c0.01562-0.00928,0.03912-0.02637,0.06549-0.04639
	c0.13586-0.09918,0.24921-0.1759,0.30884-0.13879C30.09003,9.77333,30.08026,10.71205,30.02844,11.22609z M24.60327,11.9308
	l-0.32544,0.08258c-0.47986,0.12213-1.02423,0.26093-1.56812,0.26093c-0.09277,0-0.17267-0.0274-0.26147-0.03546
	c-0.07355-0.00647-0.14697-0.01733-0.22064-0.02997c-0.17676-0.03076-0.34833-0.07867-0.51086-0.14465
	c-0.06152-0.02496-0.12274-0.05438-0.18402-0.08539c-0.08734-0.04407-0.1817-0.06818-0.26556-0.12329l-0.15198-0.09924
	l0.18127-0.02002c0.96417-0.10211,1.91705,0.00684,2.97406,0.14905L24.60327,11.9308z M12.70862,40.51875
	c-0.00049-0.00488-0.04785-0.47107-0.04834-0.85223c-0.00049-0.37531,0.03271-3.04242,0.12701-4.39313
	c0.17792-2.45898,0.39093-4.69897,0.65192-6.84814c0.12701-1.0575,0.22089-2.12476,0.31128-3.15778l0.00098-0.01221
	c0.18762-2.12964,0.38116-4.33154,0.86493-6.46362c0.15735-0.70319,0.33618-1.50067,0.67096-2.26398l0.06989-0.15735
	l0.05225,0.16418c0.06451,0.20331,0.14758,0.40753,0.22089,0.58789c0.22675,0.55804,0.46082,1.13367,0.30493,1.84125
	c-0.95483,4.3526-1.40149,7.91937-1.40588,11.22473c-0.00586,0.69092,0.02686,1.26465,0.20624,1.81781
	c0.09821,0.29224,0.19543,0.51898,0.47449,0.54633c0.0166,0.00098,0.03271,0.00195,0.04883,0.00195
	c0.24091,0,0.38702-0.16516,0.53998-0.42804c0.60596-1.02429,0.82635-2.18146,0.98566-3.18518
	c0.49597-3.15576,0.44958-6.29596-0.13782-9.3335c-0.00391-0.0127-0.00732-0.03229-0.01025-0.05182
	c-0.00391-0.02295-0.00684-0.0415-0.01318-0.05719c-0.60693-1.60425,0.18958-2.87579,0.95972-4.10577
	c0.21942-0.34595,0.47357-0.5282,0.73743-0.5282c0.00781,0,0.01611,0,0.02441,0.00049
	c0.28931,0.00732,0.56097,0.2218,0.78528,0.61914c0.58398,1.01447,0.72229,2.15106,0.81415,3.22809
	c0.21649,2.46289-0.20233,4.90625-0.60791,7.26843l-0.02832,0.16614c-0.41833,2.43164-0.93921,5.45746-0.87085,8.41193
	c0.01715,0.59912,0.05768,1.21777,0.09387,1.76312c0.00977,0.16321,0.02148,0.36456-0.24042,0.46716
	c-1.71185,0.67535-3.15289,1.82269-4.54608,2.93201c-0.15149,0.12115-0.38361,0.29907-0.38605,0.30103l-0.64606,0.53363
	L12.70862,40.51875z M16.13959,19.23146l0.06158-0.23798l0.06445,0.237c0.33722,1.23828,0.51898,2.61975,0.57129,4.34814
	c0.09283,2.9115-0.1261,5.12219-0.70953,7.16876c-0.14075,0.50623-0.30981,0.90594-0.53168,1.25781l-0.01318,0.02148
	c-0.06696,0.10754-0.14856,0.23553-0.3064,0.23553h-0.02057c-0.21692-0.02051-0.26044-0.20618-0.29218-0.34204l-0.00543-0.02246
	c-0.10211-0.3714-0.16028-0.75647-0.17786-1.17676c-0.09039-2.45013,0.22333-4.87836,0.55219-7.15503
	C15.53412,22.17616,15.76233,20.69649,16.13959,19.23146z M22.52106,48.98244c-0.09528,0.216-0.30688,0.36261-0.56439,0.39093
	c-0.03961,0.00494-0.08014,0.0069-0.12463,0.0069c-0.26288,0-0.5116-0.09485-0.78284-0.30103
	c-0.9563-0.7135-1.70935-1.56769-2.23761-2.53815c-0.57953-1.06335-1.36383-1.92438-2.39691-2.63196
	c-0.79993-0.55707-1.6947-1.08582-2.90265-1.71326c-0.04108-0.02155-0.08307-0.04205-0.1261-0.06256l-0.00488-0.00195
	c-0.19006-0.09283-0.38654-0.18768-0.5072-0.39679c-0.27515-0.47693-0.21112-0.82684,0.2135-1.16986
	c0.06451-0.04987,0.12854-0.10266,0.20819-0.17108l0.01709-0.01074c0.00586-0.00391,0.01123-0.00781,0.01611-0.01074
	c0.00098-0.00195,0.00537-0.00488,0.00934-0.00781l0.01221-0.0127l0.16223-0.13196c1.29694-1.04572,2.63538-2.12567,4.16248-2.90265
	c0.46228-0.23651,0.72809-0.36652,0.82532-0.33722c0.08551,0.02838,0.11975,0.22968,0.17743,0.61279
	c0.01074,0.07135,0.02246,0.14661,0.03467,0.22479c0.29956,1.81982,0.7677,4.19861,1.74011,6.44843
	c0.2688,0.61768,0.53265,1.05847,0.85571,1.42889c0.49255,0.56097,0.86542,0.60693,1.53387,0.1925l0.06891-0.04395l0.02692,0.07721
	c0.09235,0.25995,0.05713,0.48279-0.1134,0.72125c-0.22089,0.30786-0.37531,0.59326-0.47156,0.87274
	c-0.10699,0.33331-0.07819,0.59717,0.09039,0.8288C22.58557,48.5417,22.61389,48.77431,22.52106,48.98244z M18.85754,37.10493
	c-0.01904-0.10162-0.0318-0.16907,0.00635-0.216c0.03955-0.04987,0.12805-0.06842,0.35132-0.07526
	c0.09973-0.01367,0.19745-0.02051,0.29321-0.02051c0.58691,0,1.09851,0.24725,1.52368,0.73785
	c0.5556,0.63531,0.83612,1.41913,1.05652,2.17163c0.40314,1.38684,0.66699,2.94476,0.83069,4.90332
	c0.04596,0.41632-0.02832,0.73785-0.23358,1.01056c-0.14368,0.18274-0.31226,0.28735-0.48767,0.30298
	c-0.01611,0.00195-0.0332,0.00195-0.05035,0.00195c-0.15833,0-0.31567-0.06744-0.46765-0.20135
	c-0.42755-0.36749-0.69049-0.86786-0.87177-1.2627c-0.90601-1.98792-1.50165-4.22211-1.9317-7.24402v-0.00098
	C18.87024,37.17238,18.8634,37.13716,18.85754,37.10493z M23.05127,46.82454c-0.00146,0.01172-0.07135,0.48767-0.06549,0.77795
	c0.00146,0.06055,0.00391,0.12994,0.00732,0.20227c0.01416,0.33722,0.0191,0.5473-0.05762,0.61377
	c-0.01862,0.01562-0.0401,0.02344-0.06305,0.02344c-0.00684,0-0.01367-0.00098-0.01959-0.00195
	c-0.11969-0.02441-0.21985-0.17004-0.26874-0.38995c-0.04547-0.20227,0.09381-0.77014,0.19452-0.96069
	c0.09576-0.18079,0.25018-0.38116,0.25214-0.38312l0.04639-0.05963L23.05127,46.82454z M23.1153,43.84755
	c-0.03571-0.24823-0.07037-0.49744-0.10504-0.74768l-0.00592-0.04297c-0.03223-0.23456-0.06445-0.47107-0.09869-0.70465
	c-0.14075-0.92847-0.3562-2.14331-0.77502-3.31024c-0.26434-0.73303-0.54193-1.25293-0.90009-1.68689
	c-0.5097-0.60303-1.16156-0.87958-1.87946-0.79944c-0.06793,0.00781-0.13092,0.02344-0.19153,0.04004
	c-0.12317,0.03131-0.23114,0.05865-0.31323-0.00977c-0.08942-0.07526-0.11047-0.35376-0.12659-0.68219
	c-0.00293-0.05957-0.00537-0.11334-0.00879-0.1554c-0.24921-3.21344,0.24384-6.0907,0.67926-8.62885
	c0.03809-0.2287,0.0777-0.45642,0.11676-0.68414l0.05914-0.34204c0.3548-2.04608,0.72174-4.1615,0.68414-6.28674
	c-0.02637-1.50116-0.19354-2.62415-0.54291-3.64008c-0.12219-0.34106-0.28198-0.73492-0.54193-1.06866
	c-0.22723-0.28979-0.49115-0.45203-0.76331-0.46918c-0.01709-0.00098-0.03467-0.00195-0.05231-0.00195
	c-0.25458,0-0.50818,0.12317-0.75446,0.367c-0.49506,0.49017-0.76331,1.12201-1.03894,1.8374
	c-0.0376,0.09283-0.065,0.19055-0.09137,0.28491c-0.02344,0.08405-0.04742,0.17053-0.07916,0.25458
	c-0.03223,0.08649-0.0694,0.26337-0.10211,0.41974c-0.06305,0.30054-0.07233,0.32251-0.10022,0.32251h-0.0166L16.164,18.09676
	c-0.00098-0.00537-0.10114-0.52728-0.14514-0.70319c-0.03223-0.12994-0.07965-0.25653-0.13928-0.41632
	c-0.02148-0.05719-0.04443-0.11829-0.06891-0.18475l-0.05908-0.1637c-0.07916-0.21796-0.15881-0.43585-0.23895-0.6543
	c-0.04108-0.13098-0.00586-0.24286,0.03418-0.33521c0.33765-0.81024,0.76086-1.73529,1.51099-2.4502
	c0.88641-0.84589,1.90332-0.89478,2.86163-0.13635c1.11072,0.88104,1.71912,2.0744,2.21118,3.23254
	c0.81171,1.90234,1.31354,4.01538,1.62726,6.85254c0.24384,2.2699,0.18134,4.56903,0.12073,6.79248
	c-0.02203,0.81122-0.04742,1.7309-0.05377,2.62024c-0.02197,2.64661-0.09381,5.31378-0.16321,7.89294l-0.00244,0.086
	c-0.02246,0.91577-0.0899,2.1228-0.41632,3.32587l-0.08215,0.30396L23.1153,43.84755z M23.24237,46.18434v-0.05078
	c0-0.00391,0.00049-0.3382-0.0274-0.5542c-0.02832-0.22571-0.03223-0.29608,0.05182-0.56293
	c0.59521-1.91559,0.63086-3.99237,0.65967-5.66071c0.00977-0.58545,0.0191-1.16986,0.02838-1.75433l0.00098-0.0733
	c0.0376-2.34753,0.07574-4.77618,0.14172-7.15991l0.00781-0.24823c0.06793-2.29578,0.13776-4.67072-0.10706-6.99628
	c-0.35913-3.38153-1.03107-5.86005-2.17847-8.03516c-0.52191-0.9978-1.0741-1.70349-1.73767-2.22046
	c-1.07263-0.83612-2.24982-0.77258-3.23254,0.17737c-0.57568,0.55951-0.94458,1.25879-1.24512,1.87012
	c-0.00781,0.01514-0.01416,0.03082-0.02051,0.04596l-0.00592,0.01465c-0.03662,0.08844-0.21741,0.51263-0.21741,0.51263
	l-0.02399,0.05615l-0.07819-0.33325c-0.25555-0.63623-0.46082-1.21729-0.36743-1.85254h0.00049
	c0.07477-0.474,0.39484-0.81903,0.97827-1.05554c0.87085-0.34595,1.7998-0.43585,2.69794-0.52283
	c0.45447-0.04352,0.92651-0.06403,1.34332-0.08209l0.13-0.00586c0.08649-0.00348,0.17346-0.00739,0.26001-0.01178
	c0.17249-0.00342,0.34644-0.01074,0.48669,0.13586c0.70416,0.73157,1.80365,0.75354,2.39838,0.70074
	c0.58929-0.05127,0.9314-0.17981,1.02228-0.21796c0.85419-0.3689,1.66638-0.2951,2.52545-0.21887
	c0.06494,0.00586,0.12994,0.01172,0.19592,0.01709c0.11926,0.01074,0.23749,0.021,0.35675,0.03027
	c0.67139,0.05426,1.60132-0.0733,1.99915-0.12854c0.05371-0.00732,0.09674-0.01318,0.12799-0.01758
	c0.12708-0.01611,0.26099-0.05762,0.36847-0.09088c0.13977-0.04346,0.20428-0.06403,0.24237-0.04297
	c0.04498,0.02686,0.04987,0.1236,0.05182,0.26776c0.00098,0.04059,0.00195,0.07867,0.00391,0.10748
	c0.01562,0.16125,0.01855,0.23114-0.07916,0.34845c-0.06354,0.07477-0.15833,0.11676-0.29126,0.12805l-0.0166,0.00146
	c-0.5835,0.04785-1.18646,0.09723-1.78558,0.17444c-0.64606,0.08551-1.25977,0.19104-1.99475,0.31958
	c-0.1637,0.02979-0.33569,0.08063-0.51215,0.151c-0.47253,0.18713-0.90057,0.39923-0.94702,0.93335
	c-0.03516,0.43298,0.19159,0.77649,0.71344,1.08093c1.13031,0.6582,2.38959,0.80872,3.74225,0.44568
	c0.44958-0.12268,0.77502-0.453,1.02228-1.03894c0.17981-0.42511,0.28247-0.87225,0.30396-1.32965
	c0.01172-0.39581,0.18762-0.56488,0.58936-0.56488c0.00781,0,0.0166,0,0.02441,0.00049
	c0.57953,0.00146,1.15717-0.00098,1.64777-0.00293c0.75647-0.00439,1.53931-0.00732,2.31921,0.00293
	c1.72205,0.02051,3.74316-0.03033,5.71643-0.59375c0.29321-0.0816,0.45154-0.12018,0.56781-0.04987
	c0.11926,0.07477,0.15051,0.2478,0.20819,0.56201l0.00195,0.01367c0.49744,2.70233,0.99591,5.5874,1.15424,8.53064
	c0.1554,2.83673-0.06842,5.29376-0.68121,7.51129c-0.90405,3.28094-2.70721,6.0321-5.51312,8.41193
	c-2.00452,1.71326-4.23871,2.94666-6.16113,3.92694c-2.802,1.42688-4.93799,3.11377-5.46472,3.59265
	c-0.53363,0.48572-1.3595,1.3595-1.3678,1.36829L23.24237,46.18434z M29.98938,13.52382
	c-0.00391,0.06354-0.0166,0.12512-0.03131,0.19354l-0.0127,0.06152c-0.28833,1.56329-0.77698,1.9679-2.37689,1.9679
	c-0.6333-0.00586-1.2373-0.11877-1.79535-0.33569c-0.36798-0.14612-0.64893-0.33429-0.85956-0.5752
	c-0.172-0.19592-0.24677-0.38654-0.22284-0.56635c0.02399-0.17987,0.14612-0.34308,0.36359-0.48572
	c0.26923-0.17987,0.58887-0.30005,1.00568-0.37921c1.013-0.19452,2.09198-0.33527,3.39575-0.44275
	c0.2453-0.01953,0.388-0.01416,0.474,0.0733C30.01575,13.1241,30.0177,13.26924,29.98938,13.52382z"/>
</svg>
