<?xml version="1.0" encoding="utf-8"?>
<!-- Generator: Adobe Illustrator 23.1.1, SVG Export Plug-In . SVG Version: 6.00 Build 0)  -->
<!DOCTYPE svg PUBLIC "-//W3C//DTD SVG 1.1//EN" "http://www.w3.org/Graphics/SVG/1.1/DTD/svg11.dtd" [
	<!ENTITY ns_extend "http://ns.adobe.com/Extensibility/1.0/">
	<!ENTITY ns_ai "http://ns.adobe.com/AdobeIllustrator/10.0/">
	<!ENTITY ns_graphs "http://ns.adobe.com/Graphs/1.0/">
	<!ENTITY ns_vars "http://ns.adobe.com/Variables/1.0/">
	<!ENTITY ns_imrep "http://ns.adobe.com/ImageReplacement/1.0/">
	<!ENTITY ns_sfw "http://ns.adobe.com/SaveForWeb/1.0/">
	<!ENTITY ns_custom "http://ns.adobe.com/GenericCustomNamespace/1.0/">
	<!ENTITY ns_adobe_xpath "http://ns.adobe.com/XPath/1.0/">
]>
<svg version="1.1" id="Слой_1" xmlns:x="&ns_extend;" xmlns:i="&ns_ai;" xmlns:graph="&ns_graphs;"
	 xmlns="http://www.w3.org/2000/svg" xmlns:xlink="http://www.w3.org/1999/xlink" x="0px" y="0px" viewBox="0 0 56.69 49.64882"
	 style="enable-background:new 0 0 56.69 49.64882;" xml:space="preserve">
<metadata>
	<sfw  xmlns="&ns_sfw;">
		<slices></slices>
		<sliceSourceBounds  bottomLeftOrigin="true" height="49.64882" width="56.69" x="0" y="0"></sliceSourceBounds>
	</sfw>
</metadata>
<g>
	<path d="M23.58687,18.77453c0.25793-0.03812,0.52515-0.12999,0.84073-0.28978c0.16219-0.0821,0.31607-0.18228,0.46458-0.27854
		l0.00977-0.00685c0.06937-0.04545,0.14362-0.09383,0.21935-0.14025l0.08354-0.05131l-0.06448,0.07379
		c-0.15438,0.17787-0.34635,0.39925-0.42012,0.69245c-0.03908,0.15246-0.07083,0.35331,0.02932,0.5566
		c0.14607,0.30004,0.3571,0.48379,0.64386,0.56149c0.2892,0.0777,0.59012,0.0606,0.97605-0.05522
		c0.17733-0.05326,0.34293-0.13585,0.50268-0.2155c0.0596-0.03029,0.11675-0.05864,0.17342-0.08552
		c0.04738-0.02199,0.08988-0.05229,0.1275-0.07916c0.04201-0.02932,0.085-0.06011,0.1319-0.07916l0.00928-0.00391l0.00732,0.00685
		c0.07083,0.07184,0.15534,0.12656,0.23009,0.17446l0.03321,0.02199c0.18222,0.11875,0.40205,0.2502,0.65168,0.32594
		c0.26917,0.08209,0.51832,0.07526,0.76013-0.01905c0.21153-0.08064,0.39228-0.21062,0.56033-0.33718
		c0.3996-0.2976,0.76696-0.64749,1.10404-0.98126c0.46409-0.46131,0.9399-0.92751,1.40007-1.37855l0.80116-0.78432
		c0.62627-0.61328,1.25254-1.22657,1.8798-1.83888c0.58622-0.57224,1.06398-1.0482,1.50364-1.49827l0.11333-0.1163
		c0.30484-0.31129,0.61943-0.63332,0.91449-0.96317c0.21397-0.24091,0.42696-0.4745,0.66047-0.68854
		c0.48461-0.44518,0.9184-0.85127,1.31312-1.316c0.3703-0.43394,0.64875-0.80583,0.87542-1.1694
		c0.23449-0.37286,0.42989-0.75891,0.58035-1.14789c0.04885-0.12803,0.05472-0.13292,0.16805-0.13341l0.17391,0.00195
		c1.10111,0.01075,2.23739,0.0215,3.35706-0.04838c0.20615-0.01319,0.41719-0.02053,0.62041-0.02834l0.0254-0.00098
		c0.21006-0.00733,0.4465-0.01563,0.68002-0.03128c0.27552-0.01759,0.55592-0.03226,0.82656-0.04692
		c0.30679-0.01612,0.62335-0.03274,0.9399-0.05473c0.51294-0.0347,1.03467-0.07623,1.53979-0.11679l0.64092-0.05082
		c0.50903-0.03958,1.03565-0.08064,1.55347-0.12412c0.27747-0.02297,0.5569-0.04789,0.83536-0.07233l1.3141-0.1163
		c0.32438-0.02834,0.66047-0.05767,0.99168-0.08454c0.50024-0.04056,1.0034-0.07818,1.42939-0.11044l0.65754-0.04984
		c0.04104-0.00293,0.09673-0.00831,0.15241-0.02346c0.06546-0.01856,0.09575-0.09333,0.07425-0.18228
		c-0.00781-0.03128-0.02247-0.05424-0.04494-0.06743c-0.02149-0.01319-0.05081-0.01759-0.08989-0.00685
		c-0.03614,0.00978-0.06546,0.0171-0.09477,0.01906c-0.11627,0.00831-0.23253,0.01612-0.34978,0.02395
		c-0.17781,0.01222-0.35466,0.02443-0.53248,0.03812c-0.54224,0.04153-1.04248,0.08161-1.52905,0.12217
		c-0.68489,0.05718-1.20955,0.10311-1.70393,0.14905c-0.21494,0.02004-0.43478,0.03763-0.64679,0.05473l-0.14558,0.01173
		c-0.26477,0.02102-0.53931,0.043-0.80801,0.06988c-0.39765,0.03909-0.79041,0.06891-1.22714,0.10067
		c-0.15437,0.01124-0.30874,0.02248-0.46311,0.0347c-0.27943,0.0215-0.55788,0.04202-0.83731,0.06206L47.7121,7.03855
		c-0.33414,0.02395-0.66829,0.04789-1.00242,0.07379c-0.2638,0.01955-0.54128,0.03029-0.78455,0.03958l-0.04885,0.00195
		c-0.19052,0.00733-0.3869,0.01515-0.57938,0.02736l-0.1104,0.00636c-0.58035,0.03567-1.23203,0.07574-1.83681,0.07574
		c-0.05569,0-0.1104-0.00049-0.16413-0.00098c-0.61943,0.01124-1.43427,0.02346-2.24912,0.00586
		c-0.03028-0.00098-0.0469-0.00342-0.05569-0.00488c-0.00195-0.00049,0.00293-0.00098,0.00586-0.00439l-0.00977-0.01075h-0.01466
		c0-0.00195,0-0.00391,0-0.00586V7.24134c0-0.01368,0.00488-0.03323,0.0127-0.05816
		c0.00684-0.01759,0.01271-0.03519,0.01954-0.05229c0.0127-0.03274,0.02345-0.0606,0.03028-0.08943
		c0.07523-0.32301,0.12604-0.57321,0.16413-0.8112c0.08891-0.539,0.03225-1.07313-0.03518-1.52368
		c-0.05081-0.33767-0.15438-0.66704-0.24035-0.91627c-0.1446-0.42856-0.35564-0.81559-0.56277-1.17086
		c-0.11235-0.19498-0.25012-0.37676-0.38202-0.55317l-0.02345-0.03029c-0.23058-0.30787-0.48461-0.56882-0.75523-0.77552
		c-0.44748-0.34011-0.893-0.57077-1.36393-0.70418c-0.255-0.0733-0.51392-0.14807-0.77869-0.18032
		c-0.49437-0.05864-1.0161-0.0557-1.55347,0.0088c-0.68782,0.08454-1.36197,0.26583-2.0625,0.55465
		c-0.52857,0.21844-1.04835,0.4833-1.58962,0.80924c-0.41622,0.25118-0.81289,0.53607-1.14605,0.78188
		c-0.33317,0.24629-0.62628,0.4833-0.89495,0.72519c-0.44259,0.39729-0.84903,0.81364-1.26134,1.24075
		c-0.07084,0.07428-0.14509,0.14709-0.2169,0.21746l-0.03566,0.03519c-0.05178,0.05082-0.10357,0.10164-0.15534,0.15295
		c-0.00586,0.00635-0.01124,0.01075-0.01515,0.01368L28.00451,4.926l-0.01075-0.01124
		c-0.01954-0.02443-0.03957-0.0474-0.06009-0.07086L27.9239,4.83266c-0.0679-0.07574-0.13825-0.15442-0.1661-0.25705
		c-0.03811-0.14073-0.0933-0.27952-0.13776-0.39142c-0.14216-0.36455-0.29946-0.66997-0.48021-0.93386
		c-0.30581-0.44518-0.61113-0.81364-0.93452-1.1259c-0.45236-0.43541-0.98093-0.82341-1.61649-1.18699
		c-0.31411-0.17934-0.66585-0.33914-1.07522-0.48867c-0.34684-0.12754-0.67073-0.22381-0.99022-0.29516
		c-0.31851-0.07135-0.64679-0.10018-0.96433-0.12852l-0.0767-0.00733c-0.44992-0.04056-0.93306-0.01173-1.5222,0.08747
		c-0.51147,0.08601-1.01464,0.25508-1.49632,0.50186c-0.68147,0.35038-1.22519,0.79459-1.66339,1.35949
		c-0.23497,0.30249-0.43771,0.65434-0.61993,1.07459c-0.10161,0.23603-0.17733,0.46864-0.22472,0.69148
		c-0.0679,0.3196-0.13678,0.69831-0.13678,1.08876v0.09725c-0.00098,0.2155-0.00195,0.43785,0.03273,0.65776
		c0.00586,0.0347-0.00342,0.05131-0.03371,0.0606c-0.04348,0.01417-0.08891,0.02346-0.13581,0.02834
		c-0.1192,0.01075-0.24083,0.01856-0.35808,0.02688l-0.0508,0.00342c-0.19882,0.01319-0.40449,0.02688-0.60625,0.05033
		c-0.21104,0.02443-0.42598,0.04496-0.6336,0.06499l-0.06253,0.00636c-0.17879,0.0171-0.3571,0.03421-0.53492,0.05326
		c-0.17196,0.01808-0.34391,0.03812-0.51538,0.05767l-0.22227,0.0259c-0.17879,0.02053-0.35808,0.04153-0.53687,0.0606
		l-0.2379,0.02492c-0.48461,0.0518-1.00047,0.10605-1.50706,0.151C9.82057,6.24347,9.22361,6.2596,8.71066,6.27035
		C7.61494,6.2943,6.41515,6.28159,4.9374,6.23126C4.40151,6.21366,3.85828,6.18239,3.33312,6.15209
		c-0.49144-0.02737-0.99119-0.0689-1.47433-0.10947L1.77574,6.03578C1.56422,6.0182,1.34976,5.99523,1.14166,5.97372
		L1.09037,5.96835C0.9868,5.95711,0.88323,5.94587,0.77967,5.93561L0.57352,5.91459
		C0.43233,5.90042,0.29116,5.88625,0.14997,5.87013c-0.04299-0.00439-0.11871,0-0.14607,0.10604
		C-0.0039,6.00989,0,6.0392,0.01564,6.06266c0.01661,0.0259,0.04494,0.043,0.085,0.05082l0.04494,0.00978
		c0.03664,0.00831,0.06888,0.01563,0.1021,0.01856l0.30434,0.03323c0.27015,0.02981,0.57595,0.06353,0.87004,0.08747
		C1.96919,6.307,2.53685,6.34756,3.15824,6.38616c0.26722,0.0171,0.53981,0.02883,0.8036,0.04007l0.97067,0.04399
		c0.40352,0.01906,0.82071,0.0386,1.23154,0.05277C6.45618,6.53277,6.75369,6.53423,7.04093,6.5357l0.27503,0.00098
		c1.06056,0.00685,2.19196,0.00244,3.33263-0.11044l0.40742-0.04056c0.47092-0.04643,1.05714-0.10408,1.61747-0.16663
		c0.14069-0.01515,0.28138-0.03177,0.42256-0.04838l0.09478-0.01173c0.3532-0.04251,0.71811-0.0865,1.07863-0.11484
		c0.31021-0.02395,0.63214-0.0562,0.91645-0.08454c0.19833-0.01955,0.39667-0.03909,0.59549-0.05669
		c0.0894-0.00929,0.09966-0.00195,0.10503,0.00146c0.00879,0.00831,0.01563,0.0215,0.02247,0.09774
		c0.02052,0.24434,0.08793,0.48086,0.1529,0.70907l0.04055,0.14367c0.11284,0.41146,0.25793,0.81315,0.43086,1.19383
		c0.26673,0.59031,0.4978,1.02915,0.7489,1.42302c0.44015,0.69245,0.95357,1.3507,1.5691,2.01285
		c0.33805,0.36455,0.70687,0.75011,1.11039,1.10147c0.0171,0.01417,0.02589,0.02639,0.02589,0.03519
		c-0.00049,0.00929-0.0083,0.02199-0.02296,0.0386c-0.05862,0.06792-0.11627,0.13536-0.16317,0.20915
		c-0.14021,0.21844-0.26331,0.44714-0.36492,0.67877c-0.15877,0.36113-0.14704,0.67583,0.03615,0.96171
		c0.20469,0.3196,0.4636,0.49356,0.7914,0.53119c0.37274,0.043,0.68832-0.01319,0.95895-0.17202l0.06399-0.03714l-0.04397,0.05913
		c-0.01466,0.02004-0.02735,0.03616-0.0425,0.05131c-0.09722,0.10408-0.1827,0.23066-0.26917,0.39778
		c-0.2296,0.44763-0.20762,0.83026,0.06741,1.17037c0.22765,0.28246,0.5144,0.42514,0.85343,0.42514
		c0.01515,0,0.03078,0,0.04641-0.00098c0.09525-0.00293,0.18515-0.02346,0.27259-0.043l0.0127-0.00293
		c0.02784-0.00636,0.0552-0.01222,0.08256-0.0176c0.23107-0.04789,0.43185-0.12217,0.61406-0.22821
		c0.06692-0.0386,0.13336-0.0816,0.19491-0.12266c0.01026-0.00636,0.02003-0.01271,0.02981-0.01857l0.11138-0.06694l-0.0933,0.0904
		c-0.15437,0.15051-0.26771,0.28734-0.35564,0.43101c-0.20322,0.33132-0.27601,0.60938-0.23693,0.90209
		c0.00732,0.05229,0.02149,0.10213,0.03469,0.15002l0.00244,0.00782c0.00684,0.02443,0.01368,0.04936,0.01954,0.07428
		c0.10094,0.41849,0.45163,0.69294,0.86046,0.69404c0.00171,0,0.0033,0.00012,0.005,0.00018
		C23.49686,18.784,23.54137,18.78125,23.58687,18.77453z M27.07827,19.21385c-0.00537,0.00439-0.01515,0.01173-0.02931,0.02102
		h-0.00049c-0.35564,0.22038-0.64434,0.35233-0.936,0.4271c-0.08158,0.02004-0.1661,0.02004-0.2633,0.02004L25.7754,19.6825
		c-0.02345,0.00244-0.0469,0.00391-0.07084,0.00391c-0.16854,0-0.34586-0.0694-0.52711-0.20671
		c-0.21885-0.16663-0.29067-0.43101-0.18271-0.67339c0.08256-0.18619,0.16854-0.33181,0.27064-0.45887l0.12506-0.15491
		c0.05667-0.07037,0.11382-0.14122,0.17147-0.21111l0.00879-0.01026c0.00439-0.00488,0.00732-0.00831,0.0083-0.01026
		l0.00635-0.01857l0.01563,0.01222c0.00488,0.00342,0.01319,0.00879,0.02784,0.02248
		c0.18564,0.16224,0.34733,0.30591,0.49487,0.43883c0.3444,0.30884,0.63897,0.54829,0.92817,0.75402
		c0.01319,0.00978,0.02101,0.01612,0.02638,0.02053l0.01466,0.01173L27.07827,19.21385z M35.99168,12.95736
		c-0.40058,0.40462-0.7611,0.7682-1.12847,1.12541c-0.20908,0.20328-0.41328,0.40756-0.60575,0.5996l-0.14362,0.1422
		c-0.12018,0.11924-0.23938,0.23798-0.35955,0.35625c-0.18857,0.18472-0.38104,0.36993-0.54615,0.52874
		c-0.19247,0.1857-0.39081,0.37725-0.58426,0.56734c-0.18466,0.17983-0.37127,0.36406-0.57156,0.56393l-0.06448,0.06353
		c-0.21104,0.20867-0.42793,0.42417-0.64386,0.63381c-0.13874,0.1339-0.2892,0.28148-0.46018,0.45153l-0.03908,0.03812
		c-0.34489,0.34011-0.7015,0.69197-1.0718,1.01742c-0.23351,0.20524-0.51586,0.43687-0.84122,0.59765
		c-0.09233,0.04447-0.19638,0.06548-0.28823,0.08357l-0.02833,0.00537l-0.05618-0.01075
		c-0.15339-0.02883-0.31167-0.05864-0.44943-0.14073c-0.15487-0.09138-0.31802-0.19058-0.51342-0.31177
		c-0.01173-0.00685-0.02003-0.01271-0.02589-0.01661c-0.00439-0.00293-0.00732-0.00488-0.00879-0.00587l-0.02296-0.00488
		l0.01515-0.01808c0.00781-0.01026,0.02345-0.02443,0.04641-0.04153l0.54274-0.41635c0.28578-0.21942,0.57205-0.43883,0.8593-0.6558
		c0.36052-0.27268,0.74937-0.56588,1.15485-0.863c0.28823-0.21062,0.57644-0.41928,0.86564-0.62794
		c0.23156-0.16712,0.46311-0.33425,0.69467-0.50284c0.16024-0.1163,0.31949-0.23457,0.47875-0.35282
		c0.10454-0.0777,0.20908-0.15539,0.3146-0.23261c0.09575-0.07037,0.1915-0.14025,0.28725-0.21013l0.16805-0.12266
		c0.27161-0.19791,0.55202-0.40169,0.82461-0.60791c0.16317-0.12559,0.3273-0.24727,0.47972-0.36015
		c0.26966-0.20036,0.53248-0.3968,0.7865-0.59765l0.12311-0.09822c0.19638-0.15638,0.3996-0.31764,0.60771-0.46815
		c0.1065-0.07721,0.20615-0.16419,0.29897-0.24678l0.02052,0.02199L35.99168,12.95736z M40.46939,7.54774
		c-0.26673,0.57614-0.50805,1.05261-0.8168,1.50463c-0.31949,0.46668-0.68978,0.88645-1.04248,1.27691l-0.02345-0.01857
		c0.08012-0.12559,0.14851-0.2414,0.20811-0.3538c0.08695-0.16468,0.16903-0.33621,0.23156-0.46767
		c0.01661-0.03421,0.03321-0.06792,0.04885-0.10164c0.02735-0.0562,0.05472-0.11239,0.08207-0.16811
		c0.10357-0.20818,0.18661-0.42856,0.26673-0.64114l0.02247-0.06157c0.03518-0.09138,0.07034-0.1857,0.10845-0.27805
		c0.06058-0.14563,0.10748-0.30102,0.14851-0.43785c0.02247-0.07379,0.04494-0.14709,0.06937-0.22088
		c0.00824-0.02431,0.02333-0.02425,0.03205-0.03781c0.00409-0.00801,0.01051-0.01466,0.01551-0.01826
		c0.00781-0.00519,0.008-0.02456,0.02082-0.02456c0.01074,0,0.02247,0.00146,0.03908,0.00391
		c0.19247,0.02541,0.38495,0.02102,0.56472,0.01368c0.00781,0.00049,0.01661-0.00098,0.02247,0.00391l0.00879,0.00685
		L40.46939,7.54774z M39.20512,6.75853c-0.05862-0.09871-0.00977-0.18619,0.0254-0.22918
		c0.03615-0.04545,0.08598-0.08014,0.15144-0.10654c0.1065-0.04594,0.15241-0.00439,0.19833,0.07428
		c0.05862,0.10067,0.07034,0.14709,0.07327,0.2761c0.00195,0.09774-0.01466,0.19107-0.03225,0.28978l-0.00684,0.03909
		c-0.00293,0.01809-0.01271,0.02785-0.02149,0.03128c-0.00195,0.00049-0.00391,0.00049-0.00586,0.00049
		c-0.0127,0-0.02345-0.00831-0.02345-0.00831l-0.0254-0.02102C39.53827,7.10452,39.28719,6.8978,39.20512,6.75853z M28.238,5.04084
		c0.18515-0.17885,0.37225-0.36308,0.53248-0.52142c0.42989-0.42368,0.91645-0.90356,1.41962-1.3331
		c0.45333-0.38703,0.87933-0.70614,1.30335-0.97637c0.25989-0.16712,0.56863-0.35967,0.88323-0.52142l0.08305-0.04349
		c0.3361-0.17299,0.68294-0.35135,1.04444-0.48281c0.32339-0.11728,0.66829-0.23994,1.01611-0.33377
		c0.33903-0.09138,0.62138-0.14758,0.88909-0.17787c0.25012-0.02785,0.53052-0.05375,0.88421-0.05522
		c0.03518-0.00146,0.0723-0.00195,0.10943-0.00195c0.32339,0,0.7015,0.05522,1.09915,0.16077
		c0.50122,0.13243,0.95456,0.35527,1.34732,0.66264c0.425,0.33328,0.78162,0.72959,1.09035,1.21093
		c0.25305,0.39093,0.44357,0.74962,0.58231,1.09707c0.12701,0.31324,0.20127,0.63967,0.27357,0.95487
		c0.08598,0.37432,0.1016,0.79018,0.0469,1.30916c-0.04006,0.38166-0.1016,0.68561-0.19345,0.95682
		c-0.01172,0.03226-0.01954,0.06499-0.02833,0.09969l-0.00391,0.0171c-0.0127,0.05522-0.02638,0.11777-0.05569,0.1725
		c-0.01955,0.03814-0.03518,0.04401-0.05569,0.04254c-0.06351-0.00342-0.12994-0.00391-0.19444-0.00439
		c-0.09281-0.00049-0.20713-0.00098-0.31558-0.01515c-0.11724-0.01515-0.12311-0.02297-0.10943-0.14025
		c0.02052-0.17739,0.0254-0.35282,0.01368-0.52142C39.89,6.44871,39.80989,6.31237,39.68678,6.23174
		c-0.12506-0.08064-0.27259-0.09529-0.42403-0.04105l-0.03127,0.01124c-0.07914,0.02834-0.23074,0.12372-0.29056,0.23176
		s-0.0641,0.31311,0.02969,0.45433c0.11528,0.17446,0.28138,0.38996,0.54811,0.5048
		c0.00586,0.00244,0.01074,0.00488,0.01368,0.00685l0.01661,0.00537l-0.00488,0.0171
		c-0.05374,0.1036-0.08012,0.21404-0.1065,0.32057c-0.01466,0.05962-0.02834,0.11777-0.04592,0.17348
		c-0.12604,0.38996-0.28626,0.77552-0.41132,1.06727c-0.1954,0.45446-0.37811,0.82097-0.57351,1.15474
		c-0.40937,0.6949-0.86467,1.23195-1.39226,1.64243c-0.19247,0.15002-0.38592,0.30493-0.57351,0.45496l-0.07718,0.06206
		c-0.27357,0.21844-0.55495,0.4447-0.83927,0.6602c-0.15632,0.11924-0.31166,0.23945-0.46702,0.36015
		c-0.29994,0.23359-0.64092,0.49845-0.98386,0.74425c-0.17488,0.12608-0.35466,0.26242-0.49926,0.37139
		c-0.12213,0.09236-0.24817,0.18814-0.3742,0.28001c-0.34196,0.25069-0.6849,0.50138-1.02881,0.75158l-1.72055,1.25492
		c-0.39667,0.28929-0.808,0.58885-1.20955,0.88743c-0.3317,0.24629-0.66731,0.50235-0.98289,0.74328
		c-0.16072,0.12315-0.32193,0.24629-0.48314,0.36846c-0.06937,0.05229-0.13825,0.10311-0.20811,0.15393
		c-0.0767,0.0562-0.15339,0.11239-0.2296,0.16957c-0.00928,0.00685-0.01661,0.01075-0.02442,0.01075
		c-0.00978,0-0.01954-0.00586-0.03518-0.01808l-0.09868-0.07818c-0.07475-0.05913-0.14948-0.11826-0.22423-0.17739
		c-0.29702-0.23701-0.58035-0.49601-0.85441-0.74621l-0.10698-0.09774c-0.00978-0.0088-0.01954-0.01857-0.02931-0.02785
		l-0.00928-0.00929c-0.04152-0.03958-0.08354-0.08064-0.13824-0.10898h-0.00049l-0.02003-0.01271l0.00635-0.01222
		c0.00146-0.00342,0.00391-0.00636,0.00879-0.01173c0.0596-0.06157,0.1236-0.12217,0.19052-0.18081
		c0.53394-0.47352,1.0122-0.8845,1.4626-1.25736c0.19101-0.15687,0.3786-0.32399,0.54469-0.47206
		c0.06839-0.0606,0.13728-0.12168,0.20664-0.18277l0.04445-0.03909c0.01319-0.01173,0.02735-0.02395,0.03859-0.03665
		c0.03469-0.03714,0.04885-0.08454,0.03859-0.13047c-0.00977-0.04789-0.0425-0.0865-0.09037-0.10702
		c-0.04738-0.01759-0.08402,0.00293-0.11529,0.03078l-0.15193,0.12412c-0.14753,0.12022-0.29555,0.24042-0.44406,0.35918
		c-0.47288,0.37823-0.98191,0.78334-1.55592,1.2383c-0.10308,0.08063-0.21006,0.1598-0.31119,0.23408
		c-0.04934,0.03616-0.09917,0.07281-0.14802,0.10947c-0.02882,0.02102-0.03859,0.02248-0.06692-0.00293
		c-0.43185-0.40512-0.87297-0.83221-1.31166-1.26957c-0.01563-0.01515-0.03469-0.02932-0.05325-0.04251
		c-0.04641-0.03323-0.0723-0.05375-0.0679-0.09285c0.00342-0.03176,0.03322-0.05277,0.06741-0.07672
		c0.02149-0.01563,0.04201-0.03029,0.05862-0.0474c0.10503-0.10947,0.22472-0.20867,0.34049-0.30444l0.03322-0.02785
		c0.05862-0.04887,0.11969-0.0992,0.17684-0.151c0.38397-0.34354,0.7865-0.67827,1.17536-1.00226l0.01074-0.00929l0.26185-0.21746
		c0.19882-0.16615,0.38934-0.33084,0.54909-0.47011c0.03664-0.03177,0.06107-0.0606,0.06253-0.09676
		c0.00195-0.04007-0.02491-0.07135-0.05276-0.10018c-0.05129-0.05229-0.1065-0.05571-0.16512-0.0088
		c-0.02882,0.02443-0.05911,0.04789-0.08891,0.07086l-0.03272,0.0259c-0.04592,0.03519-0.08891,0.06842-0.1319,0.10457
		c-0.16072,0.13683-0.32144,0.27415-0.48168,0.41146l-0.05667,0.04887c-0.2638,0.22577-0.53639,0.45887-0.80702,0.68561
		c-0.3229,0.26975-0.67561,0.54683-1.14409,0.8972c-0.02638,0.01955-0.03908,0.01759-0.05765,0.00098l-0.0723-0.0645
		c-0.04787-0.043-0.09771-0.08747-0.14411-0.13292c-0.42012-0.41049-0.83878-0.82244-1.25694-1.23341l-0.00586-0.00537
		c-0.01026-0.01075-0.01612-0.0171-0.02003-0.02199l-0.00879-0.00978l0.00879-0.00978
		c0.00439-0.00488,0.01074-0.01124,0.02247-0.02102c0.09184-0.07965,0.18466-0.15784,0.27796-0.23652l0.08109-0.0689
		c0.05227-0.04399,0.10405-0.08796,0.15583-0.13243l0.32095-0.27512c0.46995-0.40413,0.9565-0.82146,1.43281-1.23439
		c0.13581-0.11826,0.26868-0.24483,0.38592-0.35625l0.14362-0.13634c0.0254-0.02443,0.04641-0.04984,0.06253-0.07672
		c0.03225-0.05571,0.02052-0.11581-0.03176-0.16468c-0.06155-0.05668-0.12115-0.01759-0.149,0.00146
		c-0.15876,0.11093-0.29994,0.24238-0.43625,0.36944l-0.04982,0.04643c-0.51489,0.4789-1.07229,0.95927-1.70491,1.46993
		c-0.21153,0.17055-0.4211,0.35087-0.62335,0.52483l-0.09673,0.08308c-0.01124,0.01026-0.02101,0.01661-0.03028,0.01661
		c-0.00879,0.00146-0.01466-0.00391-0.01856-0.01075c-0.21348-0.22967-0.45382-0.44127-0.68637-0.64603
		c-0.12408-0.10947-0.2511-0.22137-0.37323-0.33474c-0.17586-0.16419-0.35173-0.32057-0.54616-0.49356
		c-0.03566-0.03177-0.03175-0.05082-0.01074-0.0777l0.0552-0.0733c0.04787-0.06206,0.09282-0.12071,0.14362-0.1769
		c0.53052-0.5737,1.02246-1.05407,1.50413-1.46749c0.15487-0.13243,0.30336-0.26877,0.46751-0.42026l0.0171-0.01563
		c0.15583-0.14318,0.31704-0.29076,0.48021-0.42954c0.39863-0.33718,0.80263-0.67583,1.14996-0.96709l0.15827-0.13243
		c0.2379-0.19938,0.4763-0.39827,0.7147-0.59716l0.66487-0.55563c0.02003-0.01661,0.03762-0.03665,0.05569-0.05718
		c0.01124-0.01368,0.02345-0.02785,0.03713-0.04105c0.03321-0.03226,0.0425-0.0347,0.04641-0.03567l0.00391-0.00098l0.00439,0.00146
		c0.00342,0.00098,0.01466,0.00439,0.04494,0.03078c0.05276,0.04447,0.10454,0.09138,0.149,0.13146
		c0.04104,0.03812,0.08305,0.07623,0.12604,0.11288c0.48558,0.4188,0.94137,0.76869,1.39226,1.06922
		c0.44259,0.29614,0.86613,0.51701,1.29553,0.67486c0.27796,0.1036,0.56521,0.1681,0.85343,0.19253
		c0.04006,0.00342,0.07914,0.00488,0.11725,0.00488c0.40546,0,0.74156-0.18326,0.99949-0.54585
		c0.06741-0.09676,0.11627-0.21453,0.14558-0.34989c0.01954-0.08747-0.00879-0.18472-0.08305-0.28929
		c-0.06546-0.09236-0.13581-0.18765-0.20811-0.28294l-0.04494-0.06109c-0.15438-0.20426-0.3107-0.40756-0.46604-0.61084
		l-0.14265-0.1857c-0.1319-0.17055-0.26282-0.34158-0.39374-0.51262L29.6312,6.9173
		c-0.34196-0.44763-0.72935-0.95438-1.14019-1.42057c-0.08207-0.09333-0.15975-0.19401-0.23449-0.29125l-0.03028-0.03958
		C28.17889,5.10535,28.17938,5.09705,28.238,5.04084z M29.69768,7.47199c0.00195-0.00098,0.00586-0.00195,0.00978-0.00195
		c0.01466,0,0.02442,0.01075,0.04299,0.03372c0.02149,0.02834,0.04397,0.05669,0.06644,0.08503l0.07816,0.09969
		c0.04201,0.05326,0.085,0.10849,0.12506,0.1637c0.21006,0.2849,0.3996,0.52337,0.57742,0.72861
		c0.00586,0.00831,0.01173,0.01612,0.01759,0.02443L30.6327,8.6277c0.00488,0.00782,0.01075,0.01515,0.01661,0.02248
		l0.01075,0.01319c0.04397,0.05473,0.08891,0.11044,0.07621,0.1637l-0.00293,0.01368
		c-0.02345,0.10751-0.04494,0.20915-0.13092,0.28001c-0.03126,0.02639-0.05374,0.04007-0.085,0.04007
		c-0.00879,0-0.01856-0.00098-0.02931-0.00342c-0.20908-0.03616-0.38299-0.13243-0.5315-0.29419
		c-0.1788-0.19058-0.31753-0.42173-0.41231-0.68805c-0.03225-0.08552-0.0469-0.17592-0.05862-0.26144l-0.00293-0.01759
		c-0.00488-0.0259-0.00879-0.04984-0.0127-0.06255c0.00293-0.19156,0.07621-0.30787,0.22374-0.36064l0.00098-0.00049
		L29.69768,7.47199z M27.66155,5.56519l0.00293,0.00439c0.00293,0.00488,0.00586,0.01368,0.00342,0.05619v0.01173
		c-0.00049,0.0088-0.00049,0.01809,0,0.02785c-0.0127,0.05131-0.02296,0.10164-0.03321,0.15295
		C27.6,5.98837,27.56532,6.16039,27.44222,6.30699c-0.01563,0.01808-0.03272,0.0386-0.05862,0.05913
		c-0.02833,0.02346-0.04494,0.03519-0.06253,0.03519c-0.00684,0-0.01368-0.00195-0.02149-0.00537
		c-0.04104-0.02199-0.06107-0.05375-0.06107-0.09725c0.00244-0.13683,0.03713-0.26144,0.10259-0.37188
		c0.05374-0.0904,0.12262-0.17202,0.18905-0.25166l0.06302-0.07574c0.02198-0.02785,0.03371-0.04007,0.04885-0.04007
		c0.00586,0,0.01074,0.00195,0.01515,0.00391L27.66155,5.56519z M16.13558,5.37461
		c-0.02198-0.49698-0.00146-0.93679,0.06351-1.34483c0.01222-0.08161,0.03225-0.16322,0.05178-0.24238l0.00391-0.0171
		c0.0127-0.0518,0.0254-0.1036,0.03664-0.15539c0.05472-0.25508,0.15046-0.51555,0.31021-0.84443
		c0.11481-0.23847,0.26673-0.47548,0.47875-0.74621c0.29897-0.37969,0.65607-0.69929,1.09183-0.97734
		c0.32632-0.20769,0.66633-0.37139,1.00976-0.48574c0.31119-0.1036,0.59403-0.17446,0.86467-0.21648
		c0.6678-0.10457,1.34439-0.1036,2.01366,0.00488c0.44796,0.07233,0.90912,0.1945,1.37077,0.36357
		c0.34391,0.12608,0.70492,0.29565,1.13677,0.53412c0.54811,0.30444,1.05323,0.67926,1.50022,1.11417
		c0.48851,0.4745,0.88372,1.02817,1.17585,1.64487c0.02247,0.04594,0.04494,0.09187,0.0679,0.13732l0.05765,0.11386L27.282,4.15389
		c-0.3278-0.40462-0.70835-0.75647-1.07033-1.08192c-0.38397-0.34647-0.74058-0.63528-1.08939-0.88352
		c-0.27454-0.19547-0.57351-0.39973-0.89544-0.57028l-0.10308-0.05522c-0.18905-0.10067-0.40351-0.21501-0.6209-0.31031
		c-0.20762-0.09138-0.43332-0.1769-0.69027-0.26095c-0.31216-0.10262-0.65168-0.17446-1.06985-0.22577
		c-0.4338-0.05326-0.85294-0.0474-1.24473,0.01612c-0.34098,0.0557-0.68734,0.14269-1.05958,0.26535
		c-0.72104,0.23652-1.3522,0.64993-1.87638,1.22853c-0.15487,0.17153-0.30386,0.34158-0.42892,0.52924
		c-0.16365,0.24483-0.30287,0.50333-0.41426,0.7682c-0.04982,0.11875-0.09037,0.24091-0.12897,0.35918l-0.00342,0.00978
		c-0.01417,0.04447-0.02833,0.08845-0.04348,0.13292c-0.05569,0.16811-0.085,0.33767-0.08744,0.50333
		c-0.00098,0.07281-0.00781,0.14758-0.01466,0.22039l-0.00146,0.01856c-0.01026,0.11484-0.02149,0.23359-0.00978,0.3538
		c0.01271,0.13146,0.03533,0.34584,0.02369,0.38638c-0.01163,0.04054-0.20605,0.05613-0.25756,0.03306
		C16.14428,5.56767,16.13558,5.37461,16.13558,5.37461z M19.92449,12.18379l-0.10503-0.10555
		c-0.36736-0.36944-0.74693-0.75158-1.10159-1.15572c-0.46409-0.52825-0.89397-1.10098-1.27649-1.70157
		c-0.19052-0.2976-0.37127-0.63381-0.56863-1.05749c-0.20908-0.45251-0.35759-0.85616-0.45432-1.23439
		c-0.01026-0.04056-0.02149-0.08111-0.03273-0.12119L16.37008,6.7512c-0.0508-0.18081-0.16658-0.76966-0.17147-0.79507
		c-0.01075-0.05082-0.00537-0.06891-0.00098-0.07526c0.00732-0.00685,0.01954-0.01271,0.05129-0.01271l0.00831,0.00049
		c0.05814,0.00293,0.1192-0.00098,0.1954-0.0088c0.05276-0.00439,0.07475,0.00831,0.08744,0.06109
		c0.02345,0.09627,0.05129,0.18716,0.08256,0.27024c0.06888,0.18814,0.19443,0.35576,0.3957,0.52825l0.04445,0.0386
		c0.08695,0.07477,0.1744,0.15051,0.27747,0.20574c0.08695,0.04643,0.19247,0.09725,0.3107,0.11825
		c0.20127,0.03372,0.36052-0.04594,0.47923-0.2414c0.08256-0.1373,0.07475-0.28537-0.02296-0.42856
		c-0.32583-0.47499-0.72641-0.74132-1.22324-0.81364c-0.02394-0.00293-0.0469-0.00586-0.06985-0.01075
		c-0.08402-0.01856-0.0894-0.02395-0.0933-0.10018c-0.01124-0.24189-0.01319-0.43785-0.00586-0.61621
		c0.01222-0.27268,0.05862-0.56002,0.14167-0.87815c0.0425-0.16224,0.10845-0.31764,0.16707-0.4486
		c0.17049-0.38068,0.36932-0.69831,0.6082-0.97002c0.30483-0.34989,0.63067-0.62843,0.9951-0.85127
		c0.22374-0.13683,0.46067-0.25411,0.70394-0.34989c0.32046-0.12559,0.56912-0.2028,0.80604-0.24971
		c0.37909-0.07672,0.73033-0.11435,1.07375-0.11484c0.30532,0.00098,0.62384,0.03372,0.97312,0.09969
		c0.23644,0.04594,0.47141,0.11777,0.69808,0.18716l0.0083,0.00244c0.22521,0.06891,0.44455,0.16957,0.638,0.25851l0.06448,0.02932
		c0.44357,0.20231,0.87395,0.45007,1.27844,0.73692c0.32583,0.23115,0.65412,0.49259,1.03272,0.82293
		c0.30337,0.26437,0.59745,0.55415,0.8339,0.78676c0.13239,0.12999,0.26136,0.26878,0.38642,0.40315l0.03028,0.03226
		c0.09233,0.0992,0.18759,0.20133,0.28382,0.29907c0.13043,0.13292,0.17196,0.29858,0.20957,0.48574
		c0.00977,0.04887-0.01612,0.08308-0.06644,0.12998c-0.07865,0.07135-0.15046,0.1466-0.2296,0.23016l-0.06106,0.065
		c-0.2467,0.25998-0.33659,0.57321-0.26624,0.92995c0.01026,0.04692,0.02735,0.08405,0.05422,0.12022
		c0.04787,0.06255,0.09819,0.08112,0.17391,0.06597c0.20615-0.04251,0.36247-0.15295,0.47728-0.33767
		c0.08793-0.14122,0.11822-0.29809,0.14802-0.45007l0.00684-0.03567c0.02296-0.12559,0.03225-0.23896,0.02735-0.34598
		c-0.00244-0.07818,0.00488-0.14612,0.02247-0.2072c0.00195-0.00636,0.00342-0.01368,0.00488-0.0215
		c-0.00049-0.00098,0.00049-0.00439,0.00098-0.00636l0.00586-0.02346l0.01856,0.01563
		c0.00488,0.00391,0.01124,0.01124,0.01661,0.0171l0.00439,0.00488L28.11,5.45134c0.08695,0.10311,0.17684,0.21013,0.26771,0.31275
		c0.22814,0.25656,0.43966,0.53119,0.64386,0.79654c0.16024,0.20769,0.32535,0.42173,0.49731,0.62599l0.0127,0.01515
		c0.01075,0.01222,0.02345,0.02688,0.03028,0.04838l0.00391,0.01222L29.5345,7.27704
		c-0.02638,0.01222-0.05374,0.02492-0.07719,0.04251c-0.09966,0.07086-0.23058,0.18814-0.20811,0.38947
		c0.00293,0.02199,0.00391,0.04594,0.00195,0.0777L29.2502,7.82237c0,0.48086,0.1954,0.90552,0.59696,1.2984
		c0.06058,0.06011,0.11431,0.10555,0.18954,0.14807c0.08695,0.04887,0.1661,0.09284,0.27454,0.09284
		c0.00586,0,0.01173,0,0.01759-0.00049l0.03908-0.00146L30.34055,9.3871c-0.02345,0.02932-0.05569,0.04251-0.10064,0.06109
		c-0.18661,0.08014-0.3869,0.07281-0.57839,0.06353c-0.4719-0.01906-0.88274-0.22772-1.26281-0.44029
		c-0.68637-0.38361-1.35757-0.85421-2.05126-1.43865L26.2263,7.53113c-0.08012-0.06743-0.15975-0.13439-0.24035-0.20133
		c-0.09966-0.08308-0.12018-0.08259-0.21787-0.00049c-0.34245,0.28685-0.6849,0.57419-1.02735,0.86153l-0.39765,0.33328
		c-0.30043,0.25118-0.64875,0.54341-0.98826,0.83172c-0.3019,0.25508-0.6165,0.52776-0.9355,0.81071l-0.11871,0.10457
		c-0.26917,0.23798-0.54762,0.48379-0.81094,0.73643l-0.10454,0.10018c-0.15632,0.14953-0.33414,0.31862-0.49046,0.49454
		c-0.08109,0.09089-0.16707,0.17984-0.25061,0.26583l-0.01612,0.01661c-0.10015,0.10262-0.21348,0.21893-0.31851,0.3406
		l-0.00635,0.00782c-0.03957,0.04692-0.08451,0.10018-0.12115,0.16077c-0.00244,0.00439-0.00488,0.00782-0.00635,0.01026
		l-0.00684,0.01319L20.15408,12.412c-0.00537-0.00244-0.01222-0.00831-0.02003-0.01661
		C20.0642,12.32501,19.99435,12.25415,19.92449,12.18379z M16.77553,5.87257l0.01173-0.00391
		c0.00488-0.00342,0.01466-0.00195,0.04543,0.00293c0.1915,0.02688,0.35759,0.07477,0.50708,0.1466
		c0.23204,0.11142,0.40546,0.30151,0.54665,0.59814c0.00439,0.00782,0.00635,0.01857,0.00879,0.02932l0.00195,0.00978
		c0.00049,0.04447-0.02882,0.09187-0.07376,0.12412c-0.02735,0.01906-0.05667,0.02883-0.08109,0.02883
		c-0.00879,0-0.01661-0.00098-0.02345-0.00342c-0.26429-0.09774-0.55984-0.23798-0.75427-0.53754
		c-0.05276-0.08112-0.12799-0.20426-0.17635-0.34354c-0.00586-0.01563-0.00978-0.02932-0.01075-0.03909L16.77553,5.87257z
		 M21.25129,14.58415c-0.09086,0.04643-0.18759,0.08601-0.26527,0.11777c-0.14216,0.05816-0.29653,0.08698-0.48656,0.09089
		c-0.26086-0.00049-0.48656-0.08845-0.67122-0.26144c-0.19638-0.18374-0.26722-0.39925-0.21739-0.65971
		c0.04201-0.21453,0.14411-0.39729,0.25158-0.5908l0.01661-0.02981c0.05325-0.09578,0.11528-0.18911,0.17537-0.27903
		c0.04104-0.06157,0.07914-0.11875,0.11578-0.1769l0.01515-0.02248l0.0127,0.01612c0.12262,0.15198,0.27113,0.28099,0.41475,0.4056
		c0.07377,0.0645,0.14704,0.12803,0.21641,0.19401c0.17684,0.16811,0.36394,0.33181,0.54469,0.49014l0.00928,0.00831
		c0.08647,0.07574,0.17293,0.15198,0.25891,0.22821c0.03078,0.02736,0.07768,0.06743,0.13483,0.10213
		c0.0083,0.00439,0.01417,0.0088,0.01856,0.01173l0.01612,0.01075l-0.01222,0.01417
		c-0.00537,0.00439-0.01222,0.01075-0.02296,0.01857C21.60595,14.39601,21.42325,14.49521,21.25129,14.58415z M22.59323,16.50855
		c-0.20127,0.0904-0.4167,0.14415-0.6419,0.16077c-0.0254,0.00146-0.05129,0.00244-0.07621,0.00244
		c-0.2467,0-0.46311-0.08991-0.63018-0.26291c-0.15486-0.16029-0.22276-0.34452-0.20762-0.56197
		c-0.02149-0.17397,0.07425-0.32546,0.16707-0.47206l0.00781-0.01271c0.18905-0.2976,0.44064-0.58348,0.76892-0.87472
		c0.01661-0.01515,0.02687-0.02248,0.03225-0.02639c0.00049,0-0.00244,0.00439-0.00195,0.01026l0.01319-0.00146l0.00635-0.01466
		c0.00049,0,0.00195,0.00049,0.00439,0.00195l0.00488,0.00342c0.00537,0.00391,0.0127,0.01026,0.02345,0.0215
		c0.15975,0.1686,0.32975,0.32594,0.51929,0.49942l0.03225,0.03029c0.08354,0.07672,0.16707,0.15393,0.24866,0.23212
		c0.21836,0.20867,0.4338,0.4227,0.66144,0.64945c0.00732,0.00733,0.0127,0.01319,0.01661,0.01759
		c0.00293,0.00342,0.00488,0.00537,0.00635,0.00636l0.01856,0.00978l-0.01612,0.01368
		c-0.00391,0.00342-0.01173,0.01075-0.02784,0.02248C23.1731,16.20655,22.87803,16.38003,22.59323,16.50855z M22.79499,17.49176
		c0.02784-0.14758,0.10308-0.30053,0.23009-0.46767c0.11578-0.15198,0.25647-0.29419,0.38055-0.41929l0.06351-0.0645
		c0.03518-0.03519,0.0723-0.0694,0.10698-0.10115c0.07524-0.0689,0.1529-0.14025,0.21641-0.22674
		c0.00732-0.01026,0.01319-0.01417,0.01563-0.01515l0.00684-0.00195c0.01173,0,0.02687,0.01417,0.03321,0.02003
		c0.42598,0.42612,0.85246,0.85225,1.27942,1.27789c0.02198,0.0215,0.04592,0.04202,0.06692,0.05913
		c0.01856,0.01563,0.03713,0.03127,0.05472,0.04838c0.00635,0.00586,0.01025,0.01026,0.0127,0.01368l0.01417,0.01026
		l-0.01123,0.01368c-0.00391,0.00342-0.0083,0.00685-0.01466,0.01075c-0.12994,0.07965-0.25744,0.16566-0.38055,0.24874
		l-0.00824-0.01216l0,0l0.00726,0.01313c-0.2257,0.15295-0.45969,0.31129-0.71128,0.42906l-0.00342,0.00146
		c-0.15681,0.07281-0.45872,0.18081-0.64826,0.18081c-0.02833,0.00049-0.05569,0.00098-0.08109,0.00098
		c-0.18027,0-0.32487-0.08308-0.47483-0.26975C22.7857,18.03566,22.73637,17.79768,22.79499,17.49176z"/>
	<path d="M49.119,27.42504c-0.04201-0.04984-0.08793-0.10164-0.14069-0.15344c-0.638-0.63235-1.42353-1.14252-2.47187-1.60481
		c-1.92181-0.82781-3.93155-1.26029-5.46743-1.5447c-1.276-0.24434-2.66924-0.44958-4.2569-0.62745
		c-2.01756-0.2243-4.22857-0.38556-6.75907-0.49356c-1.1524-0.04984-2.35757-0.06011-3.42057-0.0694l-0.02101-0.00049
		c-0.85246-0.00782-1.81873-0.01661-2.75179-0.04496c-2.81041-0.09237-5.5368-0.37823-8.10345-0.85029
		c-2.62527-0.47792-4.75519-1.03843-6.70191-1.76363c-0.81338-0.30346-1.66583-0.66997-2.3898-1.28961
		c-0.97751-0.83905-1.2501-2.03337-0.72887-3.19593c0.09281-0.19889,0.21787-0.34158,0.38153-0.43785
		c0.48851-0.27561,1.01952-0.32253,1.42793-0.33279c0.06302-0.00195,0.12555-0.00293,0.18857-0.00293
		c0.79433,0,1.58766,0.14319,2.35659,0.28197l0.01025,0.00195c0.11725,0.02053,0.14655,0.05913,0.13531,0.17934
		c-0.00537,0.18081,0.00049,0.3665,0.00586,0.53022l0.00098,0.03078c0.00537,0.07135-0.00342,0.11826-0.0254,0.13829
		c-0.02394,0.02199-0.07425,0.02541-0.15193,0.01075c-0.40449-0.06401-0.80214-0.05913-1.21395,0.01319
		c-0.39472,0.07526-0.69711,0.27073-0.85099,0.55073c-0.14021,0.25508-0.149,0.55611-0.02491,0.86935
		c0.09478,0.24189,0.23156,0.47255,0.40595,0.68659c0.41377,0.49405,0.98094,0.83514,1.78356,1.07215
		c1.08792,0.31666,2.22909,0.3841,3.38833,0.19889c0.47484-0.07965,0.96823-0.20622,1.35806-0.58934
		c0.47239-0.45984,0.59452-1.16793,0.30385-1.76216c-0.34489-0.69098-0.90961-1.12982-1.65166-1.57647
		c-0.85832-0.50725-1.83046-0.91773-3.15139-1.32968c-1.02148-0.31373-2.37564-0.65776-3.79428-0.52679
		C5.71365,13.9,4.96476,14.25136,4.43032,14.89934c-0.1998,0.24385-0.425,0.5825-0.38885,1.04088
		c0.02735,0.39729,0.03811,0.79654,0.04885,1.1821l0.00049,0.02883c0.00439,0.15882,0.00879,0.31812,0.01417,0.47743
		l0.30728,7.78897c0.01417,0.31861,0.06839,0.5825,0.17098,0.82977c0.29067,0.67827,0.81826,1.12884,1.29602,1.47971
		c1.0332,0.75842,2.18072,1.22461,3.16654,1.58135c2.25839,0.83075,4.56858,1.31649,6.32868,1.6478
		c2.03417,0.37823,4.10888,0.66264,6.34383,0.86984c2.36538,0.2199,4.46843,0.31177,6.422,0.27561
		c1.94623-0.03714,3.84069,0.01955,5.63744,0.17886c2.12406,0.18374,3.99115,0.48085,5.70876,0.90796
		c0.05275,0.01368,0.10454,0.02639,0.1573,0.03909c0.03322,0.00782,0.06741,0.01662,0.10064,0.02443
		c0.15046,0.03519,0.32632,0.07721,0.5061,0.13585l0.12311,0.04007l-0.12897,0.01759
		c-1.19001,0.16615-2.37613,0.29321-3.52413,0.37725c-1.04835,0.08014-2.42986,0.15833-3.80552,0.05082l-0.25598-0.01759
		c-0.6761-0.0518-1.44209-0.10849-2.17779-0.02053c-1.62479,0.18667-2.92961,0.77602-3.98919,1.80223
		c0,0-0.26467,0.17761-0.26689,0.2574c-0.00221,0.07978,0.06666,0.10492,0.13303,0.11009s0.20225-0.04984,0.28871-0.13585
		c0.17635-0.17104,0.36786-0.34989,0.57009-0.49454c1.20125-0.8845,2.57251-1.31844,4.18069-1.31844
		c0.13972,0,0.2804,0.00391,0.42305,0.00978c0.24621,0.01173,0.50512,0.03127,0.72789,0.04789l0.01759,0.00195
		c0.27845,0.02053,0.56668,0.043,0.84903,0.05277c1.79675,0.05669,3.75276-0.05962,5.98136-0.33914
		c0.39374-0.04398,0.79921-0.10164,1.1568-0.15149l0.0088-0.00098l0.36931-0.0518c0.00781-0.00195,0.01661-0.00195,0.02932-0.00195
		c0.07425-0.00293,0.15144-0.0215,0.15828-0.13488c0-0.10067-0.07425-0.1339-0.1446-0.15736l-0.01075-0.00293
		c-0.04299-0.02053-0.08793-0.03323-0.1358-0.04691c-1.0972-0.33915-2.28526-0.61378-3.63356-0.8415l-0.02345-0.00391
		l-0.00195-0.02346l-0.27845-5.02748c-0.00391-0.07721-0.06155-0.12803-0.15437-0.13488
		c-0.07425,0.00488-0.13385,0.07233-0.12994,0.14953l0.27552,4.9874l-0.03712-0.00586
		c-0.18954-0.03029-0.38299-0.05962-0.5784-0.08796c-1.44307-0.21111-2.96528-0.35184-4.52363-0.41831l-0.02735-0.00098
		l-0.00195-0.02736l-0.27943-5.0607c-0.00391-0.07818-0.06155-0.12901-0.15339-0.13488
		c-0.07426,0.00391-0.13483,0.07037-0.13092,0.14953l0.27943,5.05875l-0.03321-0.00098
		c-0.66145-0.02346-1.32778-0.03029-1.98336-0.02541c-1.25303,0.00782-2.20222,0.00293-3.07666-0.01563l-0.02784-0.00098
		l-0.00146-0.02736l-0.27601-5.00304c-0.00488-0.07721-0.06351-0.12901-0.15437-0.13488
		c-0.07426,0.00391-0.13483,0.07037-0.13092,0.14856l0.27601,5.01184l-0.03273-0.00098
		c-1.06007-0.02736-2.01023-0.07428-2.9047-0.14465c-0.42745-0.03421-0.89495-0.07623-1.4289-0.12705l-0.0254-0.00293
		l-0.00146-0.02541l-0.2765-5.02455c-0.00488-0.07721-0.06351-0.12901-0.15438-0.13488
		c-0.07425,0.00391-0.13483,0.07135-0.13092,0.14953l0.27503,5.00695l-0.03469-0.00293
		c-1.44698-0.1466-2.7772-0.31666-4.06736-0.51995l-0.02394-0.00391l-0.00098-0.02346l-0.27454-4.97372
		c-0.00391-0.07233-0.06351-0.12412-0.15632-0.13585c-0.0723,0.00586-0.13287,0.0733-0.12897,0.15051l0.2721,4.93854
		l-0.03713-0.00685c-0.27747-0.04594-0.57254-0.09481-0.8632-0.1466c-1.28137-0.22479-2.3517-0.44371-3.36781-0.68805
		l-0.02198-0.00488l-0.00098-0.02248l-0.28138-5.09638c-0.00391-0.07721-0.06692-0.13243-0.1529-0.13488
		c-0.07572,0.00537-0.1363,0.07281-0.13238,0.151l0.27747,5.02943l-0.03957-0.00978
		c-1.19491-0.29907-2.25595-0.62159-3.24373-0.98712c-0.31851-0.11728-0.60722-0.23066-0.88226-0.34598l-0.0171-0.00685
		l-0.00098-0.01857l-0.27992-5.08025c-0.00439-0.07477-0.06497-0.12754-0.15437-0.13488
		c-0.03322,0.00195-0.06839,0.01905-0.09477,0.0474c-0.02491,0.02785-0.03762,0.06401-0.03664,0.1036l0.27308,4.95564
		l-0.04494-0.02053c-0.85147-0.38312-1.51634-0.78676-2.09328-1.27055c-0.70786-0.58445-1.04542-1.20898-1.06202-1.96447
		c-0.03518-1.24807-0.08744-2.51618-0.13728-3.74276l-0.00488-0.11288c-0.02149-0.51751-0.0425-1.03452-0.06253-1.55202
		c-0.04445-1.30671-0.0933-2.59632-0.14558-3.96168l-0.00146-0.03958c-0.01173-0.20036,0.03664-0.37823,0.15193-0.55856
		c0.34978-0.56931,0.89838-0.94265,1.67707-1.14106c0.73814-0.1857,1.52465-0.19352,2.54955-0.02492
		c1.33217,0.22723,2.67315,0.64993,3.98578,1.25687c0.77918,0.35674,1.58376,0.78725,2.18854,1.51587
		c0.3571,0.43052,0.48656,0.94851,0.34586,1.38588c-0.13678,0.4271-0.51391,0.74181-1.06154,0.88548
		c-1.42059,0.37676-2.83924,0.29125-4.21587-0.25411c-0.70492-0.27512-1.18367-0.68512-1.4626-1.25394
		c-0.14997-0.30933-0.1744-0.5825-0.07083-0.79019c0.10259-0.20671,0.33317-0.35038,0.6678-0.41635
		c0.40058-0.07916,0.82021-0.04789,1.18269-0.01222c0.12848,0.01026,0.15632,0.04056,0.15632,0.17055
		c-0.00928,0.3235-0.0083,0.64749-0.00732,0.96122l0.00049,0.38361c-0.00098,0.08991-0.00195,0.20036,0.13434,0.25313
		c0.64338,0.27024,1.13726,0.28294,1.60428,0.04399c0.25744-0.12901,0.42354-0.33621,0.46848-0.58397
		c0.04397-0.24629-0.03908-0.49698-0.23449-0.70565c-0.09526-0.10898-0.21592-0.19547-0.33219-0.27317
		c-0.33366-0.21062-0.71811-0.34745-1.20858-0.42906c-0.14167-0.02346-0.17781-0.06548-0.16756-0.19498
		c0.01075-0.15051,0.00928-0.30151,0.00732-0.46131c-0.00195-0.09578-0.00391-0.20426-0.00049-0.30689
		c0.00684-0.14416-0.05862-0.22821-0.20078-0.25851c-1.38103-0.31911-2.45526-0.39534-3.47968-0.2502
		C6.5671,14.8802,6.03755,15.01604,5.7503,15.514c-0.59159,1.01351-0.47923,2.31534,0.27943,3.23942
		c0.59452,0.72275,1.39275,1.14008,2.02147,1.42253c1.20272,0.53705,2.4538,0.91382,3.51876,1.21191
		c1.02393,0.28685,2.13675,0.54683,3.40102,0.79507c1.8715,0.36993,3.88612,0.64211,6.15966,0.83221
		c1.38151,0.11386,2.83288,0.1725,4.43716,0.17934c2.94427,0.00782,5.20169,0.08064,7.32085,0.23652
		c1.55347,0.10995,3.07275,0.22528,4.58421,0.42173c2.07129,0.26437,3.63942,0.53266,5.08639,0.86984
		c1.58962,0.37628,3.27499,0.84345,4.82944,1.70938c0.90473,0.49845,1.50657,1.03696,1.8925,1.69472
		c0.07034,0.12412,0.07914,0.22479,0.02834,0.34794c-0.2765,0.73594-0.54616,1.48459-0.79921,2.18828
		c-0.3361,0.91577-0.67024,1.83057-1.00438,2.74536c-0.33414,0.91578-0.66829,1.83057-1.00439,2.74537
		c-0.03419,0.09285-0.06937,0.1857-0.10748,0.28441l-0.03028,0.07819l-0.03518-0.1036
		c-0.05862-0.16615-0.1192-0.33816-0.21983-0.48672c-0.14362-0.22479-0.2765-0.42417-0.4553-0.59716
		c-0.20615-0.20622-0.42598-0.38996-0.6722-0.561l-0.01271-0.00781l-0.00098-0.01466l-0.27943-5.05582
		c-0.00391-0.07916-0.06644-0.13488-0.15241-0.13585c-0.07523,0.00488-0.1358,0.0733-0.1319,0.15051l0.26868,4.86914
		l-0.04787-0.02736c-0.60868-0.35477-1.31507-0.62452-2.3644-0.90014c-0.00978-0.00391-0.01856-0.00684-0.02736-0.00978
		c-0.08402-0.02834-0.16805-0.043-0.21787,0.05082c-0.06058,0.10751,0.01271,0.17299,0.08598,0.22674l0.02735,0.01955
		c0.50903,0.39191,0.98093,0.81609,1.40301,1.26273c0.51685,0.55024,0.99754,1.10342,1.20955,1.82764
		c0.1358,0.47011-0.01074,0.87766-0.41328,1.14643c-0.27552,0.18373-0.5999,0.31373-1.05323,0.42123
		c-1.09915,0.27463-2.22078,0.31177-3.17241,0.31177c-1.00829,0-2.0156-0.04398-2.9897-0.08503
		c-0.79823-0.03421-1.62284-0.0694-2.44745-0.08112c-0.09673,0-0.11627-0.01955-0.12213-0.12217
		c-0.02149-0.55024-0.04494-1.09951-0.06839-1.64878c-0.02442-0.58348-0.04885-1.16695-0.07132-1.75042l-0.00098-0.01759
		c-0.01271-0.37432-0.03225-0.39485-0.41622-0.42807c-1.60525-0.1681-3.03367-0.04789-4.36535,0.3665
		c-1.08645,0.33816-2.0796,0.85323-2.95208,1.5315c-0.23302,0.18179-0.29946,0.37432-0.22276,0.6431
		c0.10015,0.37628,0.18368,0.76135,0.26429,1.13275c0.03469,0.16224,0.06985,0.3235,0.10601,0.48281
		c0.15681,0.72128,0.31363,1.4367,0.47092,2.15212l0.04787,0.21991c0.00293,0.01075,0.00537,0.02346,0.00781,0.03714
		c0.0083,0.04398,0.01954,0.10555,0.06888,0.13781c0.02882,0.01857,0.06692,0.02248,0.11675,0.01466
		c0.10454-0.02834,0.1065-0.11337,0.09673-0.18472l-0.00098-0.0088c-0.00098-0.00978-0.00146-0.02053-0.00146-0.03323
		c-0.01173-0.25607,0.08549-0.47792,0.29799-0.67632c0.24279-0.23749,0.55006-0.42026,0.96628-0.57663
		c1.72641-0.65483,3.38051-0.97638,5.05709-0.98224c0.02834,0,0.05472,0,0.07914,0c0.26184,0,0.27454,0.03616,0.28823,0.34011
		l0.00098,0.01857c0.00391,0.09969-0.00879,0.12705-0.02247,0.14172c-0.01661,0.01564-0.04787,0.02346-0.09867,0.02346
		c-0.01954,0-0.03908,0-0.05862,0l-0.09184-0.00098c-0.63507,0-1.30628,0.03909-2.11428,0.12315
		c-0.74547,0.07917-1.53882,0.1945-2.28428,0.49454c-0.29311,0.11826-0.62335,0.28049-0.84708,0.59423
		c-0.12701,0.1769-0.28138,0.44665-0.15193,0.74474c0.12115,0.25508,0.3825,0.31568,0.62286,0.34109
		c0.12018,0.01466,0.23839,0.01075,0.34391,0.01368h0.04494c0.48168,0,0.95065-0.08601,1.40399-0.16909l0.04006-0.00685
		c0.16219-0.03029,0.33024-0.0606,0.49535-0.08601c0.09086-0.01271,0.17879-0.02932,0.25989-0.04398
		c0.2169-0.03812,0.41426-0.06939,0.63409-0.06939h0.08695l-0.06839,0.05375c-0.2804,0.21991-0.52955,0.4398-0.78357,0.6949
		c-0.84708,0.86007-1.36393,1.78561-1.58083,2.82844c-0.2208,1.05163-0.17978,2.15114,0.12799,3.45883
		c0.06546,0.27952,0.16219,0.58934,0.30385,0.97441l0.00978,0.02541c0.02638,0.06255,0.06155,0.12803,0.14362,0.12803
		c0.00879,0,0.01661-0.00098,0.03225-0.00293c0.10454-0.02736,0.10552-0.10947,0.09184-0.19351
		c-0.00195-0.01466-0.00391-0.02834-0.00684-0.04984c-0.00195-0.00488-0.00391-0.01271-0.00684-0.02053l-0.00978-0.0303
		c-0.00293-0.01173-0.00684-0.02346-0.00879-0.03519c-0.16317-0.74572-0.17879-1.47971-0.04494-2.18046
		c0.25598-1.32919,1.00732-2.37104,2.29992-3.1842c0.37811-0.23946,0.85783-0.5737,1.21542-1.04381
		c0.22179-0.29419,0.30288-0.58445,0.23156-0.8415c-0.07132-0.25801-0.29409-0.47011-0.64582-0.61377
		c-0.06253-0.02443-0.12994-0.04007-0.20517-0.05767c-0.07132-0.01662-0.16024-0.03812-0.24426-0.07428l-0.05667-0.02443
		l0.16413-0.08894c0.10943-0.05864,0.21592-0.11532,0.32144-0.17006c0.19931-0.09774,0.42403-0.21893,0.57156-0.42905
		c0.06253-0.09383,0.11822-0.12412,0.22667-0.12412h0.02736c1.26231,0.04984,2.62233,0.08503,4.02242,0.02541
		c1.53784-0.05864,3.28183-0.12412,4.98088-0.46131c0.65363-0.13096,1.4626-0.29321,2.12014-0.72421
		c1.19979-0.78188,2.09181-1.83449,2.65263-3.12946c0,0,0.17031-0.33958,0.13376-0.4094
		c-0.03656-0.06982-0.13963-0.04996-0.13963-0.04996c-0.0723,0.00978-0.12408,0.05962-0.16512,0.15638
		c-0.35172,0.92066-0.9184,1.74163-1.73227,2.50689c-0.60674,0.56588-1.24668,0.93825-1.95698,1.14056
		c-0.78846,0.23065-1.65997,0.39093-2.66435,0.4916c-2.13382,0.22186-4.46794,0.27953-7.33844,0.18472
		c-0.13092-0.01173-0.2892-0.01563-0.34391,0.20427c-0.01759,0.0733-0.08305,0.13976-0.19443,0.19938
		c-0.08402,0.04789-0.17098,0.09578-0.25891,0.14367l-0.07719,0.04202c-0.1661,0.08991-0.35955,0.19547-0.54421,0.30494
		c-0.15632,0.08894-0.30777,0.12119-0.47385,0.09676c-0.17098-0.02346-0.35857-0.01857-0.57254,0.01955
		c-0.10552,0.01857-0.21201,0.03812-0.31851,0.05669l-0.21006,0.03909c-0.44845,0.0821-0.91059,0.16712-1.38249,0.21893
		c-0.3019,0.03909-0.66242,0.07037-1.01904,0.01857c-0.15339-0.02541-0.2467-0.07428-0.28823-0.14758
		c-0.0425-0.07526-0.03371-0.18472,0.02638-0.33328c0.06009-0.16029,0.17391-0.29907,0.33903-0.41049
		c0.23253-0.16224,0.51684-0.28929,0.86662-0.39094c1.22617-0.35282,2.49141-0.41244,3.78792-0.44567h0.01954
		c0.31265-0.00684,0.46702-0.00978,0.55299-0.10164c0.085-0.09089,0.07914-0.24532,0.06741-0.55317l-0.00098-0.01368
		c-0.00391-0.08698,0.00684-0.11239,0.01954-0.1251c0.01563-0.01661,0.05374-0.02541,0.11138-0.02541
		c0.26283,0.00782,0.52369,0.01368,0.78455,0.01955l0.01075,0.00098c0.36052,0.00685,0.76891,0.01564,1.16266,0.03128
		l0.54225,0.02541c1.21151,0.05669,2.46308,0.11924,3.6912,0.07037c0.99853-0.03616,2.06543-0.12217,3.10499-0.5092
		c0.44748-0.16712,0.72397-0.3753,0.89594-0.67339c0.3273-0.54927,0.12897-1.09854-0.04885-1.46407
		c-0.34391-0.7164-0.87151-1.28521-1.39031-1.79246c-0.1192-0.11826-0.24719-0.23554-0.37225-0.34891l-0.03225-0.02932
		c-0.05081-0.04887-0.10357-0.09578-0.15535-0.14269l-0.09477-0.08698l0.12311,0.03519
		c1.01903,0.29125,1.80457,0.6988,2.40348,1.24807c0.56472,0.52093,0.82754,1.04282,0.82754,1.64487
		c0,0.00978-0.00195,0.02053-0.00293,0.03323l-0.00195,0.00782c-0.00586,0.04496-0.01466,0.10262,0.01954,0.1466
		c0.02149,0.02834,0.05667,0.04496,0.10552,0.04984c0.00391,0.00098,0.00684,0.00098,0.00978,0.00098
		c0.1016,0,0.1358-0.07721,0.1573-0.16224c0.00293-0.01271,0.00684-0.02541,0.01074-0.03714l0.05179-0.13878
		c0.2804-0.75158,0.62823-1.68592,0.9526-2.58802c0.16707-0.4574,0.33512-0.92554,0.49633-1.37806l0.07914-0.22186
		c0.41817-1.17184,0.89104-2.49907,1.40203-3.7491C49.72181,28.29291,49.51664,27.85799,49.119,27.42504z M10.69843,16.5364
		c0.01222-0.00439,0.0425-0.00244,0.06253,0.00195c0.38592,0.07818,0.83242,0.19547,1.22324,0.47206
		c0.27747,0.18716,0.38836,0.38996,0.34929,0.63772c-0.0469,0.23945-0.21348,0.39142-0.52466,0.47841
		c-0.11774,0.03029-0.2379,0.04545-0.3615,0.04545c-0.2169,0-0.44503-0.04643-0.68978-0.13976
		c-0.06937-0.02639-0.08744-0.05913-0.08061-0.14612v-1.2725c-0.00195-0.02492-0.00049-0.03909,0-0.04594l-0.00537-0.02688
		L10.69843,16.5364z M34.24377,38.70264c-0.02638,0.02834-0.08695,0.04105-0.19443,0.04105
		c-1.78991,0.01857-3.52608,0.34403-5.16065,0.96953c-0.45187,0.17494-0.96823,0.42123-1.36881,0.91772l-0.03957,0.04887
		l-0.01319-0.0606c-0.21055-0.96561-0.41377-1.87749-0.60135-2.718c-0.01319-0.05864-0.0254-0.11826-0.03762-0.1769
		l-0.00293-0.01173c-0.03175-0.14953-0.07083-0.33523-0.12017-0.50724c-0.03615-0.12119-0.01124-0.19157,0.09868-0.2766
		c1.12114-0.90893,2.41521-1.49339,3.95499-1.78756c0.97996-0.19253,2.07618-0.22577,3.17631-0.10947
		c0.15632,0.01857,0.17978,0.05571,0.18564,0.18179c0.04006,1.0096,0.08598,2.15505,0.15339,3.30832
		C34.27895,38.62055,34.27016,38.67527,34.24377,38.70264z M32.9287,41.5692c0.05275-0.03714,0.11235-0.05669,0.17685-0.05669
		c0.02345,0,0.04787,0.00293,0.06741,0.00782c0.02834,0.00782,0.05667,0.01368,0.085,0.0215l0.06937,0.01662
		c0.19638,0.04887,0.41817,0.10457,0.60576,0.23164c0.3869,0.24434,0.44162,0.47597,0.20224,0.85421
		c-0.2892,0.45348-0.72104,0.76135-1.10501,1.00275c-1.11479,0.6988-1.82606,1.48948-2.23934,2.48833
		c-0.19638,0.48574-0.31949,0.98224-0.36247,1.4758l-0.02149,0.23457l-0.03811-0.23261
		c-0.0254-0.14856-0.04104-0.30102-0.05471-0.43297c-0.1104-1.29206,0.04299-2.30849,0.48168-3.19886
		C31.24528,43.06551,31.94288,42.27582,32.9287,41.5692z"/>
</g>
</svg>
